<svg width="197" height="207" viewBox="0 0 197 207" fill="none" xmlns="http://www.w3.org/2000/svg">
<path d="M123.87 4.86523L113.916 34.5817L125.517 5.59265L123.87 4.86523Z" fill="url(#paint0_linear)"/>
<path d="M169.856 28.3044L140.943 48.6889L170.908 29.7912L169.856 28.3044Z" fill="url(#paint1_linear)"/>
<path d="M196.616 64.8191L156.569 70.3591L196.962 66.5624L196.616 64.8191Z" fill="url(#paint2_linear)"/>
<path d="M196.963 104.232L156.568 93.5144L196.617 105.916L196.963 104.232Z" fill="url(#paint3_linear)"/>
<path d="M170.908 136.537L140.937 112.506L169.856 137.844L170.908 136.537Z" fill="url(#paint4_linear)"/>
<path d="M125.517 152.955L113.918 121.976L123.87 153.4L125.517 152.955Z" fill="url(#paint5_linear)"/>
<path d="M73.0938 149.046L83.0455 119.33L71.4466 148.319L73.0938 149.046Z" fill="url(#paint6_linear)"/>
<path d="M27.1075 125.608L56.0225 105.223L26.0561 124.122L27.1075 125.608Z" fill="url(#paint7_linear)"/>
<path d="M0.345612 89.0908L40.395 83.5535L-8.01086e-05 87.3475L0.345612 89.0908Z" fill="url(#paint8_linear)"/>
<path d="M0.00128174 49.6792L40.3965 60.3969L0.346931 47.9951L0.00128174 49.6792Z" fill="url(#paint9_linear)"/>
<path d="M26.0573 17.375L56.0293 41.409L27.1086 16.0684L26.0573 17.375Z" fill="url(#paint10_linear)"/>
<path d="M71.447 0.958391L83.0499 31.9368L73.0938 0.513184L71.447 0.958391Z" fill="url(#paint11_linear)"/>
<path d="M95.6665 30.275L100.442 28.3022L103.718 32.7965L102.928 27.4506L107.947 26.0677L102.683 24.7368L102.51 19.3877L100.047 23.9111L94.9202 21.988L98.6617 26.1145L95.6665 30.275Z" fill="url(#paint12_linear)"/>
<path d="M35.9789 65.9704L33.7412 64.4141L34.6387 62.0286L32.6495 63.5646L30.585 61.7732L31.5932 64.2788L29.4199 65.557L32.0321 65.5696L32.7535 68.151L33.3596 65.6532L35.9789 65.9704Z" fill="url(#paint13_linear)"/>
<path d="M170.754 88.9505L174.345 89.4201L174.893 93.0193L176.156 89.7627L179.704 90.6433L176.894 88.1612L178.539 85.1063L175.539 86.8287L173.008 84.0601L173.963 87.6069L170.754 88.9505Z" fill="url(#paint14_linear)"/>
<path d="M144.464 148.197L143.845 143.571L148.208 142.438L143.667 141.224L143.582 136.602L141.394 140.479L136.98 138.755L140.168 142.365L137.525 145.921L141.683 144.276L144.464 148.197Z" fill="url(#paint15_linear)"/>
<path d="M41.0931 140.803L44.7182 138.171L48.3171 141.454L46.6382 136.953L50.58 134.788L45.9172 134.638L44.7543 130.016L43.5515 134.425L38.8911 133.734L42.8104 136.608L41.0931 140.803Z" fill="url(#paint16_linear)"/>
<path d="M139.23 52.8744L141.26 51.2444L143.428 53.0649L142.339 50.484L144.564 49.118L141.862 49.1529L141.068 46.488L140.487 49.0906L137.772 48.8097L140.115 50.3832L139.23 52.8744Z" fill="url(#paint17_linear)"/>
<path d="M39.5542 50.0673C39.5542 50.6147 39.998 51.0965 40.5453 51.1435C41.0927 51.1904 41.5364 50.7846 41.5364 50.2373C41.5364 49.6899 41.0927 49.2081 40.5453 49.1612C39.998 49.1142 39.5542 49.52 39.5542 50.0673Z" fill="url(#paint18_linear)"/>
<path d="M13.4001 108.283C13.4001 108.74 13.7698 109.141 14.226 109.18C14.6822 109.219 15.0519 108.881 15.0519 108.425C15.0519 107.969 14.6822 107.568 14.226 107.528C13.7698 107.489 13.4001 107.827 13.4001 108.283Z" fill="url(#paint19_linear)"/>
<path d="M85.4204 118.201C85.4204 118.657 85.7901 119.058 86.2463 119.098C86.7024 119.137 87.0721 118.799 87.0721 118.342C87.0721 117.886 86.7024 117.485 86.2463 117.446C85.7901 117.407 85.4204 117.745 85.4204 118.201Z" fill="url(#paint20_linear)"/>
<path d="M168.563 145.15C168.563 146.153 169.377 147.036 170.38 147.122C171.384 147.208 172.197 146.465 172.197 145.461C172.197 144.457 171.384 143.574 170.38 143.488C169.377 143.402 168.563 144.146 168.563 145.15Z" fill="url(#paint21_linear)"/>
<path d="M181.062 108.229C181.062 108.594 181.358 108.915 181.723 108.946C182.088 108.977 182.384 108.707 182.384 108.342C182.384 107.977 182.088 107.656 181.723 107.625C181.358 107.593 181.062 107.864 181.062 108.229Z" fill="url(#paint22_linear)"/>
<path d="M159.764 80.5978C159.764 80.9627 160.06 81.2838 160.425 81.3151C160.79 81.3464 161.086 81.076 161.086 80.711C161.086 80.3461 160.79 80.0249 160.425 79.9937C160.06 79.9624 159.764 80.2328 159.764 80.5978Z" fill="url(#paint23_linear)"/>
<path d="M158.102 21.2456C158.102 22.0667 158.767 22.7893 159.588 22.8598C160.409 22.9301 161.075 22.3216 161.075 21.5005C161.075 20.6794 160.409 19.9568 159.588 19.8864C158.767 19.816 158.102 20.4245 158.102 21.2456Z" fill="url(#paint24_linear)"/>
<path d="M126.551 29.1129C126.551 30.0252 127.291 30.8281 128.203 30.9063C129.115 30.9845 129.855 30.3083 129.855 29.3961C129.855 28.4838 129.115 27.6808 128.203 27.6026C127.291 27.5244 126.551 28.2006 126.551 29.1129Z" fill="url(#paint25_linear)"/>
<path d="M66.4241 39.3762C66.4241 39.9235 66.8679 40.4053 67.4152 40.4522C67.9626 40.4991 68.4064 40.0934 68.4064 39.546C68.4064 38.9987 67.9626 38.5169 67.4152 38.47C66.8679 38.4231 66.4241 38.8288 66.4241 39.3762Z" fill="url(#paint26_linear)"/>
<path d="M55.1365 54.046C55.1365 54.5022 55.5063 54.9036 55.9624 54.9427C56.4186 54.9818 56.7883 54.6437 56.7883 54.1876C56.7883 53.7314 56.4186 53.33 55.9624 53.2909C55.5063 53.2518 55.1365 53.5898 55.1365 54.046Z" fill="url(#paint27_linear)"/>
<path d="M164.263 42.9636L170.8 44.3273L171.298 50.9368L174.082 45.2071L180.482 47.3109L175.666 42.406L179.122 37.0967L173.362 39.7949L169.099 34.4099L170.355 40.9824L164.263 42.9636Z" fill="url(#paint28_linear)"/>
<path d="M26.6667 41.1242L29.8351 41.1876L30.6628 44.3241L31.4438 41.3133L34.6151 41.7452L31.9293 39.8212L33.0616 36.9516L30.6206 38.7733L28.1491 36.5679L29.3263 39.6178L26.6667 41.1242Z" fill="url(#paint29_linear)"/>
<path d="M33.6117 106.99L30.2871 104.537L31.7585 100.977L28.6692 103.204L25.618 100.404L27.0333 104.233L23.6761 106.063L27.6402 106.203L28.6166 110.133L29.6511 106.39L33.6117 106.99Z" fill="url(#paint30_linear)"/>
<path d="M95.2651 125.094L98.1386 124.277L99.7472 127.023L99.6234 123.95L102.601 123.482L99.6506 122.4L99.8822 119.365L98.1828 121.769L95.3485 120.362L97.2484 122.928L95.2651 125.094Z" fill="url(#paint31_linear)"/>
<path d="M166.594 123.524L168.033 120.132L171.763 121.171L168.865 118.467L170.702 115.3L167.471 117.021L164.876 114.024L165.778 117.791L162.337 119.106L166.126 119.714L166.594 123.524Z" fill="url(#paint32_linear)"/>
<path d="M54.6107 23.6695L58.4787 21.1216L62.063 24.6545L60.5197 19.9538L64.6952 17.8995L59.8734 17.5423L58.8696 12.7397L57.4329 17.2198L52.637 16.3058L56.5708 19.4318L54.6107 23.6695Z" fill="url(#paint33_linear)"/>
<path d="M184.531 81.5456C184.531 82.0018 184.901 82.4032 185.357 82.4423C185.813 82.4814 186.183 82.1434 186.183 81.6872C186.183 81.231 185.813 80.8295 185.357 80.7904C184.901 80.7514 184.531 81.0895 184.531 81.5456Z" fill="url(#paint34_linear)"/>
<path d="M155.734 115.308C155.734 116.038 156.325 116.68 157.055 116.742C157.785 116.805 158.377 116.264 158.377 115.534C158.377 114.804 157.785 114.162 157.055 114.099C156.325 114.037 155.734 114.578 155.734 115.308Z" fill="url(#paint35_linear)"/>
<path d="M127.763 119.517C127.763 120.247 128.354 120.89 129.084 120.952C129.814 121.015 130.406 120.474 130.406 119.744C130.406 119.014 129.814 118.372 129.084 118.309C128.354 118.247 127.763 118.788 127.763 119.517Z" fill="url(#paint36_linear)"/>
<path d="M143.841 127.944C143.841 128.673 144.432 129.316 145.162 129.378C145.892 129.441 146.484 128.9 146.484 128.17C146.484 127.44 145.892 126.798 145.162 126.735C144.432 126.673 143.841 127.214 143.841 127.944Z" fill="url(#paint37_linear)"/>
<path d="M59.2662 114.968C59.2662 116.063 60.1537 117.026 61.2484 117.12C62.3432 117.214 63.2306 116.402 63.2306 115.308C63.2306 114.213 62.3432 113.249 61.2484 113.156C60.1537 113.062 59.2662 113.873 59.2662 114.968Z" fill="url(#paint38_linear)"/>
<path d="M25.6419 74.4615C25.6419 74.9177 26.0117 75.3192 26.4679 75.3582C26.924 75.3974 27.2938 75.0593 27.2938 74.6031C27.2938 74.147 26.924 73.7455 26.4679 73.7065C26.0117 73.6673 25.6419 74.0054 25.6419 74.4615Z" fill="url(#paint39_linear)"/>
<path d="M5.74637 57.5212C5.74637 58.251 6.33808 58.8934 7.06789 58.9559C7.79776 59.0185 8.3894 58.4776 8.3894 57.7478C8.3894 57.0179 7.79775 56.3756 7.06789 56.313C6.33808 56.2505 5.74637 56.7913 5.74637 57.5212Z" fill="url(#paint40_linear)"/>
<path d="M21.5489 23.5267C21.5489 24.3477 22.2145 25.0704 23.0356 25.1408C23.8566 25.2111 24.5222 24.6026 24.5222 23.7815C24.5222 22.9604 23.8566 22.2378 23.0356 22.1674C22.2145 22.097 21.5489 22.7055 21.5489 23.5267Z" fill="url(#paint41_linear)"/>
<path d="M53.5949 30.0174C53.5949 31.0209 54.4085 31.9042 55.412 31.9902C56.4154 32.0762 57.229 31.3324 57.229 30.329C57.229 29.3254 56.4154 28.4421 55.412 28.3561C54.4085 28.2701 53.5949 29.0139 53.5949 30.0174Z" fill="url(#paint42_linear)"/>
<path d="M151.053 28.6806C151.053 29.3192 150.536 29.7925 149.897 29.7378C149.259 29.6831 148.741 29.121 148.741 28.4823C148.741 27.8438 149.259 27.3705 149.897 27.4252C150.536 27.48 151.053 28.0421 151.053 28.6806Z" fill="url(#paint43_linear)"/>
<path d="M108.429 92.3026H87.5707C77.664 92.3026 68.7824 86.5678 64.9387 77.6913L59.8342 65.9038C58.6708 63.2183 58.9373 60.1484 60.5465 57.6986C62.2173 55.1515 65.0617 53.6345 68.1572 53.6345H127.843C130.938 53.6345 133.783 55.1515 135.454 57.6986C137.063 60.1535 137.329 63.2183 136.166 65.9038L131.061 77.6913C127.218 86.5678 118.336 92.3026 108.429 92.3026ZM68.1572 57.96C66.5274 57.96 65.0309 58.7493 64.1648 60.0715C63.3448 61.3169 63.2115 62.8185 63.806 64.1818L68.9105 75.9693C72.0675 83.257 79.3963 87.972 87.5758 87.972H108.435C116.614 87.972 123.938 83.257 127.1 75.9693L132.204 64.1818C132.794 62.8134 132.666 61.3169 131.846 60.0715C130.974 58.7493 129.483 57.96 127.853 57.96H68.1572Z" fill="#FDBC4B"/>
<path d="M107.697 95.0033C105.887 99.211 105.652 103.998 107.492 108.205H88.5085C90.3177 103.998 90.1127 99.211 88.3035 95.0033C78.5763 77.8602 72.7645 65.8267 71.4781 48.6528H124.517C123.236 65.8216 117.424 77.8551 107.697 95.0033Z" fill="#FFDB70"/>
<path d="M111.273 108.19H84.7208C83.1064 108.19 81.7996 109.497 81.7996 111.111V113.377H114.195V111.111C114.195 109.497 112.888 108.19 111.273 108.19Z" fill="#FDBC4B"/>
<path d="M118.259 113.377H77.7303C76.116 113.377 74.8091 114.684 74.8091 116.298V129.008H121.175V116.298C121.18 114.684 119.873 113.377 118.259 113.377Z" fill="url(#paint44_linear)"/>
<path d="M125.644 43H70.356C69.1721 43 68.2086 43.9584 68.2086 45.1474V46.5106C68.2086 47.6945 69.167 48.658 70.356 48.658H125.639C126.823 48.658 127.787 47.6996 127.787 46.5106V45.1474C127.787 43.9584 126.828 43 125.644 43Z" fill="#FDBC4B"/>
<path d="M100.163 91.5437C100.163 89.6423 98.5995 88.0792 96.6982 88.0792H91.1683C89.5385 88.0792 88.2163 86.7518 88.247 85.158V84.8863C88.1445 83.3232 89.4002 81.9651 90.9992 81.9651H102.577C104.478 81.9651 106.144 80.5711 106.277 78.7056C106.343 76.7017 104.78 75.0361 102.782 75.0361H92.3214C90.7275 75.0361 89.4002 73.7138 89.4002 72.1148L89.436 71.9098V71.8842C89.4002 70.1878 90.7942 68.7938 92.4905 68.7938H96.5649C98.4663 68.7938 100.132 67.3998 100.265 65.4985C100.332 63.4946 98.7687 61.829 96.7699 61.829H91.8448C90.1484 61.829 88.9235 60.435 88.9235 58.7386C88.9235 58.7386 88.9235 58.7386 88.9235 58.7027C88.9235 58.6668 88.9235 58.6668 88.9235 58.6668C88.9235 57.0012 90.1484 55.5765 91.8448 55.5765H100.639C102.505 55.5765 104.17 54.1825 104.273 52.317C104.375 50.2772 102.776 48.6475 100.808 48.6475H71.4832C72.7695 65.8008 78.5813 77.8497 88.2983 95.0031C88.2983 95.0031 88.3752 95.0031 88.5187 95.0031C89.4207 95.0031 92.9877 95.0031 96.8007 95.0031C98.6662 94.9723 100.163 93.4451 100.163 91.5437Z" fill="#FFCC5B"/>
<path opacity="0.1" d="M124.358 50.0468C124.399 49.5753 124.476 49.1346 124.512 48.6528H71.4832C71.519 49.1346 71.5959 49.5753 71.6369 50.0468H124.358Z" fill="#010101"/>
<path d="M70.6684 153.516H16V207H70.6684V153.516Z" fill="#7165E3"/>
<path d="M70.6684 153.516H16V207H70.6684V153.516Z" fill="url(#paint45_linear)"/>
<path d="M125.337 128.71H70.6687V207H125.337V128.71Z" fill="#7165E3"/>
<path d="M125.337 128.71H70.6687V207H125.337V128.71Z" fill="url(#paint46_linear)"/>
<path d="M180 163.55H125.331V207H180V163.55Z" fill="#7165E3"/>
<path d="M180 163.55H125.331V207H180V163.55Z" fill="url(#paint47_linear)"/>
<path d="M125.331 128.71H95.0273C92.5571 128.71 90.3943 130.52 90.2611 132.949C90.1278 135.552 92.2034 137.715 94.7608 137.715H97.9229C100.526 137.715 102.602 139.878 102.469 142.481C102.336 144.911 100.132 146.761 97.7026 146.761H92.8594C90.4302 146.807 88.4929 148.79 88.4929 151.26C88.4929 153.731 90.5224 155.76 92.9927 155.76H102.161C104.278 155.76 106 157.482 105.959 159.558V159.911C106.092 161.941 104.457 163.704 102.382 163.704H92.0292C89.5589 163.704 87.3962 165.513 87.2168 167.942C87.1297 170.546 89.1592 172.709 91.7627 172.709H100.66C102.735 172.709 104.457 174.431 104.457 176.506L104.411 176.773V176.819C104.457 179.028 102.648 180.837 100.439 180.837H92.1112C89.6409 180.837 87.4782 182.646 87.2988 185.116C87.2117 187.72 89.2412 189.882 91.8447 189.882H101.28C103.489 189.882 105.077 191.692 105.077 193.9C105.077 193.9 105.077 193.9 105.077 193.947C105.077 193.993 105.077 193.993 105.077 193.993C105.077 196.155 103.489 198.011 101.28 198.011H95.6884C93.2592 198.011 91.0964 199.82 90.9683 202.249C90.8299 204.883 92.9056 207 95.4681 207H125.337V128.71H125.331Z" fill="url(#paint48_linear)" fill-opacity="0.75"/>
<path d="M125.331 128.71H95.0273C92.5571 128.71 90.3943 130.52 90.2611 132.949C90.1278 135.552 92.2034 137.715 94.7608 137.715H97.9229C100.526 137.715 102.602 139.878 102.469 142.481C102.336 144.911 100.132 146.761 97.7026 146.761H92.8594C90.4302 146.807 88.4929 148.79 88.4929 151.26C88.4929 153.731 90.5224 155.76 92.9927 155.76H102.161C104.278 155.76 106 157.482 105.959 159.558V159.911C106.092 161.941 104.457 163.704 102.382 163.704H92.0292C89.5589 163.704 87.3962 165.513 87.2168 167.942C87.1297 170.546 89.1592 172.709 91.7627 172.709H100.66C102.735 172.709 104.457 174.431 104.457 176.506L104.411 176.773V176.819C104.457 179.028 102.648 180.837 100.439 180.837H92.1112C89.6409 180.837 87.4782 182.646 87.2988 185.116C87.2117 187.72 89.2412 189.882 91.8447 189.882H101.28C103.489 189.882 105.077 191.692 105.077 193.9C105.077 193.9 105.077 193.9 105.077 193.947C105.077 193.993 105.077 193.993 105.077 193.993C105.077 196.155 103.489 198.011 101.28 198.011H95.6884C93.2592 198.011 91.0964 199.82 90.9683 202.249C90.8299 204.883 92.9056 207 95.4681 207H125.337V128.71H125.331Z" fill="#7165E3"/>
<path d="M125.331 128.71H95.0273C92.5571 128.71 90.3943 130.52 90.2611 132.949C90.1278 135.552 92.2034 137.715 94.7608 137.715H97.9229C100.526 137.715 102.602 139.878 102.469 142.481C102.336 144.911 100.132 146.761 97.7026 146.761H92.8594C90.4302 146.807 88.4929 148.79 88.4929 151.26C88.4929 153.731 90.5224 155.76 92.9927 155.76H102.161C104.278 155.76 106 157.482 105.959 159.558V159.911C106.092 161.941 104.457 163.704 102.382 163.704H92.0292C89.5589 163.704 87.3962 165.513 87.2168 167.942C87.1297 170.546 89.1592 172.709 91.7627 172.709H100.66C102.735 172.709 104.457 174.431 104.457 176.506L104.411 176.773V176.819C104.457 179.028 102.648 180.837 100.439 180.837H92.1112C89.6409 180.837 87.4782 182.646 87.2988 185.116C87.2117 187.72 89.2412 189.882 91.8447 189.882H101.28C103.489 189.882 105.077 191.692 105.077 193.9C105.077 193.9 105.077 193.9 105.077 193.947C105.077 193.993 105.077 193.993 105.077 193.993C105.077 196.155 103.489 198.011 101.28 198.011H95.6884C93.2592 198.011 91.0964 199.82 90.9683 202.249C90.8299 204.883 92.9056 207 95.4681 207H125.337V128.71H125.331Z" fill="url(#paint49_linear)" fill-opacity="0.5"/>
<path d="M150.075 163.55C147.636 163.55 145.499 165.334 145.37 167.732C145.237 170.305 147.287 172.442 149.814 172.442H152.94C155.513 172.442 157.558 174.579 157.43 177.147C157.296 179.545 155.113 181.375 152.72 181.375H147.938C145.54 181.421 143.623 183.379 143.623 185.818C143.623 188.258 145.627 190.262 148.066 190.262H157.122C159.213 190.262 160.915 191.963 160.868 194.008V194.357C161.002 196.361 159.387 198.103 157.337 198.103H147.118C144.679 198.103 142.541 199.892 142.367 202.285C142.28 204.863 144.284 207 146.857 207H180V163.55H150.075Z" fill="url(#paint50_linear)" fill-opacity="0.75"/>
<path d="M150.075 163.55C147.636 163.55 145.499 165.334 145.37 167.732C145.237 170.305 147.287 172.442 149.814 172.442H152.94C155.513 172.442 157.558 174.579 157.43 177.147C157.296 179.545 155.113 181.375 152.72 181.375H147.938C145.54 181.421 143.623 183.379 143.623 185.818C143.623 188.258 145.627 190.262 148.066 190.262H157.122C159.213 190.262 160.915 191.963 160.868 194.008V194.357C161.002 196.361 159.387 198.103 157.337 198.103H147.118C144.679 198.103 142.541 199.892 142.367 202.285C142.28 204.863 144.284 207 146.857 207H180V163.55H150.075Z" fill="#7165E3"/>
<path d="M150.075 163.55C147.636 163.55 145.499 165.334 145.37 167.732C145.237 170.305 147.287 172.442 149.814 172.442H152.94C155.513 172.442 157.558 174.579 157.43 177.147C157.296 179.545 155.113 181.375 152.72 181.375H147.938C145.54 181.421 143.623 183.379 143.623 185.818C143.623 188.258 145.627 190.262 148.066 190.262H157.122C159.213 190.262 160.915 191.963 160.868 194.008V194.357C161.002 196.361 159.387 198.103 157.337 198.103H147.118C144.679 198.103 142.541 199.892 142.367 202.285C142.28 204.863 144.284 207 146.857 207H180V163.55H150.075Z" fill="url(#paint51_linear)" fill-opacity="0.5"/>
<path d="M33.8297 153.516C30.8265 153.516 28.1974 155.714 28.0385 158.666C27.8745 161.834 30.396 164.463 33.5069 164.463H37.3506C40.5179 164.463 43.0394 167.092 42.8754 170.254C42.7165 173.206 40.031 175.456 37.0841 175.456H31.1955C28.2435 175.512 25.886 177.926 25.886 180.929C25.886 183.933 28.3511 186.403 31.3595 186.403H42.5064C45.0791 186.403 47.1752 188.494 47.1189 191.015V191.446C47.2777 193.911 45.2944 196.058 42.7729 196.058H30.1859C27.1826 196.058 24.5535 198.257 24.3382 201.209C24.2306 204.371 26.7009 207 29.8681 207H70.6682V153.516H33.8297Z" fill="url(#paint52_linear)" fill-opacity="0.75"/>
<path d="M33.8297 153.516C30.8265 153.516 28.1974 155.714 28.0385 158.666C27.8745 161.834 30.396 164.463 33.5069 164.463H37.3506C40.5179 164.463 43.0394 167.092 42.8754 170.254C42.7165 173.206 40.031 175.456 37.0841 175.456H31.1955C28.2435 175.512 25.886 177.926 25.886 180.929C25.886 183.933 28.3511 186.403 31.3595 186.403H42.5064C45.0791 186.403 47.1752 188.494 47.1189 191.015V191.446C47.2777 193.911 45.2944 196.058 42.7729 196.058H30.1859C27.1826 196.058 24.5535 198.257 24.3382 201.209C24.2306 204.371 26.7009 207 29.8681 207H70.6682V153.516H33.8297Z" fill="#7165E3"/>
<path d="M33.8297 153.516C30.8265 153.516 28.1974 155.714 28.0385 158.666C27.8745 161.834 30.396 164.463 33.5069 164.463H37.3506C40.5179 164.463 43.0394 167.092 42.8754 170.254C42.7165 173.206 40.031 175.456 37.0841 175.456H31.1955C28.2435 175.512 25.886 177.926 25.886 180.929C25.886 183.933 28.3511 186.403 31.3595 186.403H42.5064C45.0791 186.403 47.1752 188.494 47.1189 191.015V191.446C47.2777 193.911 45.2944 196.058 42.7729 196.058H30.1859C27.1826 196.058 24.5535 198.257 24.3382 201.209C24.2306 204.371 26.7009 207 29.8681 207H70.6682V153.516H33.8297Z" fill="url(#paint53_linear)" fill-opacity="0.5"/>
<path d="M98.8045 156.037C98.292 157.472 97.3439 158.728 95.9601 159.804C95.1094 160.465 94.3099 160.952 93.536 161.352V165.452C95.1658 164.74 96.6725 163.863 97.9486 162.669V179.674H102.464V156.032H98.8045V156.037Z" fill="white"/>
<path d="M51.2448 187.889V192.082H35.424C35.5931 190.498 36.1107 188.996 36.9666 187.577C37.8225 186.157 39.5137 184.276 42.0403 181.934C44.075 180.038 45.3203 178.757 45.7816 178.08C46.4017 177.147 46.7143 176.23 46.7143 175.318C46.7143 174.313 46.4427 173.539 45.9046 172.996C45.3665 172.458 44.6182 172.186 43.665 172.186C42.722 172.186 41.9737 172.468 41.4151 173.037C40.8565 173.606 40.5387 174.549 40.4516 175.861L35.957 175.41C36.2235 172.924 37.064 171.146 38.4785 170.065C39.893 168.983 41.656 168.445 43.7777 168.445C46.0993 168.445 47.9238 169.07 49.2563 170.326C50.5837 171.576 51.25 173.134 51.25 175C51.25 176.061 51.0603 177.07 50.6811 178.029C50.3018 178.987 49.6971 179.992 48.872 181.042C48.3236 181.739 47.3396 182.739 45.9148 184.046C44.4901 185.352 43.5881 186.219 43.2088 186.649C42.8296 187.08 42.5221 187.495 42.2863 187.9H51.2448V187.889Z" fill="white"/>
<path d="M144.848 190.646L149.215 190.119C149.353 191.231 149.727 192.081 150.337 192.671C150.947 193.26 151.685 193.552 152.551 193.552C153.484 193.552 154.268 193.199 154.903 192.491C155.539 191.784 155.857 190.831 155.857 189.632C155.857 188.499 155.549 187.597 154.939 186.936C154.329 186.27 153.586 185.942 152.705 185.942C152.126 185.942 151.434 186.054 150.634 186.28L151.131 182.6C152.351 182.631 153.284 182.37 153.924 181.806C154.565 181.242 154.888 180.499 154.888 179.566C154.888 178.772 154.652 178.141 154.181 177.67C153.709 177.198 153.084 176.963 152.3 176.963C151.531 176.963 150.87 177.229 150.327 177.767C149.778 178.3 149.45 179.084 149.332 180.109L145.171 179.402C145.458 177.977 145.899 176.84 146.478 175.989C147.062 175.138 147.877 174.467 148.917 173.98C149.963 173.493 151.131 173.247 152.428 173.247C154.642 173.247 156.42 173.954 157.758 175.369C158.86 176.527 159.413 177.829 159.413 179.289C159.413 181.355 158.286 183.005 156.026 184.235C157.374 184.522 158.455 185.173 159.26 186.177C160.064 187.182 160.474 188.397 160.474 189.821C160.474 191.887 159.721 193.65 158.209 195.105C156.697 196.561 154.821 197.288 152.571 197.288C150.439 197.288 148.676 196.673 147.272 195.449C145.883 194.234 145.074 192.63 144.848 190.646Z" fill="white"/>
<defs>
<linearGradient id="paint0_linear" x1="123" y1="3.00001" x2="117.703" y2="2.0823" gradientUnits="userSpaceOnUse">
<stop stop-color="#907BEC" stop-opacity="0.65"/>
<stop offset="0.74953" stop-color="#927DED" stop-opacity="0"/>
</linearGradient>
<linearGradient id="paint1_linear" x1="173.5" y1="30.5002" x2="164.794" y2="22.1609" gradientUnits="userSpaceOnUse">
<stop offset="0.364721" stop-color="#907BEC" stop-opacity="0.65"/>
<stop offset="1" stop-color="#927DED" stop-opacity="0"/>
</linearGradient>
<linearGradient id="paint2_linear" x1="198" y1="65" x2="196.171" y2="59.1824" gradientUnits="userSpaceOnUse">
<stop offset="0.0223758" stop-color="#907BEC" stop-opacity="0.65"/>
<stop offset="1" stop-color="#927DED" stop-opacity="0"/>
</linearGradient>
<linearGradient id="paint3_linear" x1="157" y1="89.5" x2="154.585" y2="101.377" gradientUnits="userSpaceOnUse">
<stop stop-color="#927DED" stop-opacity="0"/>
<stop offset="1" stop-color="#907BEC" stop-opacity="0.65"/>
</linearGradient>
<linearGradient id="paint4_linear" x1="139.5" y1="114.5" x2="134.744" y2="125.831" gradientUnits="userSpaceOnUse">
<stop stop-color="#927DED" stop-opacity="0"/>
<stop offset="1" stop-color="#907BEC" stop-opacity="0.65"/>
</linearGradient>
<linearGradient id="paint5_linear" x1="161.293" y1="190.191" x2="-109.29" y2="-155.867" gradientUnits="userSpaceOnUse">
<stop stop-color="#5CA5FF"/>
<stop offset="0.07712" stop-color="#6D84F3"/>
<stop offset="0.23281" stop-color="#8D47DD"/>
<stop offset="0.30693" stop-color="#9A2FD4"/>
<stop offset="0.60558" stop-color="#D54F59"/>
<stop offset="0.83212" stop-color="#FF6600"/>
</linearGradient>
<linearGradient id="paint6_linear" x1="146.796" y1="219.949" x2="-123.783" y2="-126.105" gradientUnits="userSpaceOnUse">
<stop stop-color="#5CA5FF"/>
<stop offset="0.07712" stop-color="#6D84F3"/>
<stop offset="0.23281" stop-color="#8D47DD"/>
<stop offset="0.30693" stop-color="#9A2FD4"/>
<stop offset="0.60558" stop-color="#D54F59"/>
<stop offset="0.83212" stop-color="#FF6600"/>
</linearGradient>
<linearGradient id="paint7_linear" x1="56" y1="107.5" x2="45.8671" y2="101.588" gradientUnits="userSpaceOnUse">
<stop stop-color="#927DED" stop-opacity="0"/>
<stop offset="1" stop-color="#907BEC" stop-opacity="0.65"/>
</linearGradient>
<linearGradient id="paint8_linear" x1="41.5" y1="86" x2="39.6611" y2="80.1124" gradientUnits="userSpaceOnUse">
<stop stop-color="#927DED" stop-opacity="0"/>
<stop offset="1" stop-color="#907BEC" stop-opacity="0.65"/>
</linearGradient>
<linearGradient id="paint9_linear" x1="38.5" y1="62.5" x2="38.0962" y2="49.7898" gradientUnits="userSpaceOnUse">
<stop stop-color="#927DED" stop-opacity="0"/>
<stop offset="1" stop-color="#907BEC" stop-opacity="0.65"/>
</linearGradient>
<linearGradient id="paint10_linear" x1="49.5" y1="39" x2="47.3047" y2="14.1405" gradientUnits="userSpaceOnUse">
<stop stop-color="#927DED" stop-opacity="0"/>
<stop offset="1" stop-color="#907BEC" stop-opacity="0.65"/>
</linearGradient>
<linearGradient id="paint11_linear" x1="80" y1="30.5" x2="76.3384" y2="0.17431" gradientUnits="userSpaceOnUse">
<stop stop-color="#927DED" stop-opacity="0"/>
<stop offset="1" stop-color="#907BEC" stop-opacity="0.65"/>
</linearGradient>
<linearGradient id="paint12_linear" x1="107.947" y1="26.0921" x2="94.9202" y2="26.0921" gradientUnits="userSpaceOnUse">
<stop stop-color="#FDBC4B"/>
<stop offset="0.848276" stop-color="#FFDB70"/>
</linearGradient>
<linearGradient id="paint13_linear" x1="35.9789" y1="64.9621" x2="29.4199" y2="64.9621" gradientUnits="userSpaceOnUse">
<stop stop-color="#FDBC4B"/>
<stop offset="0.848276" stop-color="#FFDB70"/>
</linearGradient>
<linearGradient id="paint14_linear" x1="179.704" y1="88.5397" x2="170.754" y2="88.5397" gradientUnits="userSpaceOnUse">
<stop stop-color="#FDBC4B"/>
<stop offset="0.848276" stop-color="#FFDB70"/>
</linearGradient>
<linearGradient id="paint15_linear" x1="148.208" y1="142.4" x2="136.98" y2="142.4" gradientUnits="userSpaceOnUse">
<stop stop-color="#FDBC4B"/>
<stop offset="0.848276" stop-color="#FFDB70"/>
</linearGradient>
<linearGradient id="paint16_linear" x1="50.58" y1="135.735" x2="38.8911" y2="135.735" gradientUnits="userSpaceOnUse">
<stop stop-color="#FDBC4B"/>
<stop offset="0.848276" stop-color="#FFDB70"/>
</linearGradient>
<linearGradient id="paint17_linear" x1="144.564" y1="49.7765" x2="137.772" y2="49.7765" gradientUnits="userSpaceOnUse">
<stop stop-color="#FDBC4B"/>
<stop offset="0.848276" stop-color="#FFDB70"/>
</linearGradient>
<linearGradient id="paint18_linear" x1="41.5364" y1="49.1575" x2="39.44" y2="49.2861" gradientUnits="userSpaceOnUse">
<stop stop-color="#F2F3FF"/>
<stop offset="1" stop-color="#E7E8FF"/>
</linearGradient>
<linearGradient id="paint19_linear" x1="15.0519" y1="107.525" x2="13.3049" y2="107.633" gradientUnits="userSpaceOnUse">
<stop stop-color="#F2F3FF"/>
<stop offset="1" stop-color="#E7E8FF"/>
</linearGradient>
<linearGradient id="paint20_linear" x1="87.0721" y1="119.101" x2="85.4204" y2="119.101" gradientUnits="userSpaceOnUse">
<stop stop-color="#FBC2EB"/>
<stop offset="1" stop-color="#A18CD1"/>
</linearGradient>
<linearGradient id="paint21_linear" x1="172.197" y1="143.481" x2="168.354" y2="143.717" gradientUnits="userSpaceOnUse">
<stop stop-color="#F2F3FF"/>
<stop offset="1" stop-color="#E7E8FF"/>
</linearGradient>
<linearGradient id="paint22_linear" x1="182.384" y1="107.622" x2="180.986" y2="107.708" gradientUnits="userSpaceOnUse">
<stop stop-color="#F2F3FF"/>
<stop offset="1" stop-color="#E7E8FF"/>
</linearGradient>
<linearGradient id="paint23_linear" x1="161.086" y1="79.9912" x2="159.688" y2="80.077" gradientUnits="userSpaceOnUse">
<stop stop-color="#F2F3FF"/>
<stop offset="1" stop-color="#E7E8FF"/>
</linearGradient>
<linearGradient id="paint24_linear" x1="161.075" y1="19.8809" x2="157.93" y2="20.0738" gradientUnits="userSpaceOnUse">
<stop stop-color="#F2F3FF"/>
<stop offset="1" stop-color="#E7E8FF"/>
</linearGradient>
<linearGradient id="paint25_linear" x1="129.855" y1="27.5964" x2="126.361" y2="27.8108" gradientUnits="userSpaceOnUse">
<stop stop-color="#F2F3FF"/>
<stop offset="1" stop-color="#E7E8FF"/>
</linearGradient>
<linearGradient id="paint26_linear" x1="68.4064" y1="38.4663" x2="66.3099" y2="38.595" gradientUnits="userSpaceOnUse">
<stop stop-color="#F2F3FF"/>
<stop offset="1" stop-color="#E7E8FF"/>
</linearGradient>
<linearGradient id="paint27_linear" x1="56.7883" y1="53.2878" x2="55.0414" y2="53.395" gradientUnits="userSpaceOnUse">
<stop stop-color="#F2F3FF"/>
<stop offset="1" stop-color="#E7E8FF"/>
</linearGradient>
<linearGradient id="paint28_linear" x1="180.482" y1="42.6734" x2="164.263" y2="42.6734" gradientUnits="userSpaceOnUse">
<stop stop-color="#FDBC4B"/>
<stop offset="0.848276" stop-color="#FFDB70"/>
</linearGradient>
<linearGradient id="paint29_linear" x1="34.6151" y1="40.446" x2="26.6667" y2="40.446" gradientUnits="userSpaceOnUse">
<stop stop-color="#FDBC4B"/>
<stop offset="0.848276" stop-color="#FFDB70"/>
</linearGradient>
<linearGradient id="paint30_linear" x1="33.6117" y1="105.269" x2="23.6761" y2="105.269" gradientUnits="userSpaceOnUse">
<stop stop-color="#FDBC4B"/>
<stop offset="0.848276" stop-color="#FFDB70"/>
</linearGradient>
<linearGradient id="paint31_linear" x1="102.601" y1="123.194" x2="95.2651" y2="123.194" gradientUnits="userSpaceOnUse">
<stop stop-color="#FDBC4B"/>
<stop offset="0.848276" stop-color="#FFDB70"/>
</linearGradient>
<linearGradient id="paint32_linear" x1="171.763" y1="118.774" x2="162.337" y2="118.774" gradientUnits="userSpaceOnUse">
<stop stop-color="#FDBC4B"/>
<stop offset="0.848276" stop-color="#FFDB70"/>
</linearGradient>
<linearGradient id="paint33_linear" x1="64.6952" y1="18.6972" x2="52.637" y2="18.6972" gradientUnits="userSpaceOnUse">
<stop stop-color="#FDBC4B"/>
<stop offset="0.848276" stop-color="#FFDB70"/>
</linearGradient>
<linearGradient id="paint34_linear" x1="186.183" y1="80.7874" x2="184.436" y2="80.8946" gradientUnits="userSpaceOnUse">
<stop stop-color="#F2F3FF"/>
<stop offset="1" stop-color="#E7E8FF"/>
</linearGradient>
<linearGradient id="paint35_linear" x1="158.377" y1="114.094" x2="155.582" y2="114.266" gradientUnits="userSpaceOnUse">
<stop stop-color="#F2F3FF"/>
<stop offset="1" stop-color="#E7E8FF"/>
</linearGradient>
<linearGradient id="paint36_linear" x1="130.406" y1="118.304" x2="127.61" y2="118.476" gradientUnits="userSpaceOnUse">
<stop stop-color="#F2F3FF"/>
<stop offset="1" stop-color="#E7E8FF"/>
</linearGradient>
<linearGradient id="paint37_linear" x1="146.484" y1="126.73" x2="143.688" y2="126.902" gradientUnits="userSpaceOnUse">
<stop stop-color="#F2F3FF"/>
<stop offset="1" stop-color="#E7E8FF"/>
</linearGradient>
<linearGradient id="paint38_linear" x1="63.2306" y1="113.148" x2="59.0378" y2="113.405" gradientUnits="userSpaceOnUse">
<stop stop-color="#F2F3FF"/>
<stop offset="1" stop-color="#E7E8FF"/>
</linearGradient>
<linearGradient id="paint39_linear" x1="27.2938" y1="73.7034" x2="25.5467" y2="73.8106" gradientUnits="userSpaceOnUse">
<stop stop-color="#F2F3FF"/>
<stop offset="1" stop-color="#E7E8FF"/>
</linearGradient>
<linearGradient id="paint40_linear" x1="8.3894" y1="56.3081" x2="5.59411" y2="56.4796" gradientUnits="userSpaceOnUse">
<stop stop-color="#F2F3FF"/>
<stop offset="1" stop-color="#E7E8FF"/>
</linearGradient>
<linearGradient id="paint41_linear" x1="24.5222" y1="22.1619" x2="21.3776" y2="22.3548" gradientUnits="userSpaceOnUse">
<stop stop-color="#F2F3FF"/>
<stop offset="1" stop-color="#E7E8FF"/>
</linearGradient>
<linearGradient id="paint42_linear" x1="57.229" y1="28.3494" x2="53.3855" y2="28.5852" gradientUnits="userSpaceOnUse">
<stop stop-color="#F2F3FF"/>
<stop offset="1" stop-color="#E7E8FF"/>
</linearGradient>
<linearGradient id="paint43_linear" x1="151.053" y1="27.4209" x2="148.608" y2="27.571" gradientUnits="userSpaceOnUse">
<stop stop-color="#F2F3FF"/>
<stop offset="1" stop-color="#E7E8FF"/>
</linearGradient>
<linearGradient id="paint44_linear" x1="121.175" y1="129.008" x2="116.456" y2="105.142" gradientUnits="userSpaceOnUse">
<stop stop-color="#191932"/>
<stop offset="1" stop-color="#313557"/>
</linearGradient>
<linearGradient id="paint45_linear" x1="43.3342" y1="153.516" x2="43.3342" y2="207" gradientUnits="userSpaceOnUse">
<stop stop-color="#9274F4"/>
<stop offset="1" stop-color="#5E50E0"/>
</linearGradient>
<linearGradient id="paint46_linear" x1="98.0029" y1="128.71" x2="98.0029" y2="207" gradientUnits="userSpaceOnUse">
<stop stop-color="#9274F4"/>
<stop offset="1" stop-color="#5E50E0"/>
</linearGradient>
<linearGradient id="paint47_linear" x1="152.665" y1="163.55" x2="152.665" y2="207" gradientUnits="userSpaceOnUse">
<stop stop-color="#9274F4"/>
<stop offset="1" stop-color="#5E50E0"/>
</linearGradient>
<linearGradient id="paint48_linear" x1="87.2141" y1="167.855" x2="125.337" y2="167.855" gradientUnits="userSpaceOnUse">
<stop stop-color="#7165E3" stop-opacity="0.2"/>
<stop offset="1" stop-color="#A465E3" stop-opacity="0.1"/>
</linearGradient>
<linearGradient id="paint49_linear" x1="131.967" y1="194.505" x2="82.5637" y2="146.134" gradientUnits="userSpaceOnUse">
<stop stop-color="#5E52D2"/>
<stop offset="1" stop-color="#B697F9"/>
</linearGradient>
<linearGradient id="paint50_linear" x1="142.365" y1="185.275" x2="180" y2="185.275" gradientUnits="userSpaceOnUse">
<stop stop-color="#7165E3" stop-opacity="0.2"/>
<stop offset="1" stop-color="#A465E3" stop-opacity="0.1"/>
</linearGradient>
<linearGradient id="paint51_linear" x1="186.545" y1="200.066" x2="162.862" y2="158.816" gradientUnits="userSpaceOnUse">
<stop stop-color="#5E52D2"/>
<stop offset="1" stop-color="#B697F9"/>
</linearGradient>
<linearGradient id="paint52_linear" x1="24.3348" y1="180.258" x2="70.6682" y2="180.258" gradientUnits="userSpaceOnUse">
<stop stop-color="#7165E3" stop-opacity="0.2"/>
<stop offset="1" stop-color="#A465E3" stop-opacity="0.1"/>
</linearGradient>
<linearGradient id="paint53_linear" x1="78.7262" y1="198.464" x2="49.5743" y2="147.684" gradientUnits="userSpaceOnUse">
<stop stop-color="#5E52D2"/>
<stop offset="1" stop-color="#B697F9"/>
</linearGradient>
</defs>
</svg>
