<svg width="16" height="16" viewBox="0 0 16 16" fill="none" xmlns="http://www.w3.org/2000/svg">
<path d="M8 16C12.4183 16 16 12.4183 16 8C16 3.58172 12.4183 0 8 0C3.58172 0 0 3.58172 0 8C0 12.4183 3.58172 16 8 16Z" fill="url(#paint0_linear)"/>
<path d="M8.00024 15.4668C12.124 15.4668 15.4669 12.1238 15.4669 8.00011C15.4669 3.87639 12.124 0.533447 8.00024 0.533447C3.87651 0.533447 0.533569 3.87639 0.533569 8.00011C0.533569 12.1238 3.87651 15.4668 8.00024 15.4668Z" fill="url(#paint1_linear)"/>
<g opacity="0.75">
<path d="M12.1486 12.1486C14.4396 9.8575 14.4396 6.14293 12.1486 3.85185C9.85749 1.56078 6.14292 1.56077 3.85185 3.85185C1.56078 6.14292 1.56078 9.85749 3.85185 12.1486C6.14293 14.4396 9.8575 14.4396 12.1486 12.1486Z" fill="white" fill-opacity="0.9"/>
<path d="M7.37608 11.9093V11.2963C6.69811 11.2708 6.02755 11.1199 5.55129 10.9234C5.38121 10.8533 5.29451 10.6734 5.34336 10.5045L5.50858 9.93357C5.56918 9.72411 5.81088 9.61576 6.02329 9.69969C6.49576 9.88638 7.0791 10.0341 7.70813 10.0341C8.36112 10.0341 8.84809 9.82541 8.84809 9.39768C8.84809 9.01173 8.47181 8.78225 7.56426 8.55277C6.26935 8.21895 5.33963 7.68689 5.33963 6.6124C5.33963 5.64219 6.09228 4.90154 7.39825 4.70337V4.09031C7.39825 3.89308 7.5679 3.73315 7.77716 3.73315H8.15927C8.36854 3.73315 8.53819 3.89308 8.53819 4.09031V4.64072C9.16553 4.66439 9.62218 4.76551 9.98458 4.88553C10.1703 4.94702 10.2717 5.13554 10.2202 5.31458L10.0683 5.84264C10.0097 6.04628 9.77878 6.15781 9.56942 6.08319C9.23576 5.96427 8.76402 5.84043 8.15084 5.84043C7.37608 5.84043 7.15478 6.14294 7.15478 6.41418C7.15478 6.748 7.61959 6.97748 8.62673 7.2696C10.0655 7.67645 10.6632 8.23975 10.6632 9.25166C10.6632 10.1801 9.93273 11.0147 8.51608 11.2233V11.9093C8.51608 12.1066 8.34642 12.2665 8.13715 12.2665H7.755C7.54573 12.2665 7.37608 12.1066 7.37608 11.9093Z" fill="url(#paint2_linear)"/>
</g>
<defs>
<linearGradient id="paint0_linear" x1="-2.94726" y1="20.7066" x2="7.78325" y2="8.25159" gradientUnits="userSpaceOnUse">
<stop offset="0.213542" stop-color="#D93C65"/>
<stop offset="1" stop-color="#FDF53F"/>
</linearGradient>
<linearGradient id="paint1_linear" x1="13.6448" y1="-0.527276" x2="-16.9888" y2="45.7515" gradientUnits="userSpaceOnUse">
<stop stop-color="#FDF53F"/>
<stop offset="1" stop-color="#D93C65"/>
</linearGradient>
<linearGradient id="paint2_linear" x1="12.2836" y1="1.15527" x2="-1.83655" y2="26.3053" gradientUnits="userSpaceOnUse">
<stop stop-color="#FDF53F"/>
<stop offset="1" stop-color="#D93C65"/>
</linearGradient>
</defs>
</svg>
