<svg width="72" height="45" viewBox="0 0 72 45" fill="none" xmlns="http://www.w3.org/2000/svg">
<path d="M20.1275 18.4467L9.35222 24.66L0.30835 0H13.3617L20.1275 18.4467Z" fill="url(#paint0_linear)"/>
<path d="M2.57617 0L10.6953 22.1388L11.6032 20.9749L3.91155 0H2.57617Z" fill="white"/>
<path d="M9.60181 0L17.7198 22.1388L18.6288 20.9749L10.9372 0H9.60181Z" fill="white"/>
<path d="M15.8726 18.4467L26.6478 24.66L35.6917 0H22.6383L15.8726 18.4467Z" fill="url(#paint1_linear)"/>
<path d="M33.4237 0L25.3046 22.1388L24.3967 20.9749L32.0884 0H33.4237Z" fill="white"/>
<path d="M26.3981 0L18.2801 22.1388L17.3711 20.9749L25.0627 0H26.3981Z" fill="white"/>
<path d="M31.7371 27.1794C31.7371 28.3697 30.5356 29.3855 30.242 30.4824C29.9382 31.6175 30.4625 33.0969 29.8865 34.0914C29.3026 35.0994 27.7546 35.3818 26.9367 36.2008C26.1189 37.0187 25.8354 38.5667 24.8274 39.1505C23.8328 39.7254 22.3546 39.2023 21.2195 39.506C20.1215 39.7985 19.1056 41 17.9165 41C16.7262 41 15.7104 39.7985 14.6135 39.5049C13.4783 39.2012 11.999 39.7254 11.0045 39.1494C9.99648 38.5655 9.7141 37.0175 8.8951 36.1997C8.07723 35.3818 6.52923 35.0983 5.94535 34.0903C5.37048 33.0958 5.8936 31.6175 5.58985 30.4824C5.29623 29.3855 4.09473 28.3685 4.09473 27.1794C4.09473 25.9892 5.29623 24.9733 5.58985 23.8764C5.8936 22.7413 5.36935 21.2619 5.94535 20.2674C6.52923 19.2594 8.07723 18.977 8.8951 18.158C9.71298 17.3402 9.99648 15.7922 11.0045 15.2083C11.999 14.6334 13.4772 15.1565 14.6124 14.8528C15.7092 14.5592 16.7262 13.3577 17.9153 13.3577C19.1056 13.3577 20.1215 14.5592 21.2183 14.8528C22.3535 15.1565 23.8328 14.6323 24.8274 15.2083C25.8354 15.7922 26.1177 17.3402 26.9367 18.158C27.7546 18.9759 29.3026 19.2594 29.8865 20.2674C30.4613 21.2619 29.9382 22.7402 30.242 23.8753C30.5356 24.9733 31.7371 25.9892 31.7371 27.1794Z" fill="#FDBC4B"/>
<path d="M12.8788 25.5887H10.2013C9.51733 25.5887 8.95708 25.0284 8.95708 24.3444L8.96607 24.2589V24.2398C8.95707 23.5187 9.54545 22.9292 10.2666 22.9292H16.3573C17.164 22.9292 17.8761 22.3307 17.9245 21.5241C17.9627 20.6792 17.2888 19.9671 16.4428 19.9671H9.9932C9.28108 19.9671 8.74895 19.3686 8.75907 18.6564C8.75907 18.6474 8.75907 18.6474 8.75907 18.6373C8.75907 18.6283 8.75907 18.6283 8.75907 18.6182C8.75682 18.4753 8.7917 18.3414 8.83107 18.2109C7.99857 18.9849 6.51582 19.2808 5.94657 20.2652C5.3717 21.2597 5.89482 22.7379 5.59107 23.8742C5.29745 24.9722 4.09595 25.9881 4.09595 27.1772C4.09595 28.3674 5.29745 29.3833 5.59107 30.4802C5.89482 31.6153 5.37057 33.0947 5.94657 34.0881C6.53045 35.0961 8.07845 35.3784 8.89633 36.1974C9.7142 37.0153 9.9977 38.5644 11.0057 39.1472C12.0002 39.7221 13.4785 39.1989 14.6147 39.5027C14.9668 39.5972 15.3111 39.7873 15.6553 39.9988H18.1562C18.9538 39.9988 19.666 39.4003 19.7132 38.6027C19.7515 37.7477 19.0765 37.0457 18.2316 37.0457L11.0912 37.0434C10.2486 37.0434 9.5702 36.3381 9.6152 35.4864C9.65683 34.6877 10.3746 34.0881 11.1745 34.0881H14.4347C15.2312 34.0656 15.8736 33.4131 15.8736 32.6109C15.8736 31.7942 15.2087 31.1293 14.392 31.1293H9.70183C9.01783 31.1293 8.45757 30.5691 8.4677 29.8862V29.7816C8.35632 28.2077 10.2115 28.5373 12.7933 28.5373C13.6 28.5373 14.3121 27.9388 14.3605 27.1412C14.3976 26.2907 13.7237 25.5887 12.8788 25.5887Z" fill="#F8B546"/>
<path d="M9.39136 17.4908C9.57023 17.3851 9.76598 17.3086 9.99323 17.3086H16.7444C17.542 17.3086 18.2541 16.7101 18.3014 15.9125C18.3396 15.0575 17.6657 14.3555 16.8197 14.3555H15.6531C15.3089 14.567 14.9646 14.7582 14.6125 14.8516C13.4774 15.1553 11.998 14.6311 11.0046 15.2071C10.2295 15.656 9.88186 16.6718 9.39136 17.4908Z" fill="#F8B546"/>
<path d="M17.9522 15.8C11.6927 15.8 6.59985 20.8918 6.59985 27.1524C6.59985 33.4119 11.6927 38.5048 17.9522 38.5048C24.2117 38.5048 29.3046 33.4131 29.3046 27.1524C29.3035 20.8918 24.2106 15.8 17.9522 15.8ZM17.9522 36.7239C12.6749 36.7239 8.38073 32.4309 8.38073 27.1524C8.38073 21.8739 12.6749 17.5809 17.9522 17.5809C23.2296 17.5809 27.5237 21.8739 27.5237 27.1524C27.5237 32.4309 23.2296 36.7239 17.9522 36.7239Z" fill="#FFCC5B"/>
<path d="M13.1018 32.8699C13.1873 32.1825 13.3572 32.745 13.3448 31.7449C13.3392 31.5469 13.3268 31.3489 13.2627 31.1284C13.2436 31.1216 13.2245 31.1149 13.2065 31.107C13.0535 31.2476 12.9623 31.413 12.8903 31.5885C12.6462 32.2264 12.8622 32.2252 12.8971 32.8102C12.8993 32.8372 12.8926 32.8631 12.8937 32.889C12.5 32.3681 12.1625 31.8157 11.8846 31.2409C11.9318 30.5051 12.5675 30.5107 12.4741 29.3767C12.4572 29.3655 12.4403 29.3554 12.4235 29.3441C12.248 29.4364 12.1276 29.5669 12.023 29.7109C11.6292 30.2767 11.8925 30.3217 11.7372 30.9202C11.4841 30.3454 11.2861 29.7514 11.1466 29.1439C11.3165 28.4464 11.9712 28.5994 12.0871 27.4991C12.0725 27.4845 12.059 27.471 12.0443 27.4564C11.861 27.5002 11.7215 27.5925 11.5943 27.6994C11.0622 28.1696 11.3693 28.2776 11.0678 28.7749C10.9531 28.1741 10.8935 27.5644 10.8901 26.9524C11.1792 26.2762 11.816 26.5609 12.1152 25.5664C12.1051 25.5495 12.0938 25.5326 12.0837 25.5146C11.9037 25.5101 11.7563 25.5641 11.618 25.6339C11.0172 25.959 11.3255 26.1345 10.8968 26.5417C10.9171 25.9444 10.9913 25.3481 11.1185 24.7597C11.5718 24.0701 12.0871 24.5876 12.5708 23.6539C12.5641 23.6347 12.5573 23.6156 12.5517 23.5954C12.2727 23.5144 11.9037 23.6134 11.7091 23.8035C11.5943 23.9194 11.5055 24.0982 11.3885 24.2029C11.3378 24.2501 11.2827 24.2827 11.2253 24.3131C11.3806 23.7281 11.5898 23.1532 11.8531 22.5975C11.8587 22.6042 11.8632 22.611 11.8688 22.6177C12.5585 21.9112 12.3087 22.6492 13.1018 22.1621C13.2256 22.0822 13.3471 21.9911 13.4675 21.8381C13.4663 21.8167 13.4641 21.7965 13.463 21.7751C13.3235 21.6896 13.1885 21.6727 13.0523 21.6716C12.392 21.6907 12.608 22.0609 12.0837 22.17C12.086 22.1565 12.086 22.1452 12.0882 22.1317C12.5157 21.3386 13.0591 20.5894 13.7183 19.9065C13.0928 20.5106 12.5607 21.1766 12.1231 21.8876C12.1355 21.6941 12.1602 21.6086 12.1366 21.3735C12.0916 21.0934 12.0151 20.8211 11.807 20.5939C11.7845 20.6017 11.762 20.6107 11.7395 20.6186C11.3907 21.2306 11.3367 21.918 11.7755 22.4962C11.5246 22.9744 11.3131 23.4694 11.1432 23.9756C11.0611 23.5031 10.8845 23.0329 10.5076 22.7426C10.4873 22.755 10.4682 22.7674 10.448 22.7809C10.2635 23.4739 10.3895 24.2186 10.9306 24.69C10.8012 25.1917 10.7101 25.7025 10.6583 26.2177C10.5886 26.067 10.5188 25.9162 10.4345 25.7812C10.2443 25.5112 10.034 25.2592 9.72458 25.0972C9.7077 25.1141 9.69195 25.131 9.67508 25.1467C9.66383 25.8937 9.97545 26.6126 10.6077 26.9929C10.5942 27.5014 10.619 28.011 10.6808 28.5172C10.3658 28.1156 9.97208 27.7264 9.47145 27.5655C9.45908 27.5857 9.4467 27.6049 9.43433 27.6251C9.60645 28.3789 10.0756 29.0314 10.8102 29.3126C10.9103 29.8076 11.0476 30.297 11.2208 30.7774C10.5976 30.2801 10.1318 30.1046 9.76058 30.0551C9.7527 30.0776 9.74483 30.1001 9.73695 30.1226C9.9777 30.6075 10.2916 30.9304 10.6212 31.179C10.8608 31.3444 11.1736 31.4895 11.5392 31.5581C11.7507 32.0205 11.9993 32.4705 12.2828 32.9047C11.5088 32.5346 10.9857 32.4514 10.6043 32.4682C10.6021 32.4919 10.5998 32.5166 10.5965 32.5402C11.0453 33.0769 11.6573 33.4774 12.4043 33.6034C12.5382 33.6326 12.6698 33.6281 12.8026 33.6292C13.0231 33.9105 13.2605 34.1827 13.5147 34.446C13.6486 34.3121 13.7825 34.1782 13.9175 34.0432C13.625 33.7609 13.3538 33.465 13.1041 33.1567C13.0917 33.06 13.0883 32.9621 13.1018 32.8699Z" fill="#EC9922"/>
<path d="M24.6118 30.7819C24.7861 30.3015 24.9223 29.8121 25.0224 29.3171C25.7581 29.0347 26.2273 28.3811 26.3983 27.6296C26.3859 27.6094 26.3735 27.5902 26.3611 27.57C25.8594 27.7309 25.4656 28.1201 25.1518 28.5217C25.2136 28.0144 25.2384 27.5047 25.2249 26.9974C25.8571 26.6171 26.1699 25.8982 26.1575 25.1512C26.1406 25.1344 26.1249 25.1175 26.108 25.1017C25.6648 25.3335 25.3846 25.7677 25.1754 26.2222C25.1236 25.707 25.0325 25.1962 24.9031 24.6945C25.442 24.2344 25.5703 23.4784 25.3858 22.7854C25.3655 22.773 25.3464 22.7595 25.3261 22.7471C24.9493 23.0374 24.7726 23.5076 24.6905 23.9801C24.5195 23.4739 24.3091 22.9789 24.0583 22.5007C24.0706 22.485 24.0819 22.4692 24.0943 22.4535C24.1786 22.341 24.2473 22.2206 24.2844 22.0834C24.3305 21.9506 24.3654 21.8122 24.3744 21.6615C24.3733 21.3521 24.3159 21.0124 24.0943 20.6242C24.0718 20.6164 24.0493 20.6074 24.0268 20.5995C23.6848 20.973 23.6814 21.4174 23.7106 21.8932C23.2719 21.1834 22.7398 20.5162 22.1154 19.9121C22.7758 20.595 23.318 21.3454 23.7455 22.1374C23.7478 22.1497 23.7489 22.1621 23.75 22.1756C23.4575 22.1149 23.417 21.9439 23.1808 21.7864C22.9625 21.6446 22.6048 21.6367 22.3719 21.7796C22.3708 21.801 22.3685 21.8212 22.3674 21.8426C22.5283 22.0485 22.8624 22.2971 23.1144 22.3185C23.5644 22.3511 23.498 22.143 23.9649 22.6211C23.9705 22.6144 23.975 22.6076 23.9806 22.6009C24.2439 23.1577 24.4531 23.7326 24.6084 24.3165C24.1134 24.0589 24.3958 23.7787 23.7343 23.601C23.5936 23.5672 23.4474 23.5504 23.2831 23.5987C23.2764 23.6179 23.2708 23.6381 23.264 23.6572C23.804 24.7012 24.1831 23.9599 24.7164 24.7631C24.8435 25.3515 24.9178 25.9489 24.938 26.5451C24.5184 26.1469 24.83 25.9691 24.2169 25.6372C24.0785 25.5675 23.9311 25.5135 23.7511 25.518C23.741 25.5349 23.7298 25.5517 23.7196 25.5697C23.8198 25.905 24.0898 26.256 24.2833 26.3764C24.6511 26.6014 24.731 26.4562 24.9448 26.9557C24.9414 27.5677 24.8818 28.1775 24.767 28.7782C24.4655 28.281 24.7726 28.173 24.2405 27.7027C24.1134 27.5947 23.9739 27.5036 23.7905 27.4597C23.7759 27.4744 23.7624 27.4879 23.7489 27.5025C23.8659 28.6084 24.5206 28.4542 24.6894 29.1472C24.5499 29.7536 24.3519 30.3487 24.0988 30.9236C23.9469 30.3364 24.209 30.2824 23.813 29.7142C23.7073 29.5702 23.5869 29.4409 23.4125 29.3475C23.3956 29.3587 23.3788 29.3689 23.3619 29.3801C23.3315 29.7491 23.4485 30.2452 23.5801 30.4714C23.7894 30.8212 23.921 30.7875 23.9503 31.2442C23.6713 31.8191 23.3349 32.3715 22.9411 32.8924C22.9445 32.4806 23.0255 32.5256 23.0491 32.1645C23.0694 31.8157 22.8973 31.3556 22.6284 31.1104C22.6093 31.1171 22.5901 31.1239 22.5721 31.1317C22.2526 32.2376 22.8118 32.5459 22.7296 33.1635C22.4788 33.4717 22.2076 33.7676 21.9163 34.05C22.0501 34.1839 22.184 34.3177 22.319 34.4527C22.5733 34.1895 22.8106 33.9172 23.0311 33.636C23.9311 33.6292 24.686 33.2062 25.2361 32.547C25.2339 32.5234 25.2316 32.4986 25.2283 32.475C24.8469 32.4581 24.3238 32.5425 23.5498 32.9115C23.8344 32.4772 24.0819 32.0261 24.2934 31.5649C25.0966 31.4141 25.7311 30.8651 26.0956 30.1294C26.0878 30.1069 26.0799 30.0844 26.072 30.0619C25.7008 30.1091 25.235 30.2846 24.6118 30.7819Z" fill="#EC9922"/>
<path d="M19.5662 32.0001H17.3876V25.0649L15.2478 25.6901V24.0401L19.3664 22.6157H19.5662V32.0001Z" fill="#DC880E"/>
<g style="mix-blend-mode:screen" opacity="0.35">
<path d="M31.7371 27.1794C31.7371 28.3697 30.5356 29.3855 30.242 30.4824C29.9382 31.6175 30.4625 33.0969 29.8865 34.0914C29.3026 35.0994 27.7546 35.3818 26.9367 36.2008C26.1189 37.0187 25.8354 38.5667 24.8274 39.1505C23.8328 39.7254 22.3546 39.2023 21.2195 39.506C20.1215 39.7985 19.1056 41 17.9165 41C16.7262 41 15.7104 39.7985 14.6135 39.5049C13.4783 39.2012 11.999 39.7254 11.0045 39.1494C9.99648 38.5655 9.7141 37.0175 8.8951 36.1997C8.07723 35.3818 6.52923 35.0983 5.94535 34.0903C5.37048 33.0958 5.8936 31.6175 5.58985 30.4824C5.29623 29.3855 4.09473 28.3685 4.09473 27.1794C4.09473 25.9892 5.29623 24.9733 5.58985 23.8764C5.8936 22.7413 5.36935 21.2619 5.94535 20.2674C6.52923 19.2594 8.07723 18.977 8.8951 18.158C9.71298 17.3402 9.99648 15.7922 11.0045 15.2083C11.999 14.6334 13.4772 15.1565 14.6124 14.8528C15.7092 14.5592 16.7262 13.3577 17.9153 13.3577C19.1056 13.3577 20.1215 14.5592 21.2183 14.8528C22.3535 15.1565 23.8328 14.6323 24.8274 15.2083C25.8354 15.7922 26.1177 17.3402 26.9367 18.158C27.7546 18.9759 29.3026 19.2594 29.8865 20.2674C30.4613 21.2619 29.9382 22.7402 30.242 23.8753C30.5356 24.9733 31.7371 25.9892 31.7371 27.1794Z" fill="#FDBC4B"/>
<path d="M12.8788 25.5887H10.2013C9.51733 25.5887 8.95708 25.0284 8.95708 24.3444L8.96607 24.2589V24.2398C8.95707 23.5187 9.54545 22.9292 10.2666 22.9292H16.3573C17.164 22.9292 17.8761 22.3307 17.9245 21.5241C17.9627 20.6792 17.2888 19.9671 16.4428 19.9671H9.9932C9.28108 19.9671 8.74895 19.3686 8.75907 18.6564C8.75907 18.6474 8.75907 18.6474 8.75907 18.6373C8.75907 18.6283 8.75907 18.6283 8.75907 18.6182C8.75682 18.4753 8.7917 18.3414 8.83107 18.2109C7.99857 18.9849 6.51582 19.2808 5.94657 20.2652C5.3717 21.2597 5.89482 22.7379 5.59107 23.8742C5.29745 24.9722 4.09595 25.9881 4.09595 27.1772C4.09595 28.3674 5.29745 29.3833 5.59107 30.4802C5.89482 31.6153 5.37057 33.0947 5.94657 34.0881C6.53045 35.0961 8.07845 35.3784 8.89633 36.1974C9.7142 37.0153 9.9977 38.5644 11.0057 39.1472C12.0002 39.7221 13.4785 39.1989 14.6147 39.5027C14.9668 39.5972 15.3111 39.7873 15.6553 39.9988H18.1562C18.9538 39.9988 19.666 39.4003 19.7132 38.6027C19.7515 37.7477 19.0765 37.0457 18.2316 37.0457L11.0912 37.0434C10.2486 37.0434 9.5702 36.3381 9.6152 35.4864C9.65683 34.6877 10.3746 34.0881 11.1745 34.0881H14.4347C15.2312 34.0656 15.8736 33.4131 15.8736 32.6109C15.8736 31.7942 15.2087 31.1293 14.392 31.1293H9.70183C9.01783 31.1293 8.45757 30.5691 8.4677 29.8862V29.7816C8.35632 28.2077 10.2115 28.5373 12.7933 28.5373C13.6 28.5373 14.3121 27.9388 14.3605 27.1412C14.3976 26.2907 13.7237 25.5887 12.8788 25.5887Z" fill="#F8B546"/>
<path d="M9.39136 17.4908C9.57023 17.3851 9.76598 17.3086 9.99323 17.3086H16.7444C17.542 17.3086 18.2541 16.7101 18.3014 15.9125C18.3396 15.0575 17.6657 14.3555 16.8197 14.3555H15.6531C15.3089 14.567 14.9646 14.7582 14.6125 14.8516C13.4774 15.1553 11.998 14.6311 11.0046 15.2071C10.2295 15.656 9.88186 16.6718 9.39136 17.4908Z" fill="#F8B546"/>
<path d="M17.9522 15.8C11.6927 15.8 6.59985 20.8918 6.59985 27.1524C6.59985 33.4119 11.6927 38.5048 17.9522 38.5048C24.2117 38.5048 29.3046 33.4131 29.3046 27.1524C29.3035 20.8918 24.2106 15.8 17.9522 15.8ZM17.9522 36.7239C12.6749 36.7239 8.38073 32.4309 8.38073 27.1524C8.38073 21.8739 12.6749 17.5809 17.9522 17.5809C23.2296 17.5809 27.5237 21.8739 27.5237 27.1524C27.5237 32.4309 23.2296 36.7239 17.9522 36.7239Z" fill="#FFCC5B"/>
<path d="M13.1018 32.8699C13.1873 32.1825 13.3572 32.745 13.3448 31.7449C13.3392 31.5469 13.3268 31.3489 13.2627 31.1284C13.2436 31.1216 13.2245 31.1149 13.2065 31.107C13.0535 31.2476 12.9623 31.413 12.8903 31.5885C12.6462 32.2264 12.8622 32.2252 12.8971 32.8102C12.8993 32.8372 12.8926 32.8631 12.8937 32.889C12.5 32.3681 12.1625 31.8157 11.8846 31.2409C11.9318 30.5051 12.5675 30.5107 12.4741 29.3767C12.4572 29.3655 12.4403 29.3554 12.4235 29.3441C12.248 29.4364 12.1276 29.5669 12.023 29.7109C11.6292 30.2767 11.8925 30.3217 11.7372 30.9202C11.4841 30.3454 11.2861 29.7514 11.1466 29.1439C11.3165 28.4464 11.9712 28.5994 12.0871 27.4991C12.0725 27.4845 12.059 27.471 12.0443 27.4564C11.861 27.5002 11.7215 27.5925 11.5943 27.6994C11.0622 28.1696 11.3693 28.2776 11.0678 28.7749C10.9531 28.1741 10.8935 27.5644 10.8901 26.9524C11.1792 26.2762 11.816 26.5609 12.1152 25.5664C12.1051 25.5495 12.0938 25.5326 12.0837 25.5146C11.9037 25.5101 11.7563 25.5641 11.618 25.6339C11.0172 25.959 11.3255 26.1345 10.8968 26.5417C10.9171 25.9444 10.9913 25.3481 11.1185 24.7597C11.5718 24.0701 12.0871 24.5876 12.5708 23.6539C12.5641 23.6347 12.5573 23.6156 12.5517 23.5954C12.2727 23.5144 11.9037 23.6134 11.7091 23.8035C11.5943 23.9194 11.5055 24.0982 11.3885 24.2029C11.3378 24.2501 11.2827 24.2827 11.2253 24.3131C11.3806 23.7281 11.5898 23.1532 11.8531 22.5975C11.8587 22.6042 11.8632 22.611 11.8688 22.6177C12.5585 21.9112 12.3087 22.6492 13.1018 22.1621C13.2256 22.0822 13.3471 21.9911 13.4675 21.8381C13.4663 21.8167 13.4641 21.7965 13.463 21.7751C13.3235 21.6896 13.1885 21.6727 13.0523 21.6716C12.392 21.6907 12.608 22.0609 12.0837 22.17C12.086 22.1565 12.086 22.1452 12.0882 22.1317C12.5157 21.3386 13.0591 20.5894 13.7183 19.9065C13.0928 20.5106 12.5607 21.1766 12.1231 21.8876C12.1355 21.6941 12.1602 21.6086 12.1366 21.3735C12.0916 21.0934 12.0151 20.8211 11.807 20.5939C11.7845 20.6017 11.762 20.6107 11.7395 20.6186C11.3907 21.2306 11.3367 21.918 11.7755 22.4962C11.5246 22.9744 11.3131 23.4694 11.1432 23.9756C11.0611 23.5031 10.8845 23.0329 10.5076 22.7426C10.4873 22.755 10.4682 22.7674 10.448 22.7809C10.2635 23.4739 10.3895 24.2186 10.9306 24.69C10.8012 25.1917 10.7101 25.7025 10.6583 26.2177C10.5886 26.067 10.5188 25.9162 10.4345 25.7812C10.2443 25.5112 10.034 25.2592 9.72458 25.0972C9.7077 25.1141 9.69195 25.131 9.67508 25.1467C9.66383 25.8937 9.97545 26.6126 10.6077 26.9929C10.5942 27.5014 10.619 28.011 10.6808 28.5172C10.3658 28.1156 9.97208 27.7264 9.47145 27.5655C9.45908 27.5857 9.4467 27.6049 9.43433 27.6251C9.60645 28.3789 10.0756 29.0314 10.8102 29.3126C10.9103 29.8076 11.0476 30.297 11.2208 30.7774C10.5976 30.2801 10.1318 30.1046 9.76058 30.0551C9.7527 30.0776 9.74483 30.1001 9.73695 30.1226C9.9777 30.6075 10.2916 30.9304 10.6212 31.179C10.8608 31.3444 11.1736 31.4895 11.5392 31.5581C11.7507 32.0205 11.9993 32.4705 12.2828 32.9047C11.5088 32.5346 10.9857 32.4514 10.6043 32.4682C10.6021 32.4919 10.5998 32.5166 10.5965 32.5402C11.0453 33.0769 11.6573 33.4774 12.4043 33.6034C12.5382 33.6326 12.6698 33.6281 12.8026 33.6292C13.0231 33.9105 13.2605 34.1827 13.5147 34.446C13.6486 34.3121 13.7825 34.1782 13.9175 34.0432C13.625 33.7609 13.3538 33.465 13.1041 33.1567C13.0917 33.06 13.0883 32.9621 13.1018 32.8699Z" fill="#EC9922"/>
<path d="M24.6118 30.7819C24.7861 30.3015 24.9223 29.8121 25.0224 29.3171C25.7581 29.0347 26.2273 28.3811 26.3983 27.6296C26.3859 27.6094 26.3735 27.5902 26.3611 27.57C25.8594 27.7309 25.4656 28.1201 25.1518 28.5217C25.2136 28.0144 25.2384 27.5047 25.2249 26.9974C25.8571 26.6171 26.1699 25.8982 26.1575 25.1512C26.1406 25.1344 26.1249 25.1175 26.108 25.1017C25.6648 25.3335 25.3846 25.7677 25.1754 26.2222C25.1236 25.707 25.0325 25.1962 24.9031 24.6945C25.442 24.2344 25.5703 23.4784 25.3858 22.7854C25.3655 22.773 25.3464 22.7595 25.3261 22.7471C24.9493 23.0374 24.7726 23.5076 24.6905 23.9801C24.5195 23.4739 24.3091 22.9789 24.0583 22.5007C24.0706 22.485 24.0819 22.4692 24.0943 22.4535C24.1786 22.341 24.2473 22.2206 24.2844 22.0834C24.3305 21.9506 24.3654 21.8122 24.3744 21.6615C24.3733 21.3521 24.3159 21.0124 24.0943 20.6242C24.0718 20.6164 24.0493 20.6074 24.0268 20.5995C23.6848 20.973 23.6814 21.4174 23.7106 21.8932C23.2719 21.1834 22.7398 20.5162 22.1154 19.9121C22.7758 20.595 23.318 21.3454 23.7455 22.1374C23.7478 22.1497 23.7489 22.1621 23.75 22.1756C23.4575 22.1149 23.417 21.9439 23.1808 21.7864C22.9625 21.6446 22.6048 21.6367 22.3719 21.7796C22.3708 21.801 22.3685 21.8212 22.3674 21.8426C22.5283 22.0485 22.8624 22.2971 23.1144 22.3185C23.5644 22.3511 23.498 22.143 23.9649 22.6211C23.9705 22.6144 23.975 22.6076 23.9806 22.6009C24.2439 23.1577 24.4531 23.7326 24.6084 24.3165C24.1134 24.0589 24.3958 23.7787 23.7343 23.601C23.5936 23.5672 23.4474 23.5504 23.2831 23.5987C23.2764 23.6179 23.2708 23.6381 23.264 23.6572C23.804 24.7012 24.1831 23.9599 24.7164 24.7631C24.8435 25.3515 24.9178 25.9489 24.938 26.5451C24.5184 26.1469 24.83 25.9691 24.2169 25.6372C24.0785 25.5675 23.9311 25.5135 23.7511 25.518C23.741 25.5349 23.7298 25.5517 23.7196 25.5697C23.8198 25.905 24.0898 26.256 24.2833 26.3764C24.6511 26.6014 24.731 26.4562 24.9448 26.9557C24.9414 27.5677 24.8818 28.1775 24.767 28.7782C24.4655 28.281 24.7726 28.173 24.2405 27.7027C24.1134 27.5947 23.9739 27.5036 23.7905 27.4597C23.7759 27.4744 23.7624 27.4879 23.7489 27.5025C23.8659 28.6084 24.5206 28.4542 24.6894 29.1472C24.5499 29.7536 24.3519 30.3487 24.0988 30.9236C23.9469 30.3364 24.209 30.2824 23.813 29.7142C23.7073 29.5702 23.5869 29.4409 23.4125 29.3475C23.3956 29.3587 23.3788 29.3689 23.3619 29.3801C23.3315 29.7491 23.4485 30.2452 23.5801 30.4714C23.7894 30.8212 23.921 30.7875 23.9503 31.2442C23.6713 31.8191 23.3349 32.3715 22.9411 32.8924C22.9445 32.4806 23.0255 32.5256 23.0491 32.1645C23.0694 31.8157 22.8973 31.3556 22.6284 31.1104C22.6093 31.1171 22.5901 31.1239 22.5721 31.1317C22.2526 32.2376 22.8118 32.5459 22.7296 33.1635C22.4788 33.4717 22.2076 33.7676 21.9163 34.05C22.0501 34.1839 22.184 34.3177 22.319 34.4527C22.5733 34.1895 22.8106 33.9172 23.0311 33.636C23.9311 33.6292 24.686 33.2062 25.2361 32.547C25.2339 32.5234 25.2316 32.4986 25.2283 32.475C24.8469 32.4581 24.3238 32.5425 23.5498 32.9115C23.8344 32.4772 24.0819 32.0261 24.2934 31.5649C25.0966 31.4141 25.7311 30.8651 26.0956 30.1294C26.0878 30.1069 26.0799 30.0844 26.072 30.0619C25.7008 30.1091 25.235 30.2846 24.6118 30.7819Z" fill="#EC9922"/>
<path d="M19.5662 32.0001H17.3876V25.0649L15.2478 25.6901V24.0401L19.3664 22.6157H19.5662V32.0001Z" fill="#DD9122"/>
</g>
<defs>
<linearGradient id="paint0_linear" x1="23.5743" y1="20.7243" x2="9.64519" y2="-1.78562" gradientUnits="userSpaceOnUse">
<stop stop-color="#5E52D2"/>
<stop offset="1" stop-color="#B697F9"/>
</linearGradient>
<linearGradient id="paint1_linear" x1="39.1385" y1="20.7243" x2="25.2094" y2="-1.78562" gradientUnits="userSpaceOnUse">
<stop stop-color="#5E52D2"/>
<stop offset="1" stop-color="#B697F9"/>
</linearGradient>
</defs>
</svg>
