<svg width="72" height="45" viewBox="0 0 72 45" fill="none" xmlns="http://www.w3.org/2000/svg">
<path d="M20.1275 18.4496L9.35222 24.6639L0.30835 0H13.3617L20.1275 18.4496Z" fill="#7165E3"/>
<path d="M20.1275 18.4496L9.35222 24.6639L0.30835 0H13.3617L20.1275 18.4496Z" fill="url(#paint0_linear)"/>
<path d="M20.1275 18.4496L9.35222 24.6639L0.30835 0H13.3617L20.1275 18.4496Z" fill="url(#paint1_linear)" fill-opacity="0.5"/>
<path d="M2.57617 0L10.6953 22.1423L11.6032 20.9782L3.91155 0H2.57617Z" fill="white"/>
<path d="M9.60181 0L17.7198 22.1423L18.6288 20.9782L10.9372 0H9.60181Z" fill="white"/>
<path d="M15.8726 18.4496L26.6478 24.6639L35.6917 0H22.6383L15.8726 18.4496Z" fill="#7165E3"/>
<path d="M15.8726 18.4496L26.6478 24.6639L35.6917 0H22.6383L15.8726 18.4496Z" fill="url(#paint2_linear)"/>
<path d="M15.8726 18.4496L26.6478 24.6639L35.6917 0H22.6383L15.8726 18.4496Z" fill="url(#paint3_linear)" fill-opacity="0.5"/>
<path d="M33.4237 0L25.3046 22.1423L24.3967 20.9782L32.0884 0H33.4237Z" fill="white"/>
<path d="M26.3981 0L18.2801 22.1423L17.3711 20.9782L25.0627 0H26.3981Z" fill="white"/>
<path d="M31.7373 27.1794C31.7373 28.3697 30.5358 29.3855 30.2422 30.4824C29.9385 31.6175 30.4627 33.0969 29.8867 34.0914C29.3028 35.0994 27.7548 35.3818 26.937 36.2008C26.1191 37.0187 25.8356 38.5667 24.8276 39.1505C23.8331 39.7254 22.3548 39.2023 21.2197 39.506C20.1217 39.7985 19.1058 41 17.9167 41C16.7265 41 15.7106 39.7985 14.6137 39.5049C13.4786 39.2012 11.9992 39.7254 11.0047 39.1494C9.99672 38.5655 9.71435 37.0175 8.89535 36.1997C8.07747 35.3818 6.52947 35.0983 5.9456 34.0903C5.37072 33.0958 5.89385 31.6175 5.5901 30.4824C5.29647 29.3855 4.09497 28.3685 4.09497 27.1794C4.09497 25.9892 5.29647 24.9733 5.5901 23.8764C5.89385 22.7413 5.3696 21.2619 5.9456 20.2674C6.52947 19.2594 8.07747 18.977 8.89535 18.158C9.71322 17.3402 9.99672 15.7922 11.0047 15.2083C11.9992 14.6334 13.4775 15.1565 14.6126 14.8528C15.7095 14.5592 16.7265 13.3577 17.9156 13.3577C19.1058 13.3577 20.1217 14.5592 21.2186 14.8528C22.3537 15.1565 23.8331 14.6323 24.8276 15.2083C25.8356 15.7922 26.118 17.3402 26.937 18.158C27.7548 18.9759 29.3028 19.2594 29.8867 20.2674C30.4616 21.2619 29.9385 22.7402 30.2422 23.8753C30.5358 24.9733 31.7373 25.9892 31.7373 27.1794Z" fill="#E5E5E5"/>
<path d="M12.8791 25.5887H10.2016C9.51757 25.5887 8.95732 25.0284 8.95732 24.3444L8.96632 24.2589V24.2398C8.95732 23.5187 9.5457 22.9292 10.2668 22.9292H16.3576C17.1642 22.9292 17.8763 22.3307 17.9247 21.5241C17.963 20.6792 17.2891 19.9671 16.4431 19.9671H9.99345C9.28132 19.9671 8.74919 19.3686 8.75932 18.6564C8.75932 18.6474 8.75932 18.6474 8.75932 18.6373C8.75932 18.6283 8.75932 18.6283 8.75932 18.6182C8.75707 18.4753 8.79194 18.3414 8.83132 18.2109C7.99882 18.9849 6.51607 19.2808 5.94682 20.2652C5.37194 21.2597 5.89507 22.7379 5.59132 23.8742C5.29769 24.9722 4.09619 25.9881 4.09619 27.1772C4.09619 28.3674 5.29769 29.3833 5.59132 30.4802C5.89507 31.6153 5.37082 33.0947 5.94682 34.0881C6.53069 35.0961 8.07869 35.3784 8.89657 36.1974C9.71445 37.0153 9.99795 38.5644 11.0059 39.1472C12.0004 39.7221 13.4787 39.1989 14.6149 39.5027C14.9671 39.5972 15.3113 39.7873 15.6556 39.9988H18.1565C18.9541 39.9988 19.6662 39.4003 19.7135 38.6027C19.7517 37.7477 19.0767 37.0457 18.2318 37.0457L11.0914 37.0434C10.2488 37.0434 9.57045 36.3381 9.61545 35.4864C9.65707 34.6877 10.3748 34.0881 11.1747 34.0881H14.4349C15.2315 34.0656 15.8738 33.4131 15.8738 32.6109C15.8738 31.7942 15.209 31.1293 14.3922 31.1293H9.70207C9.01807 31.1293 8.45782 30.5691 8.46794 29.8862V29.7816C8.35657 28.2077 10.2117 28.5373 12.7936 28.5373C13.6002 28.5373 14.3123 27.9388 14.3607 27.1412C14.3978 26.2907 13.7239 25.5887 12.8791 25.5887Z" fill="#F0EFEF"/>
<path d="M9.3916 17.4908C9.57048 17.3851 9.76623 17.3086 9.99348 17.3086H16.7446C17.5422 17.3086 18.2544 16.7101 18.3016 15.9125C18.3399 15.0575 17.666 14.3555 16.82 14.3555H15.6534C15.3091 14.567 14.9649 14.7582 14.6127 14.8516C13.4776 15.1553 11.9982 14.6311 11.0049 15.2071C10.2297 15.656 9.8821 16.6718 9.3916 17.4908Z" fill="#F0EFEF"/>
<path d="M17.9525 15.8C11.693 15.8 6.6001 20.8918 6.6001 27.1524C6.6001 33.4119 11.693 38.5048 17.9525 38.5048C24.212 38.5048 29.3048 33.4131 29.3048 27.1524C29.3037 20.8918 24.2108 15.8 17.9525 15.8ZM17.9525 36.7239C12.6751 36.7239 8.38097 32.4309 8.38097 27.1524C8.38097 21.8739 12.6751 17.5809 17.9525 17.5809C23.2298 17.5809 27.524 21.8739 27.524 27.1524C27.524 32.4309 23.2298 36.7239 17.9525 36.7239Z" fill="#CACACA"/>
<path d="M13.1018 32.8696C13.1873 32.1823 13.3572 32.7448 13.3448 31.7446C13.3392 31.5466 13.3268 31.3486 13.2627 31.1281C13.2436 31.1214 13.2245 31.1146 13.2065 31.1068C13.0535 31.2474 12.9623 31.4128 12.8903 31.5883C12.6462 32.2261 12.8622 32.225 12.8971 32.81C12.8993 32.837 12.8926 32.8629 12.8937 32.8888C12.5 32.3679 12.1625 31.8155 11.8846 31.2406C11.9318 30.5049 12.5675 30.5105 12.4741 29.3765C12.4572 29.3653 12.4403 29.3551 12.4235 29.3439C12.248 29.4361 12.1276 29.5666 12.023 29.7106C11.6292 30.2765 11.8925 30.3215 11.7372 30.92C11.4841 30.3451 11.2861 29.7511 11.1466 29.1436C11.3165 28.4461 11.9712 28.5991 12.0871 27.4989C12.0725 27.4843 12.059 27.4708 12.0443 27.4561C11.861 27.5 11.7215 27.5923 11.5943 27.6991C11.0622 28.1694 11.3693 28.2774 11.0678 28.7746C10.9531 28.1739 10.8935 27.5641 10.8901 26.9521C11.1792 26.276 11.816 26.5606 12.1152 25.5661C12.1051 25.5493 12.0938 25.5324 12.0837 25.5144C11.9037 25.5099 11.7563 25.5639 11.618 25.6336C11.0172 25.9588 11.3255 26.1343 10.8968 26.5415C10.9171 25.9441 10.9913 25.3479 11.1185 24.7595C11.5718 24.0699 12.0871 24.5874 12.5708 23.6536C12.5641 23.6345 12.5573 23.6154 12.5517 23.5951C12.2727 23.5141 11.9037 23.6131 11.7091 23.8033C11.5943 23.9191 11.5055 24.098 11.3885 24.2026C11.3378 24.2499 11.2827 24.2825 11.2253 24.3129C11.3806 23.7279 11.5898 23.153 11.8531 22.5973C11.8587 22.604 11.8632 22.6108 11.8688 22.6175C12.5585 21.911 12.3087 22.649 13.1018 22.1619C13.2256 22.082 13.3471 21.9909 13.4674 21.8379C13.4663 21.8165 13.4641 21.7963 13.4629 21.7749C13.3234 21.6894 13.1885 21.6725 13.0523 21.6714C12.392 21.6905 12.608 22.0606 12.0837 22.1698C12.086 22.1563 12.086 22.145 12.0882 22.1315C12.5157 21.3384 13.0591 20.5891 13.7183 19.9062C13.0928 20.5104 12.5607 21.1764 12.1231 21.8874C12.1355 21.6939 12.1602 21.6084 12.1366 21.3733C12.0916 21.0931 12.0151 20.8209 11.807 20.5936C11.7845 20.6015 11.762 20.6105 11.7395 20.6184C11.3907 21.2304 11.3367 21.9178 11.7755 22.496C11.5246 22.9741 11.3131 23.4691 11.1432 23.9754C11.0611 23.5029 10.8845 23.0326 10.5076 22.7424C10.4873 22.7548 10.4682 22.7671 10.448 22.7806C10.2635 23.4736 10.3895 24.2184 10.9306 24.6898C10.8012 25.1915 10.7101 25.7023 10.6583 26.2175C10.5886 26.0668 10.5188 25.916 10.4345 25.781C10.2443 25.511 10.034 25.259 9.72458 25.097C9.7077 25.1139 9.69195 25.1308 9.67508 25.1465C9.66383 25.8935 9.97545 26.6124 10.6077 26.9926C10.5942 27.5011 10.619 28.0108 10.6808 28.517C10.3658 28.1154 9.97208 27.7261 9.47145 27.5653C9.45908 27.5855 9.4467 27.6046 9.43433 27.6249C9.60645 28.3786 10.0756 29.0311 10.8102 29.3124C10.9103 29.8074 11.0476 30.2968 11.2208 30.7771C10.5976 30.2799 10.1318 30.1044 9.76058 30.0549C9.7527 30.0774 9.74483 30.0999 9.73695 30.1224C9.9777 30.6073 10.2916 30.9301 10.6212 31.1788C10.8608 31.3441 11.1736 31.4893 11.5392 31.5579C11.7507 32.0203 11.9993 32.4703 12.2828 32.9045C11.5088 32.5344 10.9857 32.4511 10.6043 32.468C10.6021 32.4916 10.5998 32.5164 10.5965 32.54C11.0453 33.0766 11.6573 33.4771 12.4043 33.6031C12.5382 33.6324 12.6698 33.6279 12.8026 33.629C13.0231 33.9103 13.2604 34.1825 13.5147 34.4458C13.6486 34.3119 13.7825 34.178 13.9174 34.043C13.6249 33.7606 13.3538 33.4648 13.1041 33.1565C13.0917 33.0598 13.0883 32.9619 13.1018 32.8696Z" fill="#CACACA"/>
<path d="M24.6118 30.7816C24.7861 30.3012 24.9223 29.8119 25.0224 29.3169C25.7581 29.0345 26.2273 28.3809 26.3983 27.6294C26.3859 27.6091 26.3735 27.59 26.3611 27.5697C25.8594 27.7306 25.4656 28.1199 25.1518 28.5215C25.2136 28.0141 25.2384 27.5045 25.2249 26.9971C25.8571 26.6169 26.1699 25.898 26.1575 25.151C26.1406 25.1341 26.1249 25.1172 26.108 25.1015C25.6648 25.3332 25.3846 25.7675 25.1754 26.222C25.1236 25.7067 25.0325 25.196 24.9031 24.6942C25.442 24.2341 25.5703 23.4781 25.3858 22.7851C25.3655 22.7727 25.3464 22.7592 25.3261 22.7469C24.9493 23.0371 24.7726 23.5074 24.6905 23.9799C24.5195 23.4736 24.3091 22.9786 24.0583 22.5005C24.0706 22.4847 24.0819 22.469 24.0943 22.4532C24.1786 22.3407 24.2473 22.2204 24.2844 22.0831C24.3305 21.9504 24.3654 21.812 24.3744 21.6612C24.3733 21.3519 24.3159 21.0121 24.0943 20.624C24.0718 20.6161 24.0493 20.6071 24.0268 20.5992C23.6848 20.9727 23.6814 21.4171 23.7106 21.893C23.2719 21.1831 22.7398 20.516 22.1154 19.9119C22.7758 20.5947 23.318 21.3451 23.7455 22.1371C23.7478 22.1495 23.7489 22.1619 23.75 22.1754C23.4575 22.1146 23.417 21.9436 23.1808 21.7861C22.9625 21.6444 22.6048 21.6365 22.3719 21.7794C22.3708 21.8007 22.3685 21.821 22.3674 21.8424C22.5283 22.0482 22.8624 22.2969 23.1144 22.3182C23.5644 22.3509 23.498 22.1427 23.9649 22.6209C23.9705 22.6141 23.975 22.6074 23.9806 22.6006C24.2439 23.1575 24.4531 23.7324 24.6084 24.3162C24.1134 24.0586 24.3958 23.7785 23.7343 23.6007C23.5936 23.567 23.4474 23.5501 23.2831 23.5985C23.2764 23.6176 23.2708 23.6379 23.264 23.657C23.804 24.701 24.1831 23.9596 24.7164 24.7629C24.8435 25.3512 24.9178 25.9486 24.938 26.5449C24.5184 26.1466 24.83 25.9689 24.2169 25.637C24.0785 25.5672 23.9311 25.5132 23.7511 25.5177C23.741 25.5346 23.7298 25.5515 23.7196 25.5695C23.8198 25.9047 24.0898 26.2557 24.2833 26.3761C24.6511 26.6011 24.731 26.456 24.9448 26.9555C24.9414 27.5675 24.8818 28.1772 24.767 28.778C24.4655 28.2807 24.7726 28.1727 24.2405 27.7025C24.1134 27.5945 23.9739 27.5034 23.7905 27.4595C23.7759 27.4741 23.7624 27.4876 23.7489 27.5022C23.8659 28.6081 24.5206 28.454 24.6894 29.147C24.5499 29.7534 24.3519 30.3485 24.0988 30.9234C23.9469 30.3361 24.209 30.2821 23.813 29.714C23.7073 29.57 23.5869 29.4406 23.4125 29.3472C23.3956 29.3585 23.3788 29.3686 23.3619 29.3799C23.3315 29.7489 23.4485 30.245 23.5801 30.4711C23.7894 30.821 23.921 30.7872 23.9503 31.244C23.6713 31.8189 23.3349 32.3712 22.9411 32.8921C22.9445 32.4804 23.0255 32.5254 23.0491 32.1642C23.0694 31.8155 22.8973 31.3554 22.6284 31.1101C22.6093 31.1169 22.5901 31.1236 22.5721 31.1315C22.2526 32.2374 22.8118 32.5456 22.7296 33.1632C22.4788 33.4715 22.2076 33.7674 21.9163 34.0497C22.0501 34.1836 22.184 34.3175 22.319 34.4525C22.5733 34.1892 22.8106 33.917 23.0311 33.6357C23.9311 33.629 24.686 33.206 25.2361 32.5467C25.2339 32.5231 25.2316 32.4984 25.2283 32.4747C24.8469 32.4579 24.3238 32.5422 23.5498 32.9112C23.8344 32.477 24.0819 32.0259 24.2934 31.5646C25.0966 31.4139 25.7311 30.8649 26.0956 30.1291C26.0878 30.1066 26.0799 30.0841 26.072 30.0616C25.7008 30.1089 25.235 30.2844 24.6118 30.7816Z" fill="#CACACA"/>
<path d="M21.2999 32H14.7515V30.582L17.7679 27.4109C18.5112 26.5644 18.8829 25.8919 18.8829 25.3935C18.8829 24.9896 18.7948 24.6824 18.6187 24.4718C18.4425 24.2613 18.1868 24.156 17.8517 24.156C17.5208 24.156 17.2522 24.2978 17.046 24.5814C16.8397 24.8607 16.7366 25.2109 16.7366 25.632H14.5581C14.5581 25.0562 14.7021 24.5255 14.9899 24.04C15.2778 23.5501 15.6774 23.1677 16.1888 22.8927C16.7001 22.6177 17.2716 22.4802 17.9032 22.4802C18.9173 22.4802 19.6972 22.7144 20.2429 23.1828C20.7929 23.6511 21.0679 24.3236 21.0679 25.2001C21.0679 25.5697 20.9991 25.9306 20.8616 26.283C20.7241 26.631 20.5093 26.9984 20.2171 27.3851C19.9292 27.7675 19.463 28.281 18.8185 28.9255L17.6067 30.3242H21.2999V32Z" fill="#9C9C9C"/>
<defs>
<linearGradient id="paint0_linear" x1="10.2179" y1="0" x2="10.2179" y2="24.6639" gradientUnits="userSpaceOnUse">
<stop stop-color="#9274F4"/>
<stop offset="1" stop-color="#5E50E0"/>
</linearGradient>
<linearGradient id="paint1_linear" x1="23.5743" y1="20.7276" x2="9.64202" y2="-1.78394" gradientUnits="userSpaceOnUse">
<stop stop-color="#5E52D2"/>
<stop offset="1" stop-color="#B697F9"/>
</linearGradient>
<linearGradient id="paint2_linear" x1="25.7821" y1="0" x2="25.7821" y2="24.6639" gradientUnits="userSpaceOnUse">
<stop stop-color="#9274F4"/>
<stop offset="1" stop-color="#5E50E0"/>
</linearGradient>
<linearGradient id="paint3_linear" x1="39.1385" y1="20.7276" x2="25.2062" y2="-1.78394" gradientUnits="userSpaceOnUse">
<stop stop-color="#5E52D2"/>
<stop offset="1" stop-color="#B697F9"/>
</linearGradient>
</defs>
</svg>
