<svg width="17" height="16" viewBox="0 0 17 16" fill="none" xmlns="http://www.w3.org/2000/svg">
<path fill-rule="evenodd" clip-rule="evenodd" d="M3.1774 4.66658C3.1774 2.79992 4.64992 1.33325 6.52402 1.33325C8.39813 1.33325 9.87064 2.79992 9.87064 4.66658C9.87064 6.53325 8.39813 7.99992 6.52402 7.99992C4.64992 7.99992 3.1774 6.53325 3.1774 4.66658ZM12.5478 12.6666V13.9999C12.5478 14.3999 12.2801 14.6666 11.8785 14.6666C11.4769 14.6666 11.2092 14.3999 11.2092 13.9999V12.6666C11.2092 11.5333 10.3391 10.6666 9.20121 10.6666H3.84662C2.70877 10.6666 1.83865 11.5333 1.83865 12.6666V13.9999C1.83865 14.3999 1.57092 14.6666 1.16932 14.6666C0.76773 14.6666 0.5 14.3999 0.5 13.9999V12.6666C0.5 10.7999 1.97251 9.33325 3.84662 9.33325H9.20121C11.0753 9.33325 12.5478 10.7999 12.5478 12.6666ZM6.52408 6.66658C5.38623 6.66658 4.5161 5.79992 4.5161 4.66659C4.5161 3.53325 5.38623 2.66659 6.52408 2.66659C7.66193 2.66659 8.53205 3.53325 8.53205 4.66659C8.53205 5.79992 7.66193 6.66658 6.52408 6.66658ZM14.0203 9.46656C13.6856 9.3999 13.284 9.5999 13.2171 9.93323C13.1502 10.2666 13.351 10.6666 13.6856 10.7332C14.5558 10.9332 15.1581 11.7332 15.1581 12.6666V13.9999C15.1581 14.3999 15.4259 14.6666 15.8275 14.6666C16.2291 14.6666 16.4968 14.3999 16.4968 13.9999V12.6666C16.5637 11.1332 15.5597 9.7999 14.0203 9.46656ZM10.5399 1.93329C10.6738 1.53329 11.0084 1.33329 11.3431 1.46662C13.1503 1.86662 14.2212 3.73329 13.7527 5.59996C13.4849 6.79996 12.5479 7.66662 11.3431 7.99996H11.2092C10.8746 7.99996 10.6068 7.79996 10.5399 7.46662C10.406 7.13329 10.6738 6.73329 11.0084 6.66662C11.7447 6.46662 12.2802 5.93329 12.481 5.19996C12.7487 4.06662 12.0794 2.99996 11.0084 2.73329C10.6738 2.66662 10.473 2.26662 10.5399 1.93329Z" fill="#959BAD"/>
<mask id="mask0" mask-type="alpha" maskUnits="userSpaceOnUse" x="0" y="1" width="17" height="14">
<path fill-rule="evenodd" clip-rule="evenodd" d="M3.1774 4.66658C3.1774 2.79992 4.64992 1.33325 6.52402 1.33325C8.39813 1.33325 9.87064 2.79992 9.87064 4.66658C9.87064 6.53325 8.39813 7.99992 6.52402 7.99992C4.64992 7.99992 3.1774 6.53325 3.1774 4.66658ZM12.5478 12.6666V13.9999C12.5478 14.3999 12.2801 14.6666 11.8785 14.6666C11.4769 14.6666 11.2092 14.3999 11.2092 13.9999V12.6666C11.2092 11.5333 10.3391 10.6666 9.20121 10.6666H3.84662C2.70877 10.6666 1.83865 11.5333 1.83865 12.6666V13.9999C1.83865 14.3999 1.57092 14.6666 1.16932 14.6666C0.76773 14.6666 0.5 14.3999 0.5 13.9999V12.6666C0.5 10.7999 1.97251 9.33325 3.84662 9.33325H9.20121C11.0753 9.33325 12.5478 10.7999 12.5478 12.6666ZM6.52408 6.66658C5.38623 6.66658 4.5161 5.79992 4.5161 4.66659C4.5161 3.53325 5.38623 2.66659 6.52408 2.66659C7.66193 2.66659 8.53205 3.53325 8.53205 4.66659C8.53205 5.79992 7.66193 6.66658 6.52408 6.66658ZM14.0203 9.46656C13.6856 9.3999 13.284 9.5999 13.2171 9.93323C13.1502 10.2666 13.351 10.6666 13.6856 10.7332C14.5558 10.9332 15.1581 11.7332 15.1581 12.6666V13.9999C15.1581 14.3999 15.4259 14.6666 15.8275 14.6666C16.2291 14.6666 16.4968 14.3999 16.4968 13.9999V12.6666C16.5637 11.1332 15.5597 9.7999 14.0203 9.46656ZM10.5399 1.93329C10.6738 1.53329 11.0084 1.33329 11.3431 1.46662C13.1503 1.86662 14.2212 3.73329 13.7527 5.59996C13.4849 6.79996 12.5479 7.66662 11.3431 7.99996H11.2092C10.8746 7.99996 10.6068 7.79996 10.5399 7.46662C10.406 7.13329 10.6738 6.73329 11.0084 6.66662C11.7447 6.46662 12.2802 5.93329 12.481 5.19996C12.7487 4.06662 12.0794 2.99996 11.0084 2.73329C10.6738 2.66662 10.473 2.26662 10.5399 1.93329Z" fill="white"/>
</mask>
<g mask="url(#mask0)">
<rect x="0.5" width="16" height="16" fill="#959BAD"/>
</g>
</svg>
