<svg width="52" height="52" viewBox="0 0 52 52" fill="none" xmlns="http://www.w3.org/2000/svg">
<circle cx="26" cy="26" r="26" fill="url(#paint0_linear)"/>
<ellipse opacity="0.24" cx="29.5947" cy="19.2512" rx="10.9395" ry="10.2995" fill="#FF7EFA" fill-opacity="0.98"/>
<path d="M33.2039 8H34.1424C35.6573 8.73243 37.3544 9.05416 38.9317 9.65882C40.9723 10.2977 42.9807 11.037 45.0283 11.6599C45.3212 11.8401 45.614 12.0318 45.8423 12.2965C46.0268 12.7026 45.8631 13.1544 45.8216 13.5697C45.591 14.3067 45.3511 15.0414 45.086 15.7647C44.7977 16.4264 44.5187 17.095 44.3896 17.8069C44.2881 18.3545 44.0645 18.8656 43.8708 19.3835C43.3773 19.4223 43.352 19.9882 43.4719 20.3487C43.2436 21.266 43.013 22.2197 42.5034 23.0297C42.2267 23.1073 41.9615 23.1895 41.6964 23.2716C41.2606 23.1164 40.8201 22.9978 40.3843 22.8677C39.5888 22.4753 38.7287 22.2289 37.8687 22.0258C36.8794 21.825 36.2453 22.8837 35.3276 22.9636C34.3591 22.295 34.5966 20.2597 33.054 20.3419C31.9726 20.1913 30.9695 19.7075 29.9388 19.3653C29.9065 19.3447 29.8419 19.306 29.8097 19.2877C29.526 18.8656 29.4061 18.3362 29.5768 17.8502C30.5706 14.941 31.5437 12.0227 32.5075 9.10436C32.639 8.67995 32.9272 8.33998 33.2039 8ZM35.2077 11.9862C34.6958 12.3376 34.6059 13.1293 35.0163 13.5925C35.5305 14.382 36.9878 13.9918 37.0155 13.0312C37.2115 12.0934 35.9409 11.3678 35.2077 11.9862ZM38.7011 13.6199C37.004 14.8361 35.1247 15.8218 33.5452 17.1817C33.8611 17.7498 34.1862 18.3294 34.652 18.7949C34.9886 18.9249 35.2492 18.5804 35.5305 18.448C37.4513 17.1452 39.3928 15.8697 41.3343 14.5942C41.5326 14.4094 41.9108 14.277 41.8601 13.9462C41.5972 13.4031 41.2214 12.9285 40.8847 12.4334C40.0223 12.511 39.4228 13.2229 38.7011 13.6199ZM38.8994 17.4669C38.3068 17.8274 38.316 18.7492 38.8256 19.1759C39.379 19.7167 40.442 19.4817 40.6449 18.7104C41.0945 17.7247 39.6949 16.7185 38.8994 17.4669Z" fill="#EE662A"/>
<path d="M15.5874 11.6874L15.758 11.6281C16.1823 11.5528 16.625 11.4957 17.0608 11.5687L17.3814 11.6577C17.5174 12.1072 17.5843 12.575 17.6142 13.045C17.6488 13.6907 17.8218 14.3136 18.0155 14.9274C18.0316 15.0187 18.0593 15.199 18.0754 15.2879C18.1377 15.9474 18.3014 16.5908 18.4813 17.2297C18.449 17.8868 19.0185 18.6261 18.5182 19.1988C18.3291 19.5251 17.884 19.3677 17.5866 19.4498C16.934 19.5 16.2907 19.6209 15.6796 19.8491C15.6105 19.8742 15.4744 19.9199 15.4076 19.9427C15.2738 20.1686 15.1355 20.3876 14.9948 20.6044C14.9763 20.634 14.9418 20.6956 14.9233 20.7253L14.7412 21.0835C14.7273 21.1086 14.6997 21.1543 14.6881 21.1771C14.5521 21.1908 14.28 21.2182 14.1439 21.2318C14.1831 20.9261 14.0517 20.7732 13.7496 20.7709L13.4637 20.7664C13.2954 20.6318 13.1294 20.4994 12.9633 20.3671C12.8042 20.3762 12.4814 20.3967 12.32 20.4059C11.8704 20.4195 11.1901 20.2096 10.9711 20.7413C10.4845 20.828 9.99108 20.8599 9.51146 20.7504C9.36388 20.3214 9.28781 19.8742 9.26936 19.4224C9.22324 18.7607 9.06875 18.1127 8.86353 17.4807C8.852 17.3917 8.82894 17.2137 8.81741 17.1247C8.75976 16.4722 8.62141 15.8333 8.41619 15.2104C8.34932 14.5304 7.97116 13.8208 8.2617 13.15C8.48998 12.9606 8.75284 12.8898 9.0549 12.9355C9.50224 12.9948 10.1502 13.1271 10.3716 12.6024C10.5168 12.5887 10.8097 12.5613 10.9549 12.5499C11.5913 12.4974 12.2093 12.3194 12.8135 12.1232C12.9726 12.1118 13.2908 12.0912 13.4499 12.0798C14.1739 12.057 14.9164 11.9931 15.5874 11.6874ZM13.2516 14.5897C12.6359 14.2771 11.7966 14.2018 11.3239 14.7951C10.6414 15.5001 11.1602 16.6045 11.8796 17.07C12.5783 17.4944 13.2493 18.01 14.0448 18.2496C14.5567 17.5332 15.1746 16.8852 15.6197 16.1185C15.8848 15.5001 15.9817 14.5441 15.2623 14.1882C14.5913 13.6999 13.7888 14.1243 13.2516 14.5897Z" fill="#EE662A"/>
<path d="M13.4497 12.08C14.07 11.6853 14.8655 11.6488 15.5872 11.6876C14.9162 11.9933 14.1737 12.0572 13.4497 12.08Z" fill="#EF8F91"/>
<path d="M10.9707 20.7415C11.1898 20.2099 11.87 20.4198 12.3196 20.4061C12.1421 20.778 11.3696 20.7826 10.9707 20.7415Z" fill="#EF8F91"/>
<path d="M15.7583 11.6281C16.1734 11.5095 16.5976 11.3999 17.0288 11.3201C17.0357 11.3817 17.0542 11.5072 17.0611 11.5688C16.6253 11.4958 16.1826 11.5528 15.7583 11.6281Z" fill="#92C2E8"/>
<path d="M17.6143 13.0447C17.7572 13.6699 17.9279 14.2905 18.0155 14.9271C17.8218 14.3133 17.6488 13.6904 17.6143 13.0447Z" fill="#92C2E8"/>
<path d="M45.0288 11.6599L45.2502 11.7192C45.4761 11.8653 45.6883 12.0296 45.912 12.1893C46.0734 12.6502 45.9973 13.1248 45.822 13.5697C45.8635 13.1544 46.0273 12.7027 45.8428 12.2965C45.6145 12.0318 45.3217 11.8402 45.0288 11.6599Z" fill="#F4F8E6"/>
<path d="M13.5536 22.4C15.0432 22.2973 16.5374 22.2152 18.0339 22.1672C17.8264 22.4753 17.439 22.4023 17.1277 22.4296C15.8572 22.4479 14.5912 22.5209 13.3276 22.5757L13.5536 22.4Z" fill="#F4F8E6"/>
<path d="M13.9019 41.0851C15.4814 41.0166 17.0609 40.9801 18.6427 40.8911C18.5459 40.939 18.3545 41.0394 18.2599 41.0873C16.8879 41.174 15.516 41.2562 14.144 41.2859L13.9019 41.0851Z" fill="#F4F8E6"/>
<path d="M35.2074 11.986C35.9406 11.3677 37.2112 12.0933 37.0152 13.031C36.9875 13.9916 35.5302 14.3818 35.016 13.5923C34.6056 13.1292 34.6955 12.3374 35.2074 11.986Z" fill="#FDD444"/>
<path d="M10.9541 12.5497C11.5444 12.3101 12.167 12.1367 12.8126 12.123C12.2085 12.3193 11.5905 12.4973 10.9541 12.5497Z" fill="#D1D2D2"/>
<path d="M8.86279 17.4807C9.06801 18.1128 9.22251 18.7608 9.26863 19.4225C9.10952 18.7813 8.91813 18.1424 8.86279 17.4807Z" fill="#D1D2D2"/>
<path d="M9.05469 12.9353C9.26913 12.5999 9.96783 12.5451 10.3714 12.6021C10.15 13.1269 9.50202 12.9946 9.05469 12.9353Z" fill="#D28359"/>
<path d="M38.7013 13.6201C39.423 13.2231 40.0226 12.5112 40.8849 12.4336C41.2216 12.9287 41.5974 13.4033 41.8603 13.9464C41.911 14.2772 41.5329 14.4096 41.3346 14.5944C39.393 15.8699 37.4515 17.1454 35.5308 18.4482C35.2494 18.5806 34.9889 18.9251 34.6522 18.795C34.1864 18.3296 33.8613 17.75 33.5454 17.1819C35.1249 15.822 37.0042 14.8363 38.7013 13.6201Z" fill="#FED443"/>
<path d="M13.2518 14.5898C13.789 14.1243 14.5915 13.6999 15.2625 14.1882C15.9819 14.5441 15.885 15.5002 15.6199 16.1185C15.1748 16.8852 14.5569 17.5332 14.045 18.2497C13.2495 18.0101 12.5784 17.4944 11.8798 17.07C11.1603 16.6045 10.6415 15.5002 11.3241 14.7951C11.7968 14.2019 12.6361 14.2772 13.2518 14.5898Z" fill="#FED443"/>
<path d="M8.41602 15.2104C8.62124 15.8334 8.75959 16.4722 8.81723 17.1248C8.67427 16.4882 8.51747 15.8562 8.41602 15.2104Z" fill="#FFFFF3"/>
<path d="M18.0752 15.2888C18.2182 15.9345 18.3957 16.5734 18.481 17.2306C18.3012 16.5917 18.1375 15.9482 18.0752 15.2888Z" fill="#FFFFF3"/>
<path d="M32.8833 28.9622C32.9455 28.7682 33.0746 28.6838 33.2729 28.7112C35.2306 28.7112 37.186 28.5309 39.1436 28.5469C39.1413 28.839 39.139 29.131 39.1367 29.4231C38.3919 29.4391 37.6448 29.4596 36.9024 29.4893C36.824 29.6672 36.6925 29.7471 36.5104 29.7266C33.7249 29.7539 30.9417 29.9798 28.1562 30.0004C28.2093 29.7129 28.2669 29.4231 28.3292 29.1379C29.8487 29.1287 31.3614 28.9576 32.8833 28.9622Z" fill="#FFFFF3"/>
<path d="M34.3201 36.8934C36.0818 36.955 37.8366 36.7063 39.5982 36.7382C39.559 37.028 39.7366 37.6167 39.2639 37.6098C37.5368 37.7057 35.8051 37.7695 34.078 37.8197C34.0319 37.482 34.1126 37.174 34.3201 36.8934Z" fill="#FFFFF3"/>
<path d="M44.3896 17.807C44.5188 17.0951 44.7978 16.4266 45.086 15.7649C44.867 16.4517 44.6571 17.1385 44.3896 17.807Z" fill="#D2D2D2"/>
<path d="M15.6792 19.849C16.2903 19.6208 16.9336 19.4999 17.5861 19.4497C17.0212 19.7942 16.3156 19.776 15.6792 19.849Z" fill="#D2D2D2"/>
<path d="M38.8993 17.467C39.6948 16.7186 41.0945 17.7249 40.6448 18.7106C40.4419 19.4818 39.3789 19.7168 38.8255 19.176C38.3159 18.7493 38.3067 17.8275 38.8993 17.467Z" fill="#FDD541"/>
<path opacity="0.93" d="M29.8101 19.2878C29.8423 19.3063 29.9069 19.3455 29.9392 19.3662L29.8447 19.3524L29.8101 19.2878Z" fill="#EE9A6B"/>
<path opacity="0.86" d="M43.4716 20.3487C43.3517 19.9882 43.3771 19.4223 43.8705 19.3835C43.8452 19.7349 43.776 20.1297 43.4716 20.3487Z" fill="#BF7C57"/>
<path d="M33.0543 20.342C34.5969 20.2599 34.3594 22.2952 35.3279 22.9637C36.2456 22.8839 36.8797 21.8251 37.8689 22.0259C38.729 22.229 39.5891 22.4754 40.3846 22.8679L39.9972 22.8747C40.1056 24.4583 40.1955 26.0441 40.3108 27.6299C40.1125 29.0103 40.1171 30.5048 40.6406 31.8214C40.7374 34.0324 41.2124 36.2251 41.081 38.4452L40.8666 38.7122C40.7928 38.8126 40.7259 38.9153 40.6682 39.0225C39.8035 39.1731 38.6552 38.7624 38.005 39.4834C37.4147 39.5176 36.8267 39.5176 36.241 39.5017C35.2426 39.5062 34.2303 39.4036 33.248 39.5884C31.65 40.1839 29.9137 39.7823 28.2558 40.0265C27.6955 39.2667 27.2851 38.281 26.3397 37.9113C25.8531 37.6694 25.2951 37.6923 24.7717 37.7128C24.1329 37.6215 23.6649 38.0254 23.2775 38.4635C22.7471 38.9518 22.5949 39.6797 22.2675 40.2912C21.2852 41.2084 19.851 40.7156 18.6427 40.8912C17.0609 40.9802 15.4814 41.0167 13.9018 41.0852C13.3346 40.8388 13.0717 40.282 13.0602 39.6933C12.6405 34.7671 12.2993 29.8363 11.8865 24.91C11.8104 24.2346 11.8888 23.5615 12.018 22.8998C11.7343 22.9523 11.4507 23.0071 11.1717 23.0596C11.1856 23.3151 11.2086 23.5729 11.2294 23.8285C11.0864 23.8536 10.8051 23.9038 10.6621 23.9289C10.6944 23.4178 11.0726 23.0481 11.3631 22.6603C12.0157 22.6237 12.6705 22.6192 13.3277 22.5758C14.5913 22.5211 15.8572 22.4481 17.1277 22.4298C17.439 22.4024 17.8264 22.4754 18.034 22.1674C18.5804 22.1491 19.1315 22.1309 19.6849 22.1332C19.791 22.1309 20.0077 22.1286 20.1161 22.1263C20.2845 22.1332 20.6257 22.1469 20.7964 22.1537C21.1791 22.7606 21.5204 23.4132 22.0715 23.8924C22.3621 24.0224 22.6318 24.1981 22.8647 24.4217C23.1391 24.4172 23.4158 24.4103 23.6971 24.4012C24.2321 24.3761 24.8293 24.4081 25.2744 24.0453C26.1068 23.5296 26.4065 22.5576 26.8008 21.7247C26.6556 21.6951 26.365 21.638 26.2197 21.6084C27.8292 21.0311 29.6047 21.3391 31.2857 21.2136C31.9936 20.6911 32.969 21.0585 33.7853 20.8896C33.6446 20.5793 33.4025 20.3968 33.0543 20.342ZM35.5723 24.7937C33.4947 24.8918 31.4171 24.9762 29.3419 25.0538C28.8323 25.2135 28.3112 25.323 27.7762 25.3116C27.3773 26.0349 28.1359 26.4821 28.5994 26.902C28.348 27.153 27.7578 27.2785 28.0644 27.7827C30.4625 27.769 32.856 27.6048 35.2518 27.5021C36.4554 27.1735 37.7167 27.283 38.9504 27.194C38.9481 26.8655 38.9296 26.5369 38.8927 26.2106C38.6783 25.558 37.7882 25.8204 37.274 25.6333C37.7375 25.3071 38.3324 25.4371 38.8674 25.3732C38.8213 25.0789 38.7797 24.7823 38.7428 24.4879C37.6614 24.4195 36.6445 24.8119 35.5723 24.7937ZM23.8747 25.4029C23.5473 25.6288 23.9 26.2197 24.2459 25.9619C24.5803 25.7383 24.2136 25.1496 23.8747 25.4029ZM24.0868 26.5369C23.6303 26.6327 23.8009 27.3538 24.2644 27.1986C24.714 27.1165 24.4927 26.4114 24.0868 26.5369ZM24.0753 27.8877C23.9531 28.2642 24.0799 28.3919 24.4535 28.2733C24.5687 27.8968 24.4419 27.769 24.0753 27.8877ZM32.8837 28.9624C31.3618 28.9578 29.8492 29.1289 28.3296 29.1381C28.2674 29.4233 28.2097 29.7131 28.1567 30.0006C30.9422 29.98 33.7253 29.7541 36.5108 29.7268C36.693 29.7473 36.8244 29.6674 36.9028 29.4895C37.6453 29.4598 38.3924 29.4393 39.1372 29.4233C39.1395 29.1312 39.1418 28.8392 39.1441 28.5471C37.1864 28.5311 35.231 28.7114 33.2734 28.7114C33.0751 28.684 32.9459 28.7684 32.8837 28.9624ZM24.0015 28.9784C24.0269 29.1404 24.0753 29.4666 24.0983 29.6286C24.2298 29.6104 24.4927 29.5739 24.6241 29.5556C24.6471 29.4233 24.6956 29.1586 24.7186 29.0286C24.5411 29.0149 24.1814 28.992 24.0015 28.9784ZM24.0707 30.1991C24.0799 30.5961 24.292 30.9201 24.744 30.8494C24.7371 30.6714 24.7232 30.3177 24.714 30.1398C24.5549 30.1534 24.2321 30.1831 24.0707 30.1991ZM24.3382 31.5225C24.209 31.8921 24.3336 32.0176 24.714 31.899C24.8385 31.527 24.7117 31.4015 24.3382 31.5225ZM24.3543 32.693C24.0914 33.0239 24.6679 33.4003 24.9008 33.0649C25.1729 32.7272 24.5803 32.3507 24.3543 32.693ZM24.5411 33.8316C24.209 34.0506 24.5572 34.6416 24.9008 34.3815C25.242 34.1624 24.8893 33.5509 24.5411 33.8316ZM24.4927 35.625C24.6679 35.6091 25.0184 35.5725 25.1959 35.5543C25.1959 35.3079 25.1083 35.1071 24.9285 34.9588C24.4696 34.8219 24.4719 35.3216 24.4927 35.625ZM34.1773 35.082C34.0827 35.2143 33.896 35.479 33.8014 35.6113L33.9674 35.876C35.7614 35.9604 37.5876 35.7916 39.3908 35.7026C39.3954 35.4881 39.4046 35.0592 39.4092 34.847C37.6637 34.9017 35.9182 34.9747 34.1773 35.082ZM24.5549 36.6883C24.7301 36.7248 25.0806 36.7955 25.2582 36.8321C25.2305 36.645 25.1752 36.273 25.1475 36.0859C24.827 36.1453 24.4488 36.289 24.5549 36.6883ZM34.3202 36.8937C34.1127 37.1743 34.032 37.4823 34.0781 37.82C35.8052 37.7698 37.5369 37.706 39.264 37.6101C39.7367 37.617 39.5591 37.0283 39.5983 36.7385C37.8367 36.7066 36.0819 36.9553 34.3202 36.8937Z" fill="#FED444"/>
<path opacity="0.69" d="M14.9233 20.7252C14.9418 20.6955 14.9764 20.6339 14.9948 20.6042C14.9764 20.6339 14.9418 20.6955 14.9233 20.7252Z" fill="#B17A63"/>
<path opacity="0.91" d="M13.7496 20.7708C14.0517 20.773 14.1831 20.9259 14.1439 21.2317C13.8003 21.2431 13.6689 21.0902 13.7496 20.7708Z" fill="#D17C57"/>
<path opacity="0.58" d="M14.688 21.1778C14.6995 21.1547 14.7272 21.1086 14.741 21.0833C14.7272 21.1086 14.6995 21.1547 14.688 21.1778Z" fill="#936E5B"/>
<path d="M28.5993 26.9016C28.1359 26.4818 27.3772 26.0346 27.7762 25.3113C27.8661 25.6307 27.9722 25.9456 28.0944 26.2536C28.5763 26.119 29.0651 25.9684 29.5747 25.9502C32.1388 25.8361 34.7052 25.722 37.274 25.633C37.7882 25.8201 38.6782 25.5577 38.8927 26.2103C37.8504 26.6735 36.6975 26.5411 35.593 26.6119C33.2618 26.7077 30.9329 26.8469 28.5993 26.9016Z" fill="#FBD448"/>
<path d="M25.6429 21.8135C25.832 21.7473 26.0257 21.6789 26.2194 21.6082C26.3647 21.6378 26.6552 21.6949 26.8005 21.7245C26.4062 22.5574 26.1064 23.5294 25.274 24.045C24.829 24.4078 24.2317 24.3759 23.6968 24.401C23.8812 24.134 24.1418 23.9561 24.4623 23.8762L24.573 23.7028C24.5961 23.6663 24.6445 23.5955 24.6676 23.5613C24.7506 23.4449 24.9166 23.2145 24.9996 23.1004C25.3386 22.7581 25.6614 22.3155 25.6429 21.8135Z" fill="#D8A62D"/>
<path d="M19.6851 22.1332C19.8165 21.7886 19.9595 21.7864 20.1163 22.1263C20.0079 22.1286 19.7911 22.1309 19.6851 22.1332Z" fill="#F0E4CA"/>
<path opacity="0.45" d="M24.9993 23.1006C24.9071 22.6169 25.1653 22.1651 25.5227 21.8502L25.6426 21.8137C25.6611 22.3157 25.3383 22.7584 24.9993 23.1006Z" fill="#675A3D"/>
<path d="M11.1716 23.0594C11.4507 23.0069 11.7343 22.9521 12.0179 22.8997C11.8887 23.5614 11.8104 24.2345 11.8865 24.9099C12.2992 29.8361 12.6405 34.7669 13.0601 39.6932C13.0717 40.2819 13.3345 40.8386 13.9018 41.085L14.1439 41.2858C13.6089 41.3109 13.0786 41.3132 12.5482 41.2927C12.3592 41.0257 12.1055 40.7907 12.0248 40.4667C11.8795 39.0611 11.8127 37.6487 11.6028 36.25C11.476 34.1303 11.1278 32.022 11.1278 29.8931C11.0287 27.9012 10.6344 25.9275 10.662 23.9287C10.805 23.9036 11.0863 23.8534 11.2293 23.8283C11.2085 23.5728 11.1855 23.3149 11.1716 23.0594Z" fill="#D9A325"/>
<path opacity="0.69" d="M24.5732 23.7027C24.5963 23.6662 24.6447 23.5955 24.6678 23.5613C24.6447 23.5955 24.5963 23.6662 24.5732 23.7027Z" fill="#B19663"/>
<path d="M35.5725 24.7935C36.6447 24.8118 37.6616 24.4193 38.743 24.4878C38.7799 24.7821 38.8214 25.0787 38.8675 25.3731C38.3326 25.437 37.7377 25.3069 37.2742 25.6332C34.7055 25.7222 32.139 25.8363 29.5749 25.9503C29.0653 25.9686 28.5765 26.1192 28.0946 26.2538C27.9724 25.9458 27.8663 25.6309 27.7764 25.3115C28.3113 25.3229 28.8324 25.2134 29.342 25.0536C31.4173 24.9761 33.4949 24.8916 35.5725 24.7935Z" fill="#FFFEFB"/>
<path d="M23.8743 25.4029C24.2132 25.1497 24.5799 25.7383 24.2455 25.9619C23.8996 26.2198 23.5468 25.6288 23.8743 25.4029Z" fill="#DCAE25"/>
<path d="M35.5929 26.612C36.6974 26.5413 37.8503 26.6736 38.8926 26.2104C38.9295 26.5367 38.9479 26.8653 38.9502 27.1939C37.7166 27.2829 36.4553 27.1733 35.2516 27.5019C32.8558 27.6046 30.4624 27.7689 28.0643 27.7826C27.7576 27.2783 28.3479 27.1528 28.5992 26.9018C30.9328 26.8471 33.2617 26.7079 35.5929 26.612Z" fill="#FFFEFF"/>
<path d="M24.0867 26.5369C24.4925 26.4114 24.7139 27.1165 24.2642 27.1986C23.8008 27.3538 23.6301 26.6327 24.0867 26.5369Z" fill="#DEB026"/>
<path d="M24.0748 27.8875C24.4414 27.7689 24.5683 27.8967 24.453 28.2732C24.0794 28.3918 23.9526 28.264 24.0748 27.8875Z" fill="#D6A81D"/>
<path opacity="0.98" d="M40.3113 27.6296C40.6179 28.9895 40.581 30.427 40.641 31.8212C40.1176 30.5046 40.113 29.0101 40.3113 27.6296Z" fill="#F4D266"/>
<path d="M24.0015 28.9783C24.1813 28.992 24.541 29.0148 24.7186 29.0285C24.6955 29.1585 24.6471 29.4232 24.624 29.5555C24.4926 29.5738 24.2297 29.6103 24.0983 29.6286C24.0752 29.4666 24.0268 29.1403 24.0015 28.9783Z" fill="#DFB329"/>
<path d="M24.0708 30.199C24.2322 30.183 24.555 30.1533 24.7141 30.1396C24.7234 30.3176 24.7372 30.6713 24.7441 30.8493C24.2922 30.92 24.08 30.596 24.0708 30.199Z" fill="#DFB329"/>
<path d="M24.3378 31.5225C24.7114 31.4016 24.8382 31.5271 24.7137 31.899C24.3332 32.0177 24.2087 31.8922 24.3378 31.5225Z" fill="#D4A81E"/>
<path d="M24.3539 32.6927C24.5799 32.3504 25.1725 32.7269 24.9004 33.0646C24.6675 33.4 24.091 33.0235 24.3539 32.6927Z" fill="#DBAE26"/>
<path d="M24.5407 33.8314C24.8889 33.5507 25.2417 34.1622 24.9004 34.3813C24.5569 34.6414 24.2087 34.0504 24.5407 33.8314Z" fill="#DBAD25"/>
<path d="M24.4927 35.6248C24.4719 35.3213 24.4696 34.8216 24.9285 34.9585C25.1083 35.1069 25.1959 35.3077 25.1959 35.5541C25.0184 35.5723 24.6679 35.6088 24.4927 35.6248Z" fill="#E0B228"/>
<path d="M34.1766 35.0817C35.9176 34.9745 37.6631 34.9014 39.4086 34.8467C39.404 35.0589 39.3948 35.4878 39.3902 35.7023C37.587 35.7913 35.7608 35.9602 33.9668 35.8757L33.8008 35.6111C33.8953 35.4787 34.0821 35.214 34.1766 35.0817Z" fill="#FFFFF4"/>
<path d="M24.5548 36.6881C24.4488 36.2888 24.8269 36.145 25.1475 36.0857C25.1751 36.2728 25.2305 36.6447 25.2581 36.8318C25.0806 36.7953 24.7301 36.7246 24.5548 36.6881Z" fill="#E5B02A"/>
<path d="M24.7715 37.7126C25.2949 37.6921 25.8529 37.6693 26.3395 37.9111C27.2849 38.2808 27.6953 39.2665 28.2556 40.0263C27.9513 40.0537 27.6492 40.0856 27.3517 40.1221C26.6461 39.8141 26.4709 38.9972 25.929 38.5135C25.5601 38.2214 25.1612 37.9727 24.7715 37.7126Z" fill="#DAA525"/>
<path d="M38.0049 39.4834C38.6551 38.7623 39.8034 39.1731 40.6681 39.0225C40.6174 39.1092 40.5183 39.2826 40.4675 39.3716C39.6536 39.5267 38.8258 39.4993 38.0049 39.4834Z" fill="#EED17E"/>
<path d="M28.256 40.0265C29.9139 39.7823 31.6502 40.1839 33.2482 39.5884C34.2305 39.4036 35.2427 39.5062 36.2412 39.5017C36.1858 39.6158 36.0751 39.8439 36.0198 39.958C35.7615 39.958 35.5056 39.9649 35.2519 39.974C35.1574 40.0196 34.966 40.1155 34.8715 40.1634C33.4211 40.2136 31.9707 40.1474 30.5226 40.2432C29.342 40.2592 28.1407 40.5056 26.9785 40.2022C27.0731 40.1816 27.2598 40.1428 27.3521 40.1223C27.6495 40.0858 27.9516 40.0538 28.256 40.0265Z" fill="#EDD185"/>
<defs>
<linearGradient id="paint0_linear" x1="45.2593" y1="52" x2="22.1551" y2="-10.8365" gradientUnits="userSpaceOnUse">
<stop stop-color="#33315C"/>
<stop offset="0.807292" stop-color="#4F4590"/>
</linearGradient>
</defs>
</svg>
