<svg width="146" height="33" viewBox="0 0 146 33" fill="none" xmlns="http://www.w3.org/2000/svg">
<path d="M1 29.8516C1 29.8516 5.62446 20.7105 10.9375 23.858C16.2505 27.0055 16.9391 29.8516 21.6618 27.9631C26.3845 26.0746 26.6801 10.1138 30.8125 13.2613C34.9449 16.4088 45.1449 22.7037 54 13.2613" stroke="url(#paint0_linear)" stroke-width="2" stroke-linecap="round" stroke-linejoin="round"/>
<g clip-path="url(#clip0)">
<g clip-path="url(#clip1)">
<path d="M71.584 16.8516L76.084 22.8516H67.084L71.584 16.8516Z" fill="url(#paint1_linear)"/>
</g>
<path d="M85.244 26.2436V25.0116C84.1987 24.8942 83.3613 24.5262 82.732 23.9076C82.1027 23.2889 81.7827 22.4782 81.772 21.4756H83.564C83.5747 21.9769 83.724 22.4196 84.012 22.8036C84.3 23.1769 84.7107 23.4276 85.244 23.5556V19.6996C85.1587 19.6782 85.068 19.6516 84.972 19.6196C84.8867 19.5876 84.796 19.5556 84.7 19.5236C83.836 19.2356 83.1853 18.8622 82.748 18.4036C82.3213 17.9449 82.108 17.3422 82.108 16.5956C82.0973 15.7209 82.38 15.0062 82.956 14.4516C83.532 13.8969 84.2947 13.5716 85.244 13.4756V12.1956H86.332V13.4916C87.26 13.5982 88.0067 13.9342 88.572 14.4996C89.1373 15.0649 89.4253 15.7742 89.436 16.6276H87.644C87.6333 16.2756 87.516 15.9449 87.292 15.6356C87.0787 15.3156 86.7587 15.0969 86.332 14.9796V18.4036C86.4173 18.4356 86.5027 18.4676 86.588 18.4996C86.6733 18.5209 86.7587 18.5476 86.844 18.5796C87.3987 18.7609 87.8947 18.9796 88.332 19.2356C88.7693 19.4916 89.116 19.8276 89.372 20.2436C89.6387 20.6596 89.772 21.1876 89.772 21.8276C89.772 22.3609 89.644 22.8622 89.388 23.3316C89.132 23.7902 88.748 24.1742 88.236 24.4836C87.724 24.7929 87.0893 24.9742 86.332 25.0276V26.2436H85.244ZM83.868 16.4516C83.868 16.8782 83.9907 17.2089 84.236 17.4436C84.4813 17.6676 84.8173 17.8649 85.244 18.0356V14.9316C84.8387 15.0062 84.508 15.1769 84.252 15.4436C83.996 15.6996 83.868 16.0356 83.868 16.4516ZM87.98 21.9396C87.98 21.4169 87.8253 21.0222 87.516 20.7556C87.2067 20.4782 86.812 20.2489 86.332 20.0676V23.5876C86.8547 23.5236 87.26 23.3422 87.548 23.0436C87.836 22.7449 87.98 22.3769 87.98 21.9396ZM95.5302 25.0436C94.7409 25.0436 94.0582 24.9049 93.4822 24.6276C92.9062 24.3396 92.4476 23.9502 92.1062 23.4596C91.7756 22.9582 91.5729 22.3929 91.4982 21.7636H93.1622C93.2689 22.2969 93.5356 22.7396 93.9622 23.0916C94.3889 23.4329 94.9169 23.6036 95.5462 23.6036C96.0156 23.6036 96.4209 23.4916 96.7622 23.2676C97.1036 23.0329 97.3702 22.7236 97.5622 22.3396C97.7542 21.9556 97.8502 21.5236 97.8502 21.0436C97.8502 20.2862 97.6369 19.6836 97.2102 19.2356C96.7836 18.7769 96.2449 18.5476 95.5942 18.5476C95.0396 18.5476 94.5649 18.6809 94.1702 18.9476C93.7756 19.2036 93.4876 19.5289 93.3062 19.9236H91.6902L92.6502 13.6516H98.6982V15.1396H93.9302L93.3542 18.1316C93.5996 17.8542 93.9356 17.6249 94.3622 17.4436C94.7996 17.2516 95.2902 17.1556 95.8342 17.1556C96.5916 17.1556 97.2422 17.3316 97.7862 17.6836C98.3302 18.0249 98.7462 18.4889 99.0342 19.0756C99.3329 19.6622 99.4822 20.3129 99.4822 21.0276C99.4822 21.7742 99.3222 22.4516 99.0022 23.0596C98.6822 23.6676 98.2236 24.1529 97.6262 24.5156C97.0396 24.8676 96.3409 25.0436 95.5302 25.0436ZM105.07 25.0436C104.344 25.0436 103.683 24.9156 103.086 24.6596C102.499 24.3929 102.03 23.9929 101.678 23.4596C101.326 22.9262 101.139 22.2596 101.118 21.4596H102.798C102.819 22.0569 103.022 22.5636 103.406 22.9796C103.8 23.3849 104.355 23.5876 105.07 23.5876C105.752 23.5876 106.275 23.4009 106.638 23.0276C107 22.6436 107.182 22.1689 107.182 21.6036C107.182 20.9209 106.936 20.4142 106.446 20.0836C105.966 19.7529 105.374 19.5876 104.67 19.5876H103.838V18.1796H104.686C105.315 18.1796 105.822 18.0302 106.206 17.7316C106.6 17.4329 106.798 17.0116 106.798 16.4676C106.798 16.0089 106.643 15.6356 106.334 15.3476C106.035 15.0596 105.608 14.9156 105.054 14.9156C104.478 14.9156 104.024 15.0862 103.694 15.4276C103.363 15.7582 103.182 16.1742 103.15 16.6756H101.47C101.491 16.0249 101.651 15.4596 101.95 14.9796C102.259 14.4996 102.68 14.1262 103.214 13.8596C103.747 13.5929 104.36 13.4596 105.054 13.4596C105.8 13.4596 106.424 13.5929 106.926 13.8596C107.438 14.1156 107.822 14.4676 108.078 14.9156C108.344 15.3529 108.478 15.8329 108.478 16.3556C108.478 16.9529 108.312 17.4756 107.982 17.9236C107.651 18.3716 107.208 18.6702 106.654 18.8196C107.294 18.9582 107.822 19.2729 108.238 19.7636C108.654 20.2436 108.862 20.8676 108.862 21.6356C108.862 22.2542 108.718 22.8249 108.43 23.3476C108.142 23.8596 107.715 24.2702 107.15 24.5796C106.584 24.8889 105.891 25.0436 105.07 25.0436ZM114.858 25.0436C114.069 25.0436 113.386 24.9049 112.81 24.6276C112.234 24.3396 111.776 23.9502 111.434 23.4596C111.104 22.9582 110.901 22.3929 110.826 21.7636H112.49C112.597 22.2969 112.864 22.7396 113.29 23.0916C113.717 23.4329 114.245 23.6036 114.874 23.6036C115.344 23.6036 115.749 23.4916 116.09 23.2676C116.432 23.0329 116.698 22.7236 116.89 22.3396C117.082 21.9556 117.178 21.5236 117.178 21.0436C117.178 20.2862 116.965 19.6836 116.538 19.2356C116.112 18.7769 115.573 18.5476 114.922 18.5476C114.368 18.5476 113.893 18.6809 113.498 18.9476C113.104 19.2036 112.816 19.5289 112.634 19.9236H111.018L111.978 13.6516H118.026V15.1396H113.258L112.682 18.1316C112.928 17.8542 113.264 17.6249 113.69 17.4436C114.128 17.2516 114.618 17.1556 115.162 17.1556C115.92 17.1556 116.57 17.3316 117.114 17.6836C117.658 18.0249 118.074 18.4889 118.362 19.0756C118.661 19.6622 118.81 20.3129 118.81 21.0276C118.81 21.7742 118.65 22.4516 118.33 23.0596C118.01 23.6676 117.552 24.1529 116.954 24.5156C116.368 24.8676 115.669 25.0436 114.858 25.0436ZM121.422 24.9476C121.102 24.9476 120.835 24.8462 120.622 24.6436C120.419 24.4302 120.318 24.1796 120.318 23.8916C120.318 23.5929 120.419 23.3422 120.622 23.1396C120.835 22.9262 121.102 22.8196 121.422 22.8196C121.742 22.8196 122.003 22.9262 122.206 23.1396C122.408 23.3422 122.51 23.5929 122.51 23.8916C122.51 24.1796 122.408 24.4302 122.206 24.6436C122.003 24.8462 121.742 24.9476 121.422 24.9476ZM128.186 25.0436C127.397 25.0436 126.714 24.9049 126.138 24.6276C125.562 24.3396 125.104 23.9502 124.762 23.4596C124.432 22.9582 124.229 22.3929 124.154 21.7636H125.818C125.925 22.2969 126.192 22.7396 126.618 23.0916C127.045 23.4329 127.573 23.6036 128.202 23.6036C128.672 23.6036 129.077 23.4916 129.418 23.2676C129.76 23.0329 130.026 22.7236 130.218 22.3396C130.41 21.9556 130.506 21.5236 130.506 21.0436C130.506 20.2862 130.293 19.6836 129.866 19.2356C129.44 18.7769 128.901 18.5476 128.25 18.5476C127.696 18.5476 127.221 18.6809 126.826 18.9476C126.432 19.2036 126.144 19.5289 125.962 19.9236H124.346L125.306 13.6516H131.354V15.1396H126.586L126.01 18.1316C126.256 17.8542 126.592 17.6249 127.018 17.4436C127.456 17.2516 127.946 17.1556 128.49 17.1556C129.248 17.1556 129.898 17.3316 130.442 17.6836C130.986 18.0249 131.402 18.4889 131.69 19.0756C131.989 19.6622 132.138 20.3129 132.138 21.0276C132.138 21.7742 131.978 22.4516 131.658 23.0596C131.338 23.6676 130.88 24.1529 130.282 24.5156C129.696 24.8676 128.997 25.0436 128.186 25.0436ZM138.622 25.0436C137.609 25.0436 136.734 24.8036 135.998 24.3236C135.273 23.8329 134.713 23.1556 134.318 22.2916C133.934 21.4169 133.742 20.4036 133.742 19.2516C133.742 18.0996 133.934 17.0916 134.318 16.2276C134.713 15.3529 135.273 14.6756 135.998 14.1956C136.734 13.7049 137.609 13.4596 138.622 13.4596C139.635 13.4596 140.505 13.7049 141.23 14.1956C141.955 14.6756 142.51 15.3529 142.894 16.2276C143.289 17.0916 143.486 18.0996 143.486 19.2516C143.486 20.4036 143.289 21.4169 142.894 22.2916C142.51 23.1556 141.955 23.8329 141.23 24.3236C140.505 24.8036 139.635 25.0436 138.622 25.0436ZM138.622 23.5236C139.23 23.5236 139.769 23.3529 140.238 23.0116C140.718 22.6702 141.091 22.1796 141.358 21.5396C141.625 20.8996 141.758 20.1369 141.758 19.2516C141.758 18.3662 141.625 17.6036 141.358 16.9636C141.091 16.3236 140.718 15.8329 140.238 15.4916C139.769 15.1502 139.23 14.9796 138.622 14.9796C138.003 14.9796 137.459 15.1502 136.99 15.4916C136.521 15.8329 136.153 16.3236 135.886 16.9636C135.619 17.6036 135.486 18.3662 135.486 19.2516C135.486 20.1369 135.619 20.8996 135.886 21.5396C136.153 22.1796 136.521 22.6702 136.99 23.0116C137.459 23.3529 138.003 23.5236 138.622 23.5236Z" fill="#1FDCB2"/>
</g>
<defs>
<linearGradient id="paint0_linear" x1="33.734" y1="8.35074" x2="21.1682" y2="38.3106" gradientUnits="userSpaceOnUse">
<stop stop-color="#30CCA7"/>
<stop offset="1" stop-color="#4F4590" stop-opacity="0"/>
</linearGradient>
<linearGradient id="paint1_linear" x1="71.584" y1="16.8516" x2="71.584" y2="22.8516" gradientUnits="userSpaceOnUse">
<stop stop-color="#1FDCB2"/>
<stop offset="1" stop-color="#1FDCB2" stop-opacity="0.75"/>
</linearGradient>
<clipPath id="clip0">
<rect width="78" height="26" fill="white" transform="translate(67.084 6.85156)"/>
</clipPath>
<clipPath id="clip1">
<rect width="9.00003" height="6" fill="white" transform="translate(67.084 16.8516)"/>
</clipPath>
</defs>
</svg>
