<svg width="135" height="135" viewBox="0 0 135 135" fill="none" xmlns="http://www.w3.org/2000/svg">
<g clip-path="url(#clip0)">
<circle cx="68.5" cy="67.5" r="63.5" fill="#1C1C36"/>
<circle cx="68.5" cy="67.5" r="63.5" fill="#322E5C" fill-opacity="0.5"/>
<circle cx="68.5" cy="67.5" r="63.5" fill="url(#paint0_linear)"/>
<g filter="url(#filter0_f)">
<ellipse cx="105.273" cy="119.211" rx="12.5" ry="7.5" transform="rotate(-11 105.273 119.211)" fill="url(#paint1_linear)"/>
</g>
<mask id="path-3-outside-1" maskUnits="userSpaceOnUse" x="1.11572" y="1.11548" width="134" height="134" fill="black">
<rect fill="white" x="1.11572" y="1.11548" width="134" height="134"/>
<path fill-rule="evenodd" clip-rule="evenodd" d="M2.11572 68.0001C2.11572 104.387 31.6133 133.885 68.0003 133.885C104.387 133.885 133.885 104.387 133.885 68.0001C133.885 31.613 104.387 2.11548 68.0003 2.11548C31.6133 2.11548 2.11572 31.613 2.11572 68.0001ZM126.916 67.9998C126.916 100.538 100.539 126.915 68.0008 126.915C35.4627 126.915 9.08537 100.538 9.08537 67.9998C9.08537 35.4617 35.4627 9.08435 68.0008 9.08435C100.539 9.08435 126.916 35.4617 126.916 67.9998Z"/>
</mask>
<path fill-rule="evenodd" clip-rule="evenodd" d="M2.11572 68.0001C2.11572 104.387 31.6133 133.885 68.0003 133.885C104.387 133.885 133.885 104.387 133.885 68.0001C133.885 31.613 104.387 2.11548 68.0003 2.11548C31.6133 2.11548 2.11572 31.613 2.11572 68.0001ZM126.916 67.9998C126.916 100.538 100.539 126.915 68.0008 126.915C35.4627 126.915 9.08537 100.538 9.08537 67.9998C9.08537 35.4617 35.4627 9.08435 68.0008 9.08435C100.539 9.08435 126.916 35.4617 126.916 67.9998Z" fill="#4F4590"/>
<path d="M68.0003 132.885C32.1655 132.885 3.11572 103.835 3.11572 68.0001H1.11572C1.11572 104.939 31.061 134.885 68.0003 134.885V132.885ZM132.885 68.0001C132.885 103.835 103.835 132.885 68.0003 132.885V134.885C104.94 134.885 134.885 104.939 134.885 68.0001H132.885ZM68.0003 3.11548C103.835 3.11548 132.885 32.1653 132.885 68.0001H134.885C134.885 31.0607 104.94 1.11548 68.0003 1.11548V3.11548ZM3.11572 68.0001C3.11572 32.1653 32.1655 3.11548 68.0003 3.11548V1.11548C31.061 1.11548 1.11572 31.0607 1.11572 68.0001H3.11572ZM68.0008 127.915C101.091 127.915 127.916 101.09 127.916 67.9998H125.916C125.916 99.9856 99.9866 125.915 68.0008 125.915V127.915ZM8.08537 67.9998C8.08537 101.09 34.9104 127.915 68.0008 127.915V125.915C36.015 125.915 10.0854 99.9856 10.0854 67.9998H8.08537ZM68.0008 8.08435C34.9104 8.08435 8.08537 34.9094 8.08537 67.9998H10.0854C10.0854 36.014 36.015 10.0843 68.0008 10.0843V8.08435ZM127.916 67.9998C127.916 34.9094 101.091 8.08435 68.0008 8.08435V10.0843C99.9866 10.0843 125.916 36.014 125.916 67.9998H127.916Z" fill="#4F4590" mask="url(#path-3-outside-1)"/>
<g filter="url(#filter1_d)">
<path d="M100.942 125.058C99.2756 126.02 97.1445 125.449 96.1823 123.782C95.22 122.116 95.7911 119.984 97.4577 119.022C125.637 102.753 135.291 66.721 119.022 38.5422C102.753 10.3634 66.7211 0.708647 38.5423 16.9777C10.3635 33.2467 0.708702 69.2788 16.9778 97.4577C20.1126 102.887 24.0264 107.71 28.5893 111.816C30.0199 113.103 30.136 115.306 28.8488 116.737C27.5615 118.167 25.3582 118.283 23.9277 116.996C18.8223 112.402 14.4443 107.008 10.9423 100.942C-7.25123 69.4301 3.54561 29.1358 35.0577 10.9422C66.5698 -7.25129 106.864 3.54556 125.058 35.0577C143.251 66.5698 132.454 106.864 100.942 125.058Z" fill="url(#paint2_linear)"/>
<path d="M95.7493 124.032C96.8496 125.938 99.2865 126.591 101.192 125.491C132.944 107.159 143.822 66.5589 125.491 34.8077C107.159 3.05641 66.559 -7.82237 34.8077 10.5092C3.05646 28.8408 -7.82232 69.441 10.5093 101.192C14.0375 107.303 18.4486 112.738 23.5932 117.368C25.229 118.84 27.7484 118.707 29.2204 117.071C30.6924 115.435 30.5596 112.916 28.9238 111.444C24.4001 107.373 20.5195 102.592 17.4108 97.2077C1.27979 69.268 10.8526 33.5417 38.7923 17.4107C66.7319 1.27973 102.458 10.8526 118.589 38.7922C134.72 66.7319 125.147 102.458 97.2077 118.589C95.3019 119.689 94.649 122.126 95.7493 124.032Z" stroke="url(#paint3_linear)"/>
</g>
<path d="M24.632 71.6494V69.9554C23.1947 69.794 22.058 69.2807 21.222 68.4154C20.386 67.55 19.968 66.45 19.968 65.1154H21.904C21.904 65.8927 22.1313 66.5894 22.586 67.2054C23.0553 67.8067 23.7373 68.1954 24.632 68.3714V62.4094C24.5293 62.38 24.4193 62.3507 24.302 62.3214C24.1993 62.2774 24.0967 62.2407 23.994 62.2114C22.806 61.8007 21.926 61.2947 21.354 60.6934C20.782 60.0774 20.496 59.278 20.496 58.2954C20.4813 57.1514 20.8407 56.198 21.574 55.4354C22.322 54.6727 23.3413 54.2327 24.632 54.1154V52.3334H26.15V54.1154C27.382 54.262 28.3647 54.724 29.098 55.5014C29.8313 56.2787 30.2053 57.2247 30.22 58.3394H28.284C28.284 57.7967 28.108 57.276 27.756 56.7774C27.404 56.264 26.8687 55.9194 26.15 55.7434V61.0674C26.2673 61.0967 26.3847 61.1334 26.502 61.1774C26.6193 61.2214 26.744 61.258 26.876 61.2874C27.6093 61.5514 28.2693 61.8594 28.856 62.2114C29.4427 62.5634 29.8973 63.018 30.22 63.5754C30.5573 64.1327 30.726 64.844 30.726 65.7094C30.726 66.3987 30.5573 67.0514 30.22 67.6674C29.8827 68.2834 29.3693 68.804 28.68 69.2294C28.0053 69.6547 27.162 69.904 26.15 69.9774V71.6494H24.632ZM22.41 58.1194C22.41 58.794 22.608 59.3074 23.004 59.6594C23.4 59.9967 23.9427 60.29 24.632 60.5394V55.6994C23.972 55.802 23.4367 56.066 23.026 56.4914C22.6153 56.902 22.41 57.4447 22.41 58.1194ZM28.812 65.8194C28.812 64.9687 28.5627 64.338 28.064 63.9274C27.5653 63.5167 26.9273 63.1794 26.15 62.9154V68.4154C27.0007 68.3127 27.6533 68.0194 28.108 67.5354C28.5773 67.0514 28.812 66.4794 28.812 65.8194ZM32.8408 69.7354V67.6894C33.7794 66.912 34.6888 66.142 35.5688 65.3794C36.4634 64.6167 37.2554 63.8614 37.9448 63.1134C38.6488 62.3654 39.2061 61.6394 39.6168 60.9354C40.0421 60.2167 40.2548 59.52 40.2548 58.8454C40.2548 58.2147 40.0788 57.6574 39.7268 57.1734C39.3894 56.6894 38.8248 56.4474 38.0328 56.4474C37.2261 56.4474 36.6174 56.7114 36.2068 57.2394C35.7961 57.7674 35.5908 58.4054 35.5908 59.1534H32.8628C32.8921 58.024 33.1414 57.0854 33.6108 56.3374C34.0801 55.5747 34.7034 55.01 35.4808 54.6434C36.2581 54.262 37.1308 54.0714 38.0988 54.0714C39.6681 54.0714 40.8854 54.504 41.7508 55.3694C42.6308 56.22 43.0708 57.3274 43.0708 58.6914C43.0708 59.542 42.8728 60.3707 42.4768 61.1774C42.0954 61.984 41.5894 62.7614 40.9588 63.5094C40.3281 64.2574 39.6461 64.9614 38.9128 65.6214C38.1794 66.2667 37.4681 66.868 36.7788 67.4254H43.4448V69.7354H32.8408ZM44.5951 72.2874L45.8491 66.8094H48.5771L46.4431 72.2874H44.5951ZM52.5469 69.7354V57.5474L50.0169 58.1414V55.9854L53.7349 54.3354H55.4729V69.7354H52.5469ZM63.4969 69.9994C62.4849 69.9994 61.5682 69.8234 60.7469 69.4714C59.9256 69.1047 59.2656 68.5474 58.7669 67.7994C58.2682 67.0514 58.0042 66.1127 57.9749 64.9834H60.7469C60.7616 65.7314 61.0036 66.362 61.4729 66.8754C61.9569 67.374 62.6316 67.6234 63.4969 67.6234C64.3182 67.6234 64.9489 67.396 65.3889 66.9414C65.8289 66.4867 66.0489 65.9147 66.0489 65.2254C66.0489 64.4187 65.7556 63.81 65.1689 63.3994C64.5969 62.974 63.8562 62.7614 62.9469 62.7614H61.8029V60.4514H62.9689C63.7169 60.4514 64.3402 60.2754 64.8389 59.9234C65.3376 59.5714 65.5869 59.0507 65.5869 58.3614C65.5869 57.7894 65.3962 57.3347 65.0149 56.9974C64.6482 56.6454 64.1349 56.4694 63.4749 56.4694C62.7562 56.4694 62.1916 56.682 61.7809 57.1074C61.3849 57.5327 61.1649 58.0534 61.1209 58.6694H58.3709C58.4296 57.2467 58.9209 56.1247 59.8449 55.3034C60.7836 54.482 61.9936 54.0714 63.4749 54.0714C64.5309 54.0714 65.4182 54.262 66.1369 54.6434C66.8702 55.01 67.4202 55.5014 67.7869 56.1174C68.1682 56.7334 68.3589 57.4154 68.3589 58.1634C68.3589 59.0287 68.1169 59.762 67.6329 60.3634C67.1636 60.95 66.5769 61.346 65.8729 61.5514C66.7382 61.7274 67.4422 62.1527 67.9849 62.8274C68.5276 63.4874 68.7989 64.3234 68.7989 65.3354C68.7989 66.186 68.5936 66.9634 68.1829 67.6674C67.7722 68.3714 67.1709 68.936 66.3789 69.3614C65.6016 69.7867 64.6409 69.9994 63.4969 69.9994ZM77.0864 69.9994C75.957 69.9994 74.9817 69.8014 74.1604 69.4054C73.3537 69.0094 72.7157 68.4667 72.2464 67.7774C71.7917 67.0734 71.5277 66.2814 71.4544 65.4014H74.2044C74.3364 66.032 74.659 66.56 75.1724 66.9854C75.6857 67.396 76.3237 67.6014 77.0864 67.6014C77.9077 67.6014 78.575 67.3007 79.0884 66.6994C79.6164 66.098 79.8804 65.35 79.8804 64.4554C79.8804 63.5314 79.6164 62.798 79.0884 62.2554C78.575 61.7127 77.9224 61.4414 77.1304 61.4414C76.4704 61.4414 75.8984 61.6027 75.4144 61.9254C74.9304 62.248 74.5857 62.6514 74.3804 63.1354H71.6744L72.9944 54.3354H81.5304V56.7994H75.1064L74.4024 60.3634C74.725 60.0114 75.165 59.7254 75.7224 59.5054C76.2797 59.2707 76.903 59.1534 77.5924 59.1534C78.6924 59.1534 79.609 59.4027 80.3424 59.9014C81.0757 60.3854 81.633 61.0307 82.0144 61.8374C82.3957 62.6294 82.5864 63.4947 82.5864 64.4334C82.5864 65.504 82.3517 66.4574 81.8824 67.2934C81.4277 68.1294 80.7824 68.7894 79.9464 69.2734C79.125 69.7574 78.1717 69.9994 77.0864 69.9994ZM85.8669 69.8454C85.5003 69.8454 85.1923 69.728 84.9429 69.4934C84.7083 69.244 84.5909 68.9434 84.5909 68.5914C84.5909 68.2394 84.7083 67.946 84.9429 67.7114C85.1923 67.462 85.5003 67.3374 85.8669 67.3374C86.2189 67.3374 86.5123 67.462 86.7469 67.7114C86.9963 67.946 87.1209 68.2394 87.1209 68.5914C87.1209 68.9434 86.9963 69.244 86.7469 69.4934C86.5123 69.728 86.2189 69.8454 85.8669 69.8454ZM94.8718 69.9994C93.8158 69.9994 92.8991 69.8087 92.1218 69.4274C91.3445 69.046 90.7211 68.5254 90.2518 67.8654C89.7971 67.1907 89.5185 66.428 89.4158 65.5774H91.2198C91.3958 66.428 91.8065 67.1174 92.4518 67.6454C93.0971 68.1587 93.9111 68.4154 94.8938 68.4154C95.6271 68.4154 96.2578 68.2467 96.7858 67.9094C97.3138 67.5574 97.7171 67.088 97.9958 66.5014C98.2891 65.9147 98.4358 65.262 98.4358 64.5434C98.4358 63.3994 98.1131 62.4754 97.4678 61.7714C96.8225 61.0674 95.9865 60.7154 94.9598 60.7154C94.1091 60.7154 93.3831 60.906 92.7818 61.2874C92.1805 61.6687 91.7405 62.1674 91.4618 62.7834H89.7018L91.0218 54.3354H99.0958V55.9414H92.4518L91.5498 60.6274C91.9018 60.202 92.3858 59.85 93.0018 59.5714C93.6325 59.2927 94.3511 59.1534 95.1578 59.1534C96.1698 59.1534 97.0498 59.388 97.7978 59.8574C98.5605 60.3267 99.1545 60.9647 99.5798 61.7714C100.005 62.578 100.218 63.4947 100.218 64.5214C100.218 65.504 100.005 66.4134 99.5798 67.2494C99.1691 68.0854 98.5605 68.7527 97.7538 69.2514C96.9618 69.75 96.0011 69.9994 94.8718 69.9994ZM109.113 69.9994C107.749 69.9994 106.568 69.6694 105.571 69.0094C104.588 68.3347 103.833 67.4034 103.305 66.2154C102.777 65.0127 102.513 63.6194 102.513 62.0354C102.513 60.4514 102.777 59.0654 103.305 57.8774C103.833 56.6747 104.588 55.7434 105.571 55.0834C106.568 54.4087 107.749 54.0714 109.113 54.0714C110.477 54.0714 111.65 54.4087 112.633 55.0834C113.615 55.7434 114.371 56.6747 114.899 57.8774C115.427 59.0654 115.691 60.4514 115.691 62.0354C115.691 63.6194 115.427 65.0127 114.899 66.2154C114.371 67.4034 113.615 68.3347 112.633 69.0094C111.65 69.6694 110.477 69.9994 109.113 69.9994ZM109.113 68.3714C110.007 68.3714 110.807 68.122 111.511 67.6234C112.229 67.11 112.787 66.384 113.183 65.4454C113.593 64.492 113.799 63.3554 113.799 62.0354C113.799 60.7154 113.593 59.586 113.183 58.6474C112.787 57.7087 112.229 56.99 111.511 56.4914C110.807 55.978 110.007 55.7214 109.113 55.7214C108.203 55.7214 107.397 55.978 106.693 56.4914C105.989 56.99 105.431 57.7087 105.021 58.6474C104.61 59.586 104.405 60.7154 104.405 62.0354C104.405 63.3554 104.61 64.492 105.021 65.4454C105.431 66.384 105.989 67.11 106.693 67.6234C107.397 68.122 108.203 68.3714 109.113 68.3714Z" fill="white"/>
<path d="M55.417 91.7354V83.1394H52.519V81.9354H59.785V83.1394H56.901V91.7354H55.417ZM63.1079 91.9034C62.4452 91.9034 61.8479 91.754 61.3159 91.4554C60.7932 91.1474 60.3779 90.7227 60.0699 90.1814C59.7619 89.6307 59.6079 88.9914 59.6079 88.2634C59.6079 87.5354 59.7619 86.9007 60.0699 86.3594C60.3872 85.8087 60.8119 85.384 61.3439 85.0854C61.8759 84.7774 62.4685 84.6234 63.1219 84.6234C63.7845 84.6234 64.3772 84.7774 64.8999 85.0854C65.4319 85.384 65.8519 85.8087 66.1599 86.3594C66.4772 86.9007 66.6359 87.5354 66.6359 88.2634C66.6359 88.9914 66.4772 89.6307 66.1599 90.1814C65.8519 90.7227 65.4319 91.1474 64.8999 91.4554C64.3679 91.754 63.7705 91.9034 63.1079 91.9034ZM63.1079 90.6294C63.4625 90.6294 63.7892 90.5407 64.0879 90.3634C64.3959 90.186 64.6432 89.9247 64.8299 89.5794C65.0165 89.2247 65.1099 88.786 65.1099 88.2634C65.1099 87.7407 65.0165 87.3067 64.8299 86.9614C64.6525 86.6067 64.4099 86.3407 64.1019 86.1634C63.8032 85.986 63.4765 85.8974 63.1219 85.8974C62.7672 85.8974 62.4359 85.986 62.1279 86.1634C61.8292 86.3407 61.5865 86.6067 61.3999 86.9614C61.2132 87.3067 61.1199 87.7407 61.1199 88.2634C61.1199 88.786 61.2132 89.2247 61.3999 89.5794C61.5865 89.9247 61.8292 90.186 62.1279 90.3634C62.4265 90.5407 62.7532 90.6294 63.1079 90.6294ZM70.8793 91.7354C70.198 91.7354 69.6566 91.572 69.2553 91.2454C68.854 90.9094 68.6533 90.3167 68.6533 89.4674V86.0374H67.4633V84.7914H68.6533L68.8353 83.0274H70.1373V84.7914H72.0973V86.0374H70.1373V89.4674C70.1373 89.85 70.2166 90.116 70.3753 90.2654C70.5433 90.4054 70.828 90.4754 71.2293 90.4754H72.0273V91.7354H70.8793ZM75.9795 91.9034C75.3915 91.9034 74.9061 91.8054 74.5235 91.6094C74.1408 91.4134 73.8561 91.1567 73.6695 90.8394C73.4828 90.5127 73.3895 90.158 73.3895 89.7754C73.3895 89.1034 73.6508 88.5714 74.1735 88.1794C74.6961 87.7874 75.4428 87.5914 76.4135 87.5914H78.2335V87.4654C78.2335 86.924 78.0841 86.518 77.7855 86.2474C77.4961 85.9767 77.1181 85.8414 76.6515 85.8414C76.2408 85.8414 75.8815 85.944 75.5735 86.1494C75.2748 86.3454 75.0928 86.6394 75.0275 87.0314H73.5435C73.5901 86.5274 73.7581 86.098 74.0475 85.7434C74.3461 85.3794 74.7195 85.104 75.1675 84.9174C75.6248 84.7214 76.1241 84.6234 76.6655 84.6234C77.6361 84.6234 78.3875 84.88 78.9195 85.3934C79.4515 85.8974 79.7175 86.588 79.7175 87.4654V91.7354H78.4295L78.3035 90.5454C78.1075 90.928 77.8228 91.25 77.4495 91.5114C77.0761 91.7727 76.5861 91.9034 75.9795 91.9034ZM76.2735 90.6994C76.6748 90.6994 77.0108 90.606 77.2815 90.4194C77.5615 90.2234 77.7761 89.9667 77.9255 89.6494C78.0841 89.332 78.1821 88.982 78.2195 88.5994H76.5675C75.9795 88.5994 75.5595 88.702 75.3075 88.9074C75.0648 89.1127 74.9435 89.3694 74.9435 89.6774C74.9435 89.9947 75.0601 90.2467 75.2935 90.4334C75.5361 90.6107 75.8628 90.6994 76.2735 90.6994ZM81.4478 91.7354V81.6554H82.9318V91.7354H81.4478Z" fill="white"/>
</g>
<defs>
<filter id="filter0_f" x="74.0417" y="92.5937" width="62.4619" height="53.2346" filterUnits="userSpaceOnUse" color-interpolation-filters="sRGB">
<feFlood flood-opacity="0" result="BackgroundImageFix"/>
<feBlend mode="normal" in="SourceGraphic" in2="BackgroundImageFix" result="shape"/>
<feGaussianBlur stdDeviation="9.43814" result="effect1_foregroundBlur"/>
</filter>
<filter id="filter1_d" x="-8.89551" y="-3.89575" width="153.791" height="145.421" filterUnits="userSpaceOnUse" color-interpolation-filters="sRGB">
<feFlood flood-opacity="0" result="BackgroundImageFix"/>
<feColorMatrix in="SourceAlpha" type="matrix" values="0 0 0 0 0 0 0 0 0 0 0 0 0 0 0 0 0 0 127 0"/>
<feOffset dy="5"/>
<feGaussianBlur stdDeviation="5"/>
<feColorMatrix type="matrix" values="0 0 0 0 0.583843 0 0 0 0 0.396078 0 0 0 0 0.890196 0 0 0 0.36 0"/>
<feBlend mode="normal" in2="BackgroundImageFix" result="effect1_dropShadow"/>
<feBlend mode="normal" in="SourceGraphic" in2="effect1_dropShadow" result="shape"/>
</filter>
<linearGradient id="paint0_linear" x1="132" y1="131" x2="44.0733" y2="-18.9166" gradientUnits="userSpaceOnUse">
<stop stop-color="#191932"/>
<stop offset="1" stop-color="#313557"/>
</linearGradient>
<linearGradient id="paint1_linear" x1="106.604" y1="131.062" x2="114.854" y2="119.21" gradientUnits="userSpaceOnUse">
<stop stop-color="#B283F8" stop-opacity="0"/>
<stop offset="1" stop-color="#B283F8"/>
</linearGradient>
<linearGradient id="paint2_linear" x1="40.9423" y1="108.981" x2="107.256" y2="127.209" gradientUnits="userSpaceOnUse">
<stop stop-color="#B886F9" stop-opacity="0"/>
<stop offset="1" stop-color="#B183F7"/>
</linearGradient>
<linearGradient id="paint3_linear" x1="40.9423" y1="108.981" x2="107.256" y2="127.209" gradientUnits="userSpaceOnUse">
<stop stop-color="#B886F9" stop-opacity="0"/>
<stop offset="1" stop-color="#B183F7"/>
</linearGradient>
<clipPath id="clip0">
<rect width="135" height="135" fill="white"/>
</clipPath>
</defs>
</svg>
