<svg width="24" height="24" viewBox="0 0 24 24" fill="none" xmlns="http://www.w3.org/2000/svg">
<g opacity="0.6">
<rect x="11.6199" y="22" width="2.34483" height="2.31899" transform="rotate(180 11.6199 22)" fill="#B0B7C3"/>
<rect x="11.6199" y="4.31934" width="2.34483" height="2.31899" transform="rotate(180 11.6199 4.31934)" fill="#B0B7C3"/>
<rect x="16.3094" y="22" width="2.34483" height="2.31899" transform="rotate(180 16.3094 22)" fill="#B0B7C3"/>
<rect x="16.3094" y="4.31934" width="2.34483" height="2.31899" transform="rotate(180 16.3094 4.31934)" fill="#B0B7C3"/>
<rect x="13.9641" y="7.79785" width="2.34483" height="2.31899" transform="rotate(180 13.9641 7.79785)" fill="#B0B7C3"/>
<rect x="13.9641" y="18.2324" width="2.34483" height="2.31899" transform="rotate(180 13.9641 18.2324)" fill="#B0B7C3"/>
</g>
<path d="M12.7936 16.4937C12.0479 16.4937 11.4136 16.3735 10.8908 16.133C10.3681 15.8925 9.97213 15.5747 9.70305 15.1796C9.43397 14.7846 9.29174 14.3551 9.27637 13.8913C9.27637 13.814 9.29943 13.7496 9.34556 13.6981C9.39937 13.6465 9.46088 13.6208 9.53007 13.6208H11.0638C11.1561 13.6208 11.2291 13.6379 11.2829 13.6723C11.3444 13.7066 11.4098 13.7668 11.479 13.8527C11.5789 14.0588 11.7327 14.2306 11.9402 14.368C12.1555 14.4968 12.44 14.5612 12.7936 14.5612C13.2088 14.5612 13.5278 14.4925 13.7508 14.3551C13.9737 14.2091 14.0852 14.0116 14.0852 13.7625C14.0852 13.5821 14.0275 13.4361 13.9122 13.3244C13.7969 13.2042 13.6124 13.1011 13.3587 13.0152C13.105 12.9208 12.7398 12.8177 12.2631 12.706C11.3329 12.4999 10.6371 12.1864 10.1759 11.7656C9.71458 11.3447 9.48394 10.7435 9.48394 9.96191C9.48394 9.4294 9.61464 8.95702 9.87603 8.54475C10.1451 8.1239 10.5218 7.79752 11.0062 7.56562C11.4982 7.33372 12.0671 7.21777 12.7129 7.21777C13.3894 7.21777 13.9737 7.3509 14.4657 7.61716C14.9655 7.87482 15.346 8.2012 15.6074 8.59628C15.8765 8.98278 16.0187 9.36499 16.0341 9.7429C16.0341 9.8202 16.011 9.88891 15.9649 9.94903C15.9188 10.0006 15.8611 10.0263 15.7919 10.0263H14.1774C14.0083 10.0263 13.8776 9.94903 13.7854 9.79443C13.7392 9.61406 13.6201 9.46376 13.4279 9.34351C13.2357 9.21468 12.9973 9.15027 12.7129 9.15027C12.39 9.15027 12.1401 9.21468 11.9633 9.34351C11.7865 9.47235 11.6981 9.6613 11.6981 9.91038C11.6981 10.1595 11.8134 10.357 12.044 10.503C12.2747 10.6404 12.7052 10.7821 13.3356 10.9282C14.0583 11.0742 14.631 11.2588 15.0539 11.4821C15.4844 11.6969 15.7996 11.9803 15.9995 12.3324C16.2071 12.676 16.3109 13.114 16.3109 13.6465C16.3109 14.2306 16.1609 14.7373 15.8611 15.1668C15.5613 15.5962 15.1461 15.9269 14.6157 16.1588C14.0852 16.3821 13.4778 16.4937 12.7936 16.4937Z" fill="#B0B7C3"/>
<path opacity="0.6" d="M4 3.73926H14.4833C15.7888 3.78714 17.0857 4.11627 18.1667 4.87841C19.3246 5.67058 20.2941 6.94204 20.7167 8.29587C20.9284 8.95817 20.9735 9.59543 21 10.2894V13.7068C20.8765 14.7328 20.6929 15.9516 20.15 16.8395C19.3249 18.2299 18.0111 19.2491 16.4667 19.6874C15.9486 19.8497 15.3007 19.8918 14.7667 19.9722H4V17.4091C4.47071 17.4034 4.94676 17.4456 5.41667 17.4091C5.40223 13.678 5.40223 10.0343 5.41667 6.30235C4.94676 6.27232 4.47071 6.30479 4 6.30235V3.73926ZM8.53333 6.30235C8.53333 10.0457 8.53414 13.6658 8.53333 17.4091C10.3504 17.4123 12.3829 17.4132 14.2 17.4091C15.1663 17.4099 16.1117 17.024 16.75 16.2699C17.5038 15.4283 17.5992 14.25 17.6 13.1373C17.5976 12.1373 17.6176 11.2893 17.6 10.2894C17.5711 9.16282 17.2958 7.94077 16.4667 7.15672C15.8364 6.53175 15.0684 6.30885 14.2 6.30235C12.3829 6.29748 10.3504 6.30235 8.53333 6.30235Z" fill="#B0B7C3"/>
</svg>
