<svg width="24" height="24" viewBox="0 0 24 24" fill="none" xmlns="http://www.w3.org/2000/svg">
<path opacity="0.5" fill-rule="evenodd" clip-rule="evenodd" d="M5.6665 6.33342C5.6665 8.17442 7.15893 9.66684 8.99992 9.66684C10.8409 9.66684 12.3333 8.17442 12.3333 6.33342C12.3333 4.49242 10.8409 3 8.99992 3C7.15893 3 5.6665 4.49242 5.6665 6.33342ZM13.9999 9.66656C13.9999 11.0473 15.1192 12.1666 16.5 12.1666C17.8807 12.1666 19.0001 11.0473 19.0001 9.66656C19.0001 8.28581 17.8807 7.16649 16.5 7.16649C15.1192 7.16649 13.9999 8.28581 13.9999 9.66656Z" fill="#FF9E00"/>
<path fill-rule="evenodd" clip-rule="evenodd" d="M8.98631 11.3335C5.05168 11.3335 1.82356 13.3556 1.50054 17.333C1.48295 17.5496 1.89727 18.0003 2.10627 18.0003H15.8726C16.4986 18.0003 16.5084 17.4965 16.4986 17.3336C16.2544 13.2445 12.9763 11.3335 8.98631 11.3335ZM17.8332 17.9999V18.0003H21.0466C21.4988 18.0003 21.5058 17.6224 21.4988 17.5002C21.3243 14.467 19.0065 13.0317 16.1677 13.0007C17.2135 14.3933 17.8332 16.1242 17.8332 17.9999Z" fill="#FFAB00"/>
</svg>
