<svg width="24" height="24" viewBox="0 0 24 24" fill="none" xmlns="http://www.w3.org/2000/svg">
<path opacity="0.5" fill-rule="evenodd" clip-rule="evenodd" d="M12 16.9999L16.0844 19.1472C16.279 19.2496 16.502 19.2849 16.7188 19.2477C17.2631 19.1544 17.6287 18.6374 17.5353 18.0931L16.7553 13.545L20.0596 10.3241C20.2171 10.1706 20.3196 9.96945 20.3512 9.75182C20.4306 9.20527 20.0519 8.69783 19.5054 8.61841L14.9389 7.95486L12.8967 3.81693C12.7994 3.61972 12.6398 3.46009 12.4426 3.36276C12.3 3.29242 12.1489 3.25916 12 3.25928V16.9999Z" fill="#FF9E00"/>
<path fill-rule="evenodd" clip-rule="evenodd" d="M12 3.25928C11.6316 3.25956 11.2774 3.46421 11.1033 3.81693L9.06111 7.95486L4.49463 8.61841C4.27699 8.65004 4.07585 8.75252 3.92234 8.91001C3.53684 9.30549 3.54493 9.9386 3.94042 10.3241L7.24475 13.545L6.4647 18.0931C6.42753 18.3098 6.46284 18.5328 6.56518 18.7274C6.82218 19.2163 7.42681 19.4042 7.91565 19.1472L12 16.9999V3.25928Z" fill="#FFAB00"/>
</svg>
