<svg width="14" height="14" viewBox="0 0 14 14" fill="none" xmlns="http://www.w3.org/2000/svg">
<path fill-rule="evenodd" clip-rule="evenodd" d="M0.90901 0.90901C1.33097 0.487053 1.90326 0.25 2.5 0.25H11.5C12.0967 0.25 12.669 0.487053 13.091 0.90901C13.5129 1.33097 13.75 1.90326 13.75 2.5V11.5C13.75 12.0967 13.5129 12.669 13.091 13.091C12.669 13.5129 12.0967 13.75 11.5 13.75H2.5C1.90326 13.75 1.33097 13.5129 0.90901 13.091C0.487053 12.669 0.25 12.0967 0.25 11.5V2.5C0.25 1.90326 0.487053 1.33097 0.90901 0.90901ZM2.5 1.75C2.30109 1.75 2.11032 1.82902 1.96967 1.96967C1.82902 2.11032 1.75 2.30109 1.75 2.5V11.5C1.75 11.6989 1.82902 11.8897 1.96967 12.0303C2.11032 12.171 2.30109 12.25 2.5 12.25H11.5C11.6989 12.25 11.8897 12.171 12.0303 12.0303C12.171 11.8897 12.25 11.6989 12.25 11.5V2.5C12.25 2.30109 12.171 2.11032 12.0303 1.96967C11.8897 1.82902 11.6989 1.75 11.5 1.75H2.5ZM10 3.25C10.4142 3.25 10.75 3.58579 10.75 4V10C10.75 10.4142 10.4142 10.75 10 10.75C9.58579 10.75 9.25 10.4142 9.25 10V4C9.25 3.58579 9.58579 3.25 10 3.25ZM7 5.5C7.41421 5.5 7.75 5.83579 7.75 6.25V10C7.75 10.4142 7.41421 10.75 7 10.75C6.58579 10.75 6.25 10.4142 6.25 10V6.25C6.25 5.83579 6.58579 5.5 7 5.5ZM4 7.75C4.41421 7.75 4.75 8.08579 4.75 8.5V10C4.75 10.4142 4.41421 10.75 4 10.75C3.58579 10.75 3.25 10.4142 3.25 10V8.5C3.25 8.08579 3.58579 7.75 4 7.75Z" fill="#989BA5"/>
</svg>
