<svg width="22" height="22" viewBox="0 0 22 22" fill="none" xmlns="http://www.w3.org/2000/svg">
<path d="M15.2539 13.3633V7.30469H6.74609V12.0312H0V22H22V13.3633H15.2539ZM20.2813 20.2813H1.71875V13.75H6.74609V18.5625H8.46484V9.02344H13.5352V18.5625H15.2539V15.082H20.2813V20.2813ZM18.689 11.6445H16.9297V9.92578H18.689C18.7618 9.92578 18.8335 9.88335 18.8735 9.82615C18.6989 9.65105 18.2899 9.37256 17.9262 9.18887L17.454 8.95066L17.4532 8.04536L17.714 7.77734H16.9297V6.05859H20.582V7.29448L19.6574 8.24463C20.1048 8.57562 20.625 9.06775 20.625 9.73041C20.625 10.7858 19.7565 11.6445 18.689 11.6445ZM5.02734 10.3125H1.28517V9.03015L1.53291 8.77905C2.3755 7.92505 3.20587 6.94187 3.40541 6.56912C3.37627 6.49741 3.3051 6.44531 3.22413 6.44531H1.41797V4.72656H3.22413C4.27955 4.72656 5.13826 5.58513 5.13826 6.64055C5.13826 7.03909 4.94785 7.51362 4.03154 8.59375H5.02734V10.3125ZM10.0547 2.77028C9.64004 2.97693 9.17356 3.09375 8.67969 3.09375V1.375C9.43782 1.375 10.0547 0.75813 10.0547 0H11.7734V5.58594H10.0547V2.77028Z" fill="white"/>
</svg>
