<svg width="18" height="18" viewBox="0 0 18 18" fill="none" xmlns="http://www.w3.org/2000/svg">
<path fill-rule="evenodd" clip-rule="evenodd" d="M0.87868 0.87868C1.44129 0.31607 2.20435 0 3 0H15C15.7956 0 16.5587 0.31607 17.1213 0.87868C17.6839 1.44129 18 2.20435 18 3V15C18 15.7957 17.6839 16.5587 17.1213 17.1213C16.5587 17.6839 15.7957 18 15 18H3C2.20435 18 1.44129 17.6839 0.87868 17.1213C0.31607 16.5587 0 15.7956 0 15V3C0 2.20435 0.31607 1.44129 0.87868 0.87868ZM3 2C2.73478 2 2.48043 2.10536 2.29289 2.29289C2.10536 2.48043 2 2.73478 2 3V15C2 15.2652 2.10536 15.5196 2.29289 15.7071C2.48043 15.8946 2.73478 16 3 16H15C15.2652 16 15.5196 15.8946 15.7071 15.7071C15.8946 15.5196 16 15.2652 16 15V3C16 2.73478 15.8946 2.48043 15.7071 2.29289C15.5196 2.10536 15.2652 2 15 2H3ZM13 4C13.5523 4 14 4.44772 14 5V13C14 13.5523 13.5523 14 13 14C12.4477 14 12 13.5523 12 13V5C12 4.44772 12.4477 4 13 4ZM9 7C9.55229 7 10 7.44772 10 8V13C10 13.5523 9.55229 14 9 14C8.44772 14 8 13.5523 8 13V8C8 7.44772 8.44772 7 9 7ZM5 10C5.55228 10 6 10.4477 6 11V13C6 13.5523 5.55228 14 5 14C4.44772 14 4 13.5523 4 13V11C4 10.4477 4.44772 10 5 10Z" fill="white"/>
</svg>
