<svg width="18" height="16" viewBox="0 0 18 16" fill="none" xmlns="http://www.w3.org/2000/svg">
<path fill-rule="evenodd" clip-rule="evenodd" d="M0.819154 4.11985C0.819315 2.1958 2.39798 0.63623 4.34551 0.63623H13.6548C15.6026 0.63623 17.1801 2.19594 17.1804 4.11954M17.1804 4.11954L17.182 6.24218C17.1822 6.45961 17.0948 6.66819 16.9393 6.82199C16.7837 6.9758 16.5727 7.06221 16.3526 7.06221C15.8246 7.06221 15.4015 7.48032 15.4015 8.00104C15.4015 8.52122 15.8248 8.93987 16.3526 8.93987C16.8107 8.93987 17.182 9.30675 17.182 9.75931V11.8796C17.182 13.8036 15.6042 15.3635 13.6556 15.3635H4.34392C2.39597 15.3635 0.818359 13.8035 0.818359 11.8796V9.75931C0.818359 9.30675 1.1897 8.93987 1.64777 8.93987C2.17453 8.93987 2.59804 8.52146 2.59804 8.00104C2.59804 7.52213 2.21853 7.13053 1.64777 7.13053C1.42775 7.13053 1.21674 7.04416 1.06118 6.89043C0.90563 6.73669 0.818281 6.52819 0.818359 6.31081L0.819154 4.11985M4.34551 2.27509C3.31402 2.27509 2.47798 3.10108 2.47798 4.12015L2.47744 5.61821C3.49296 5.93751 4.25687 6.83424 4.25687 8.00104C4.25687 9.14001 3.51242 10.1045 2.47719 10.4462V11.8796C2.47719 12.899 3.31275 13.7246 4.34392 13.7246H13.6556C14.6878 13.7246 15.5232 12.8988 15.5232 11.8796V10.4463C14.4874 10.1047 13.7427 9.1403 13.7427 8.00104C13.7427 6.86119 14.4873 5.89742 15.5227 5.55588L15.5216 4.12075C15.5216 3.10137 14.686 2.27509 13.6548 2.27509H4.34551Z" fill="#989BA5"/>
<path fill-rule="evenodd" clip-rule="evenodd" d="M9.71605 5.14939L9.71646 5.15021L10.2634 6.2446L11.4884 6.4206C12.1392 6.51599 12.4044 7.30735 11.9297 7.76569L11.9287 7.76662L11.0435 8.61763L11.2527 9.82144C11.3653 10.4708 10.6755 10.9531 10.0953 10.6541L10.0934 10.6532L8.99988 10.085L7.90446 10.6542C7.32428 10.9531 6.63439 10.4711 6.74696 9.82171L6.95629 8.61749L6.07085 7.76569C5.59614 7.30735 5.86132 6.51599 6.51211 6.42061L6.51383 6.42035L7.73634 6.24462L8.28393 5.14895L8.28464 5.14753C8.57703 4.56628 9.42216 4.55952 9.71605 5.14939ZM8.99988 6.49268L8.70716 7.07838C8.61655 7.25968 8.44148 7.38535 8.23895 7.41446L7.58658 7.50824L8.05875 7.96247C8.20555 8.10369 8.27255 8.30729 8.23787 8.50681L8.12601 9.15032L8.71035 8.84673C8.8916 8.75256 9.10816 8.75256 9.28941 8.84673L9.87376 9.15032L9.76189 8.50681C9.7272 8.30721 9.79426 8.10354 9.94117 7.96231L10.4135 7.50824L9.76085 7.41447C9.55831 7.38537 9.38322 7.2597 9.2926 7.07838L8.99988 6.49268Z" fill="#989BA5"/>
</svg>
