<svg width="20" height="20" viewBox="0 0 20 20" fill="none" xmlns="http://www.w3.org/2000/svg">
<path fill-rule="evenodd" clip-rule="evenodd" d="M10.8673 2.3093C10.3861 1.83034 9.60676 1.83199 9.12694 2.31398L8.42438 3.01753L8.42145 3.02045C7.82514 3.61254 7.01904 3.94476 6.17983 3.94476H5.17589C4.49741 3.94476 3.94561 4.49599 3.94561 5.17602V6.178C3.94561 7.02027 3.61164 7.82507 3.02033 8.42059L3.01837 8.42257L2.30918 9.13272C1.83028 9.6138 1.83193 10.3929 2.31445 10.8727L2.31689 10.8751L3.01837 11.5776C3.61184 12.1724 3.94561 12.9807 3.94561 13.8202V14.8241C3.94561 15.5036 4.49685 16.0544 5.17589 16.0544H6.17983C7.02015 16.0544 7.82593 16.3884 8.42145 16.9797L8.42391 16.9821L9.12969 17.6879L9.13221 17.6904C9.61479 18.1703 10.3939 18.1675 10.8722 17.6859L10.875 17.6831L11.5786 16.9805C12.1738 16.3881 12.9802 16.0544 13.821 16.0544H14.824C15.5043 16.0544 16.0552 15.5033 16.0552 14.8241V13.8202C16.0552 12.9818 16.3869 12.1736 16.9812 11.5779L17.6913 10.8678C18.1704 10.3859 18.1684 9.60723 17.686 9.12707L16.982 8.42305L16.9796 8.42059C16.3875 7.82428 16.0552 7.01916 16.0552 6.178V5.17602C16.0552 4.49627 15.5037 3.94476 14.824 3.94476H13.821C12.9813 3.94476 12.1746 3.61281 11.5786 3.01964L11.577 3.01801L10.8921 2.33319C10.8837 2.32537 10.8754 2.31741 10.8673 2.3093ZM1.99434 5.17602C1.99434 3.41889 3.41919 1.99348 5.17589 1.99348H6.17983C6.50298 1.99348 6.81441 1.86567 7.04531 1.63707L7.74406 0.937349C7.7443 0.937112 7.74454 0.936875 7.74477 0.936638C8.97769 -0.301115 10.9776 -0.313359 12.2246 0.90731C12.2347 0.916592 12.2446 0.926085 12.2543 0.935785L12.9551 1.63661C12.9553 1.63685 12.9556 1.63708 12.9558 1.63732C13.1851 1.86519 13.4962 1.99348 13.821 1.99348H14.824C16.5814 1.99348 18.0065 3.41861 18.0065 5.17602V6.178C18.0065 6.50315 18.1344 6.81366 18.363 7.04457C18.3634 7.04496 18.3638 7.04535 18.3642 7.04574L19.0627 7.74418C19.063 7.74448 19.0633 7.74478 19.0636 7.74508C20.3072 8.98407 20.3146 10.997 19.0749 12.2436L19.073 12.2456L18.3626 12.956C18.3627 12.9559 18.3625 12.9561 18.3626 12.956C18.1356 13.1838 18.0065 13.4957 18.0065 13.8202V14.8241C18.0065 16.5821 16.5808 18.0057 14.824 18.0057H13.821C13.4972 18.0057 13.1858 18.1342 12.9556 18.363C12.9558 18.3628 12.9554 18.3632 12.9556 18.363L12.2566 19.061C12.2561 19.0615 12.2556 19.062 12.2551 19.0625C11.0161 20.3083 9.00211 20.3128 7.75636 19.0741L7.7544 19.0721L7.04659 18.3643C7.04619 18.3639 7.04578 18.3635 7.04538 18.3631C6.81368 18.1337 6.50191 18.0057 6.17983 18.0057H5.17589C3.41975 18.0057 1.99434 16.5818 1.99434 14.8241V13.8202C1.99434 13.4967 1.86532 13.1846 1.63731 12.956L0.938595 12.2563C0.938168 12.2559 0.937742 12.2555 0.937316 12.2551C-0.307725 11.0157 -0.313451 9.00147 0.926299 7.75609L0.927864 7.75452L1.63568 7.04574C1.63596 7.04545 1.63625 7.04517 1.63653 7.04488C1.86617 6.81315 1.99434 6.50219 1.99434 6.178V5.17602Z" fill="white"/>
<path fill-rule="evenodd" clip-rule="evenodd" d="M13.1973 6.80272C13.5783 7.18373 13.5783 7.80147 13.1973 8.18248L8.18248 13.1973C7.80147 13.5783 7.18373 13.5783 6.80272 13.1973C6.42171 12.8163 6.42171 12.1985 6.80272 11.8175L11.8175 6.80272C12.1985 6.42171 12.8163 6.42171 13.1973 6.80272Z" fill="white"/>
<path d="M12.5042 13.2414C12.3091 13.2414 12.1237 13.1633 11.9871 13.0268C11.9188 12.9585 11.87 12.8707 11.831 12.7829C11.792 12.695 11.7725 12.6082 11.7725 12.5097C11.7725 12.4121 11.792 12.3145 11.831 12.2267C11.87 12.1389 11.9188 12.0609 11.9871 11.9926C12.2603 11.7194 12.7481 11.7194 13.0213 11.9926C13.0896 12.0609 13.1481 12.1389 13.1871 12.2267C13.2164 12.3145 13.2359 12.4121 13.2359 12.5097C13.2359 12.6082 13.2164 12.695 13.1871 12.7829C13.1481 12.8707 13.0896 12.9585 13.0213 13.0268C12.8847 13.1633 12.6993 13.2414 12.5042 13.2414Z" fill="white"/>
<path d="M7.48974 8.22674C7.39218 8.22674 7.30437 8.20625 7.21656 8.16723C7.12876 8.1282 7.04095 8.08039 6.97265 8.0121C6.90436 7.93405 6.85558 7.856 6.81655 7.76819C6.77753 7.67941 6.75801 7.59257 6.75801 7.49501C6.75801 7.39647 6.77753 7.29988 6.81655 7.21207C6.85558 7.12427 6.90436 7.03646 6.97265 6.97792C7.25559 6.70377 7.73365 6.70377 8.00683 6.97792C8.14342 7.11353 8.22147 7.29988 8.22147 7.49501C8.22147 7.59257 8.21172 7.67941 8.17269 7.76819C8.13367 7.856 8.07513 7.93405 8.00683 8.0121C7.93854 8.08039 7.86049 8.1282 7.77268 8.16723C7.68487 8.20625 7.58731 8.22674 7.48974 8.22674Z" fill="white"/>
<path fill-rule="evenodd" clip-rule="evenodd" d="M8.52516 6.46144L8.00683 6.97792L8.52238 6.45866C8.79748 6.73179 8.9532 7.10511 8.9532 7.49501C8.9532 7.64324 8.93877 7.84377 8.84256 8.06264L8.84136 8.06538C8.75854 8.25172 8.64463 8.39438 8.55751 8.49395L8.54147 8.51228L8.52424 8.52951C8.37582 8.67793 8.2151 8.77134 8.06986 8.83589C7.8868 8.91725 7.68781 8.95847 7.48974 8.95847C7.28103 8.95847 7.09238 8.91278 6.91938 8.83589C6.80415 8.78468 6.6188 8.69307 6.45524 8.52951L6.43802 8.51228L6.42197 8.49395C6.30414 8.35929 6.21603 8.21868 6.14789 8.06537L6.14668 8.06264C6.06948 7.88701 6.02629 7.70026 6.02629 7.49501C6.02629 7.30045 6.06477 7.1019 6.14789 6.91489C6.19485 6.80923 6.29244 6.60522 6.47782 6.43871C7.04092 5.90805 7.96589 5.90016 8.52516 6.46144Z" fill="white"/>
<path fill-rule="evenodd" clip-rule="evenodd" d="M13.4034 11.6407L12.885 12.1572L13.4006 11.6379C13.6757 11.9111 13.8314 12.2844 13.8314 12.6743C13.8314 12.8225 13.817 13.023 13.7208 13.2419L13.7196 13.2446C13.6367 13.431 13.5228 13.5737 13.4357 13.6732L13.4197 13.6916L13.4024 13.7088C13.254 13.8572 13.0933 13.9506 12.9481 14.0152C12.765 14.0965 12.566 14.1377 12.3679 14.1377C12.1592 14.1377 11.9706 14.0921 11.7976 14.0152C11.6823 13.9639 11.497 13.8723 11.3334 13.7088L11.3162 13.6916L11.3002 13.6732C11.1823 13.5386 11.0942 13.3979 11.0261 13.2446L11.0249 13.2419C10.9477 13.0663 10.9045 12.8795 10.9045 12.6743C10.9045 12.4797 10.943 12.2812 11.0261 12.0942C11.073 11.9885 11.1706 11.7845 11.356 11.618C11.9191 11.0873 12.8441 11.0794 13.4034 11.6407Z" fill="white"/>
</svg>
