<svg width="20" height="18" viewBox="0 0 20 18" fill="none" xmlns="http://www.w3.org/2000/svg">
<path fill-rule="evenodd" clip-rule="evenodd" d="M0.000971544 4.25776C0.00116786 1.90614 1.93065 0 4.31096 0H15.689C18.0696 0 19.9977 1.90632 19.9981 4.25738M19.9981 4.25738L20 6.85171C20.0002 7.11746 19.8935 7.3724 19.7034 7.56038C19.5132 7.74836 19.2553 7.85398 18.9863 7.85398C18.3409 7.85398 17.8239 8.365 17.8239 9.00144C17.8239 9.63721 18.3412 10.1489 18.9863 10.1489C19.5461 10.1489 20 10.5973 20 11.1504V13.7419C20 16.0935 18.0716 18 15.69 18H4.30902C1.92819 18 4.76894e-09 16.0933 4.76894e-09 13.7419V11.1504C4.76894e-09 10.5973 0.453861 10.1489 1.01373 10.1489C1.65754 10.1489 2.17516 9.6375 2.17516 9.00144C2.17516 8.41611 1.71132 7.93748 1.01373 7.93748C0.744807 7.93748 0.486907 7.83192 0.296785 7.64402C0.106664 7.45612 -9.63093e-05 7.20128 6.51921e-08 6.9356L0.000971544 4.25776M4.31096 2.00306C3.05026 2.00306 2.02843 3.01259 2.02843 4.25812L2.02776 6.08909C3.26895 6.47934 4.20262 7.57535 4.20262 9.00144C4.20262 10.3935 3.29274 11.5723 2.02746 11.99V13.7419C2.02746 14.9878 3.0487 15.9969 4.30902 15.9969H15.69C16.9515 15.9969 17.9725 14.9876 17.9725 13.7419V11.9901C16.7067 11.5726 15.7964 10.3939 15.7964 9.00144C15.7964 7.60828 16.7065 6.43034 17.9719 6.0129L17.9706 4.25886C17.9706 3.01295 16.9494 2.00306 15.689 2.00306H4.31096Z" fill="white"/>
<path fill-rule="evenodd" clip-rule="evenodd" d="M10.875 5.51608L10.8755 5.51709L11.5439 6.85467L13.0412 7.06979C13.8366 7.18637 14.1607 8.15359 13.5805 8.71378L13.5794 8.71492L12.4974 9.75504L12.7531 11.2264C12.8907 12.02 12.0476 12.6095 11.3385 12.2441L11.3362 12.2429L9.99964 11.5486L8.66079 12.2441C7.95167 12.6095 7.10848 12.0204 7.24607 11.2267L7.50192 9.75487L6.41971 8.71378C5.83951 8.15359 6.16362 7.18637 6.95903 7.06979L6.96113 7.06949L8.45531 6.8547L9.12459 5.51554L9.12546 5.51381C9.48281 4.80339 10.5158 4.79513 10.875 5.51608ZM9.99964 7.15788L9.64186 7.87374C9.53112 8.09533 9.31714 8.24892 9.06961 8.2845L8.27227 8.39912L8.84937 8.95429C9.0288 9.1269 9.11068 9.37574 9.06829 9.61959L8.93157 10.4061L9.64577 10.0351C9.8673 9.91996 10.132 9.91996 10.3535 10.0351L11.0677 10.4061L10.931 9.61959C10.8886 9.37565 10.9705 9.12672 11.1501 8.9541L11.7274 8.39912L10.9297 8.28451C10.6822 8.24895 10.4682 8.09535 10.3574 7.87374L9.99964 7.15788Z" fill="white"/>
</svg>
