<svg width="20" height="19" viewBox="0 0 20 19" fill="none" xmlns="http://www.w3.org/2000/svg">
<path d="M14.9995 6.72465V4.16654C14.9995 2.9441 14.1424 1.84233 12.5862 1.06426C11.2136 0.377978 9.40717 0 7.49978 0C5.59216 0 3.78573 0.377978 2.41316 1.06426C0.857021 1.84233 0 2.9441 0 4.16654V7.49972V10.8328V14.166C0 15.3885 0.85702 16.4902 2.41321 17.2683C3.78578 17.9546 5.59222 18.3325 7.49983 18.3325C8.95302 18.3325 10.3384 18.1157 11.5351 17.7046C12.3261 18.1059 13.2201 18.3325 14.1661 18.3325C17.3829 18.3325 20 15.7155 20 12.4987C19.9999 9.56485 17.8229 7.1303 14.9995 6.72465ZM1.66681 10.168C1.89411 10.3216 2.1428 10.4668 2.41321 10.602C3.78578 11.2883 5.59228 11.6663 7.49983 11.6663C7.80064 11.6663 8.09966 11.6563 8.39591 11.6376C8.35419 11.9187 8.33224 12.2062 8.33224 12.4987C8.33224 12.7709 8.35141 13.0388 8.38769 13.3011C8.09483 13.322 7.79825 13.3326 7.49983 13.3326C4.16131 13.3326 1.66681 12.0128 1.66681 10.8329V10.168ZM8.93596 9.91633C8.46803 9.97139 7.98677 9.99939 7.49978 9.99939C4.16131 9.99944 1.66681 8.67972 1.66681 7.49972V6.83489C1.89411 6.98851 2.1428 7.13369 2.41321 7.26881C3.78578 7.95515 5.59228 8.33307 7.49983 8.33307C8.52615 8.33307 9.5224 8.22273 10.4384 8.01471C9.81421 8.53454 9.3001 9.18187 8.93596 9.91633ZM7.49978 1.66682C10.8382 1.66682 13.3326 2.98654 13.3326 4.16654C13.3326 5.34653 10.8382 6.66632 7.49978 6.66632C4.16131 6.66632 1.66681 5.34653 1.66681 4.16654C1.66681 2.98654 4.16131 1.66682 7.49978 1.66682ZM1.66681 14.166V13.5013C1.89411 13.6549 2.1428 13.8 2.41321 13.9352C3.78578 14.6215 5.59222 14.9994 7.49983 14.9994C7.95987 14.9994 8.41669 14.9768 8.86512 14.9331C9.11937 15.4845 9.45701 15.9899 9.86204 16.4327C9.11937 16.5848 8.31524 16.6658 7.49978 16.6658C4.16131 16.6658 1.66681 15.346 1.66681 14.166ZM14.1661 16.6658C11.8684 16.6658 9.99906 14.7964 9.99906 12.4987C9.99906 10.2075 11.8579 8.34269 14.1468 8.33218C14.1533 8.33235 14.1595 8.33319 14.1661 8.33319C14.1726 8.33319 14.1789 8.33235 14.1854 8.33218C16.4742 8.34269 18.3331 10.2075 18.3331 12.4987C18.3331 14.7964 16.4638 16.6658 14.1661 16.6658Z" fill="white" fill-opacity="0.65"/>
</svg>
