<svg width="18" height="18" viewBox="0 0 18 18" fill="none" xmlns="http://www.w3.org/2000/svg">
<path fill-rule="evenodd" clip-rule="evenodd" d="M17.1308 13.8125L14.6467 9.5225C15.155 8.58888 15.4198 7.5422 15.4167 6.47917C15.4167 2.93534 12.5438 0.0625 8.99999 0.0625C5.45616 0.0625 2.58332 2.93534 2.58332 6.47917C2.58016 7.5422 2.84499 8.58888 3.35332 9.5225L0.869152 13.8125C0.705076 14.0967 0.705422 14.4469 0.870059 14.7307C1.0347 15.0146 1.33851 15.1888 1.66665 15.1875H4.29749L5.63582 17.4425C5.68094 17.5172 5.7365 17.5851 5.80082 17.6442C5.97075 17.808 6.19731 17.8999 6.43332 17.9008H6.56165C6.84209 17.8625 7.08908 17.6967 7.23082 17.4517L8.99999 14.4083L10.7692 17.4792C10.913 17.7207 11.1596 17.8828 11.4383 17.9192H11.5667C11.8058 17.9206 12.0361 17.8285 12.2083 17.6625C12.27 17.6068 12.3225 17.5419 12.3642 17.47L13.7025 15.215H16.3333C16.6621 15.2163 16.9664 15.0414 17.1308 14.7567C17.3054 14.4661 17.3054 14.103 17.1308 13.8125ZM6.42418 15.2148L5.60835 13.8489C5.44497 13.5733 5.14955 13.403 4.82918 13.3998H3.24335L4.55418 11.1264C5.45684 11.9962 6.59451 12.5826 7.82668 12.8131L6.42418 15.2148ZM9 11.0627C6.4687 11.0627 4.41667 9.01068 4.41667 6.47937C4.41667 3.94807 6.4687 1.89604 9 1.89604C11.5313 1.89604 13.5833 3.94807 13.5833 6.47937C13.5833 9.01068 11.5313 11.0627 9 11.0627ZM13.1708 13.3998C12.8504 13.4031 12.555 13.5734 12.3916 13.849L11.5758 15.2148L10.1825 12.7856C11.4103 12.5504 12.5438 11.9646 13.4458 11.099L14.7566 13.3723L13.1708 13.3998Z" fill="white"/>
</svg>
