<svg width="22" height="18" viewBox="0 0 22 18" fill="none" xmlns="http://www.w3.org/2000/svg">
<path fill-rule="evenodd" clip-rule="evenodd" d="M11.0001 2.58333C10.5139 2.58333 10.0475 2.77649 9.70372 3.1203C9.3599 3.46412 9.16675 3.93044 9.16675 4.41667C9.16675 4.9029 9.3599 5.36921 9.70372 5.71303C10.0475 6.05685 10.5139 6.25 11.0001 6.25C11.4863 6.25 11.9526 6.05685 12.2964 5.71303C12.6403 5.36921 12.8334 4.9029 12.8334 4.41667C12.8334 3.93044 12.6403 3.46412 12.2964 3.1203C11.9526 2.77649 11.4863 2.58333 11.0001 2.58333ZM8.40736 1.82394C9.09499 1.13631 10.0276 0.75 11.0001 0.75C11.9725 0.75 12.9052 1.13631 13.5928 1.82394C14.2804 2.51158 14.6667 3.44421 14.6667 4.41667C14.6667 5.38913 14.2804 6.32176 13.5928 7.00939C12.9052 7.69703 11.9725 8.08333 11.0001 8.08333C10.0276 8.08333 9.09499 7.69703 8.40736 7.00939C7.71972 6.32176 7.33341 5.38913 7.33341 4.41667C7.33341 3.44421 7.71972 2.51158 8.40736 1.82394ZM4.58341 6.25C4.3403 6.25 4.10714 6.34658 3.93523 6.51849C3.76332 6.69039 3.66675 6.92355 3.66675 7.16667C3.66675 7.40978 3.76332 7.64294 3.93523 7.81485C4.10714 7.98676 4.3403 8.08333 4.58341 8.08333C4.82653 8.08333 5.05969 7.98676 5.2316 7.81485C5.4035 7.64294 5.50008 7.40978 5.50008 7.16667C5.50008 6.92355 5.4035 6.69039 5.2316 6.51849C5.05969 6.34658 4.82653 6.25 4.58341 6.25ZM2.63887 5.22212C3.1546 4.7064 3.85407 4.41667 4.58341 4.41667C5.31276 4.41667 6.01223 4.7064 6.52796 5.22212C7.04368 5.73785 7.33341 6.43732 7.33341 7.16667C7.33341 7.89601 7.04368 8.59549 6.52796 9.11121C6.01223 9.62694 5.31276 9.91667 4.58341 9.91667C3.85407 9.91667 3.1546 9.62694 2.63887 9.11121C2.12315 8.59549 1.83341 7.89601 1.83341 7.16667C1.83341 6.43732 2.12315 5.73785 2.63887 5.22212ZM17.4167 6.25C17.1736 6.25 16.9405 6.34658 16.7686 6.51849C16.5967 6.69039 16.5001 6.92355 16.5001 7.16667C16.5001 7.40978 16.5967 7.64294 16.7686 7.81485C16.9405 7.98676 17.1736 8.08333 17.4167 8.08333C17.6599 8.08333 17.893 7.98676 18.0649 7.81485C18.2368 7.64294 18.3334 7.40978 18.3334 7.16667C18.3334 6.92355 18.2368 6.69039 18.0649 6.51849C17.893 6.34658 17.6599 6.25 17.4167 6.25ZM15.4722 5.22212C15.9879 4.7064 16.6874 4.41667 17.4167 4.41667C18.1461 4.41667 18.8456 4.7064 19.3613 5.22212C19.877 5.73785 20.1667 6.43732 20.1667 7.16667C20.1667 7.89601 19.877 8.59549 19.3613 9.11121C18.8456 9.62694 18.1461 9.91667 17.4167 9.91667C16.6874 9.91667 15.9879 9.62694 15.4722 9.11121C14.9565 8.59549 14.6667 7.89601 14.6667 7.16667C14.6667 6.43732 14.9565 5.73785 15.4722 5.22212ZM11.0001 10.8327C10.267 10.8327 9.55069 11.0523 8.94361 11.4633C8.33653 11.8742 7.8665 12.4577 7.59414 13.1383C7.42624 13.5573 7.33341 14.0168 7.33341 14.5V15.4167H14.6667V14.5C14.6667 14.0168 14.5741 13.5577 14.4062 13.1387C14.1338 12.4581 13.6636 11.8742 13.0566 11.4633C12.4495 11.0523 11.7332 10.8327 11.0001 10.8327ZM16.5001 15.4167H19.2501V14.5001C19.2501 14.5 19.2501 14.5001 19.2501 14.5001C19.25 14.1191 19.1313 13.7475 18.9104 13.4371C18.6895 13.1267 18.3773 12.8928 18.0173 12.768C17.6573 12.6432 17.2674 12.6337 16.9017 12.7407C16.6847 12.8042 16.4826 12.9069 16.3049 13.0425C16.4324 13.5077 16.5001 13.9967 16.5001 14.5V15.4167ZM15.519 11.3628C15.1342 10.8088 14.6488 10.3272 14.0843 9.9451C13.1738 9.32877 12.0995 8.99936 11.0001 8.99936C9.90061 8.99936 8.82636 9.32877 7.91589 9.9451C7.35141 10.3272 6.86593 10.8088 6.48113 11.3628C6.21119 11.1995 5.91975 11.0708 5.61343 10.9812C4.8821 10.7671 4.10224 10.7862 3.38228 11.0359C2.66231 11.2855 2.038 11.7532 1.59613 12.374C1.15427 12.9949 0.916804 13.7379 0.916748 14.4999V16.3333C0.916748 16.8396 1.32715 17.25 1.83341 17.25H20.1667C20.673 17.25 21.0834 16.8396 21.0834 16.3333V14.5C21.0834 13.738 20.8459 12.9949 20.404 12.374C19.9622 11.7532 19.3379 11.2855 18.6179 11.0359C17.8979 10.7862 17.1181 10.7671 16.3867 10.9812C16.0804 11.0708 15.789 11.1995 15.519 11.3628ZM5.69528 13.0425C5.51754 12.9069 5.31545 12.8042 5.09842 12.7407C4.73276 12.6337 4.34283 12.6432 3.98285 12.768C3.62286 12.8928 3.31071 13.1267 3.08977 13.4371C2.86885 13.7475 2.75012 14.119 2.75008 14.5C2.75008 14.5 2.75008 14.5 2.75008 14.5V15.4167H5.50008V14.5C5.50008 13.9967 5.56776 13.5077 5.69528 13.0425Z" fill="white"/>
</svg>
