<svg width="18" height="14" viewBox="0 0 18 14" fill="none" xmlns="http://www.w3.org/2000/svg">
<path fill-rule="evenodd" clip-rule="evenodd" d="M9 1.75C8.60218 1.75 8.22064 1.90804 7.93934 2.18934C7.65804 2.47064 7.5 2.85218 7.5 3.25C7.5 3.64783 7.65804 4.02936 7.93934 4.31066C8.22064 4.59196 8.60217 4.75 9 4.75C9.39783 4.75 9.77936 4.59196 10.0607 4.31066C10.342 4.02936 10.5 3.64783 10.5 3.25C10.5 2.85218 10.342 2.47064 10.0607 2.18934C9.77936 1.90804 9.39782 1.75 9 1.75ZM6.87868 1.12868C7.44129 0.566071 8.20435 0.25 9 0.25C9.79565 0.25 10.5587 0.566071 11.1213 1.12868C11.6839 1.69129 12 2.45435 12 3.25C12 4.04565 11.6839 4.80871 11.1213 5.37132C10.5587 5.93393 9.79565 6.25 9 6.25C8.20435 6.25 7.44129 5.93393 6.87868 5.37132C6.31607 4.80871 6 4.04565 6 3.25C6 2.45435 6.31607 1.69129 6.87868 1.12868ZM3.75 4.75C3.55109 4.75 3.36032 4.82902 3.21967 4.96967C3.07902 5.11032 3 5.30109 3 5.5C3 5.69891 3.07902 5.88968 3.21967 6.03033C3.36032 6.17098 3.55109 6.25 3.75 6.25C3.94891 6.25 4.13968 6.17098 4.28033 6.03033C4.42098 5.88968 4.5 5.69891 4.5 5.5C4.5 5.30109 4.42098 5.11032 4.28033 4.96967C4.13968 4.82902 3.94891 4.75 3.75 4.75ZM2.15901 3.90901C2.58097 3.48705 3.15326 3.25 3.75 3.25C4.34674 3.25 4.91903 3.48705 5.34099 3.90901C5.76295 4.33097 6 4.90326 6 5.5C6 6.09674 5.76295 6.66903 5.34099 7.09099C4.91903 7.51295 4.34674 7.75 3.75 7.75C3.15326 7.75 2.58097 7.51295 2.15901 7.09099C1.73705 6.66903 1.5 6.09674 1.5 5.5C1.5 4.90326 1.73705 4.33097 2.15901 3.90901ZM14.25 4.75C14.0511 4.75 13.8603 4.82902 13.7197 4.96967C13.579 5.11032 13.5 5.30109 13.5 5.5C13.5 5.69891 13.579 5.88968 13.7197 6.03033C13.8603 6.17098 14.0511 6.25 14.25 6.25C14.4489 6.25 14.6397 6.17098 14.7803 6.03033C14.921 5.88968 15 5.69891 15 5.5C15 5.30109 14.921 5.11032 14.7803 4.96967C14.6397 4.82902 14.4489 4.75 14.25 4.75ZM12.659 3.90901C13.081 3.48705 13.6533 3.25 14.25 3.25C14.8467 3.25 15.419 3.48705 15.841 3.90901C16.2629 4.33097 16.5 4.90326 16.5 5.5C16.5 6.09674 16.2629 6.66903 15.841 7.09099C15.419 7.51295 14.8467 7.75 14.25 7.75C13.6533 7.75 13.081 7.51295 12.659 7.09099C12.2371 6.66903 12 6.09674 12 5.5C12 4.90326 12.2371 4.33097 12.659 3.90901ZM9 8.49947C8.40019 8.49947 7.81414 8.67918 7.31743 9.01542C6.82073 9.35166 6.43616 9.829 6.21332 10.3859C6.07595 10.7287 6 11.1047 6 11.5V12.25H12V11.5C12 11.1047 11.9242 10.7291 11.7868 10.3862C11.564 9.82933 11.1793 9.35166 10.6826 9.01542C10.1859 8.67918 9.59981 8.49947 9 8.49947ZM13.5 12.25H15.75V11.5001C15.75 11.5 15.75 11.5001 15.75 11.5001C15.75 11.1883 15.6528 10.8843 15.4721 10.6304C15.2913 10.3764 15.0359 10.185 14.7414 10.0829C14.4468 9.98081 14.1278 9.97299 13.8286 10.0606C13.6511 10.1125 13.4857 10.1966 13.3403 10.3075C13.4446 10.6881 13.5 11.0882 13.5 11.5V12.25ZM12.6973 8.93322C12.3825 8.4799 11.9853 8.08591 11.5234 7.77326C10.7785 7.26899 9.89956 6.99947 9 6.99947C8.10044 6.99947 7.2215 7.26899 6.47657 7.77326C6.01472 8.08591 5.61751 8.4799 5.30268 8.93322C5.08181 8.79963 4.84337 8.69432 4.59274 8.62097C3.99438 8.44583 3.35632 8.46146 2.76725 8.6657C2.17819 8.86993 1.66739 9.25263 1.30586 9.76057C0.944336 10.2685 0.750046 10.8765 0.75 11.4999V13C0.75 13.4142 1.08579 13.75 1.5 13.75H16.5C16.9142 13.75 17.25 13.4142 17.25 13V11.5C17.25 10.8765 17.0557 10.2685 16.6941 9.76057C16.3326 9.25263 15.8218 8.86993 15.2327 8.6657C14.6437 8.46146 14.0056 8.44583 13.4073 8.62097C13.1566 8.69432 12.9182 8.79963 12.6973 8.93322ZM4.65971 10.3075C4.51428 10.1966 4.34894 10.1125 4.17137 10.0606C3.87219 9.97299 3.55316 9.98081 3.25863 10.0829C2.96409 10.185 2.70869 10.3764 2.52793 10.6304C2.34718 10.8843 2.25003 11.1883 2.25 11.5C2.25 11.5 2.25 11.5 2.25 11.5V12.25H4.5V11.5C4.5 11.0882 4.55538 10.6881 4.65971 10.3075Z" fill="#989BA5"/>
</svg>
