<svg width="190" height="106" viewBox="0 0 190 106" fill="none" xmlns="http://www.w3.org/2000/svg">
<g filter="url(#filter0_dd)">
<path fill-rule="evenodd" clip-rule="evenodd" d="M30.468 15C26.8958 15 24 17.8958 24 21.468V48.418C24 51.9902 26.8958 54.886 30.468 54.886H36.3125L35.0751 58.3474C34.7003 59.3956 35.4761 60.4745 36.5714 60.2761C39.9266 59.6685 43.8848 57.8523 46.4866 55.8233C46.8783 55.5178 47.2569 55.2052 47.6227 54.886H57.418C60.9902 54.886 63.886 51.9902 63.886 48.418V21.468C63.886 17.8958 60.9902 15 57.418 15H30.468Z" fill="url(#paint0_linear)"/>
<path fill-rule="evenodd" clip-rule="evenodd" d="M30.468 15C26.8958 15 24 17.8958 24 21.468V48.418C24 51.9902 26.8958 54.886 30.468 54.886H36.3125L35.0751 58.3474C34.7003 59.3956 35.4761 60.4745 36.5714 60.2761C39.9266 59.6685 43.8848 57.8523 46.4866 55.8233C46.8783 55.5178 47.2569 55.2052 47.6227 54.886H57.418C60.9902 54.886 63.886 51.9902 63.886 48.418V21.468C63.886 17.8958 60.9902 15 57.418 15H30.468Z" fill="url(#paint1_linear)"/>
<path fill-rule="evenodd" clip-rule="evenodd" d="M30.468 15C26.8958 15 24 17.8958 24 21.468V48.418C24 51.9902 26.8958 54.886 30.468 54.886H36.3125L35.0751 58.3474C34.7003 59.3956 35.4761 60.4745 36.5714 60.2761C39.9266 59.6685 43.8848 57.8523 46.4866 55.8233C46.8783 55.5178 47.2569 55.2052 47.6227 54.886H57.418C60.9902 54.886 63.886 51.9902 63.886 48.418V21.468C63.886 17.8958 60.9902 15 57.418 15H30.468Z" fill="url(#paint2_linear)" fill-opacity="0.5"/>
<mask id="mask0" style="mask-type:alpha" maskUnits="userSpaceOnUse" x="24" y="15" width="40" height="46">
<path fill-rule="evenodd" clip-rule="evenodd" d="M30.468 15C26.8958 15 24 17.8958 24 21.468V48.418C24 51.9902 26.8958 54.886 30.468 54.886H36.3125L35.0751 58.3474C34.7003 59.3956 35.4761 60.4745 36.5714 60.2761C39.9266 59.6685 43.8848 57.8523 46.4866 55.8233C46.8783 55.5178 47.2569 55.2052 47.6227 54.886H57.418C60.9902 54.886 63.886 51.9902 63.886 48.418V21.468C63.886 17.8958 60.9902 15 57.418 15H30.468Z" fill="url(#paint3_linear)"/>
<path fill-rule="evenodd" clip-rule="evenodd" d="M30.468 15C26.8958 15 24 17.8958 24 21.468V48.418C24 51.9902 26.8958 54.886 30.468 54.886H36.3125L35.0751 58.3474C34.7003 59.3956 35.4761 60.4745 36.5714 60.2761C39.9266 59.6685 43.8848 57.8523 46.4866 55.8233C46.8783 55.5178 47.2569 55.2052 47.6227 54.886H57.418C60.9902 54.886 63.886 51.9902 63.886 48.418V21.468C63.886 17.8958 60.9902 15 57.418 15H30.468Z" fill="url(#paint4_linear)"/>
<path fill-rule="evenodd" clip-rule="evenodd" d="M30.468 15C26.8958 15 24 17.8958 24 21.468V48.418C24 51.9902 26.8958 54.886 30.468 54.886H36.3125L35.0751 58.3474C34.7003 59.3956 35.4761 60.4745 36.5714 60.2761C39.9266 59.6685 43.8848 57.8523 46.4866 55.8233C46.8783 55.5178 47.2569 55.2052 47.6227 54.886H57.418C60.9902 54.886 63.886 51.9902 63.886 48.418V21.468C63.886 17.8958 60.9902 15 57.418 15H30.468Z" fill="url(#paint5_linear)" fill-opacity="0.35"/>
</mask>
<g mask="url(#mask0)">
<g style="mix-blend-mode:soft-light">
<path d="M24 21.468C24 17.8958 26.8958 15 30.468 15H57.418C60.9902 15 63.886 17.8958 63.886 21.468V48.418C63.886 51.9902 60.9902 54.886 57.418 54.886H30.468C26.8958 54.886 24 51.9902 24 48.418V21.468Z" fill="white" fill-opacity="0.05"/>
</g>
<g filter="url(#filter1_f)">
<path d="M42.0565 59.4136C47.266 59.4136 51.489 57.3865 51.489 54.886C51.489 52.3855 47.266 50.3584 42.0565 50.3584C36.8471 50.3584 32.624 52.3855 32.624 54.886C32.624 57.3865 36.8471 59.4136 42.0565 59.4136Z" fill="#E97618"/>
</g>
<g filter="url(#filter2_dd)">
<path d="M45.1178 21.6836H45.7437C46.7042 21.7218 47.6652 21.8998 48.556 22.2672C49.1593 22.5156 49.7545 22.8306 50.1997 23.3181C50.4589 23.6009 50.6618 23.9353 50.7935 24.2958C50.9438 24.7141 51.0001 25.1636 50.9785 25.6064C50.9554 26.0208 50.8651 26.4352 50.687 26.8114C50.5471 27.0887 50.408 27.3685 50.2258 27.6214C49.9975 27.9427 49.7052 28.2251 49.3535 28.4077C48.9327 28.6246 48.4372 28.7098 47.9722 28.6061C47.3665 28.4813 46.8472 28.0194 46.6411 27.4386C46.604 27.2603 46.6288 27.0673 46.7059 26.9026C46.7532 26.7963 46.8773 26.7664 46.9821 26.753C47.2102 26.7265 47.4269 26.8211 47.6511 26.8418C47.8027 26.8617 47.9265 26.742 47.9974 26.6213C48.0767 26.5001 48.0923 26.3522 48.0929 26.211C48.0933 25.9719 48.0972 25.73 48.0472 25.4948C48.0073 25.2953 47.9017 25.1175 47.7919 24.9493C47.6212 24.6942 47.3627 24.5174 47.0986 24.3708C46.6779 24.1251 46.1896 24.0263 45.7086 23.9927C45.297 23.9597 44.8805 23.9804 44.476 24.0653C43.7231 24.2309 43.0485 24.6662 42.5272 25.2268C42.0912 25.6847 41.7316 26.2364 41.5872 26.8582C41.4477 27.4572 41.5093 28.1046 41.7758 28.6604C42.0024 29.1354 42.3575 29.5394 42.7691 29.8635C43.3713 30.3628 44.0254 30.797 44.7054 31.1825C45.1142 31.4197 45.5473 31.6092 45.9729 31.8131C46.4007 32.0203 46.8234 32.2379 47.2413 32.4643C47.4998 32.6081 47.7635 32.7432 48.0177 32.8944C48.3891 33.1169 48.7416 33.3713 49.0689 33.6546C49.3141 33.8613 49.5307 34.0985 49.7679 34.3139C50.085 34.6159 50.3752 34.9456 50.6437 35.2916C50.8133 35.5128 50.9796 35.7377 51.1234 35.977C51.4953 36.59 51.7467 37.2767 51.8532 37.9862C51.8913 38.2242 51.9062 38.4651 51.9202 38.7054V39.0935C51.8995 39.6282 51.8525 40.1638 51.7406 40.6879C51.5716 41.507 51.2665 42.2999 50.8237 43.0103C50.4406 43.6278 49.957 44.1804 49.4098 44.6575C48.8844 45.1077 48.313 45.5038 47.715 45.8513C46.9582 46.2877 46.1495 46.6369 45.3071 46.87C44.6235 47.0638 43.9176 47.1583 43.2128 47.2348C43.1255 47.3719 43.0448 47.5134 42.9629 47.6539C42.7659 48.0036 42.6054 48.3818 42.3306 48.6808C42.0492 49.0001 41.6572 49.2444 41.2256 49.2763C40.8703 49.3063 40.5126 49.1774 40.2394 48.9525C39.8925 48.6601 39.6905 48.2179 39.6444 47.771C39.6211 47.6352 39.7112 47.484 39.8516 47.4614C40.2619 47.3803 40.6666 47.2587 41.0415 47.0716C41.0937 47.0442 41.1497 47.0227 41.195 46.9843C41.2181 46.919 41.1394 46.8868 41.09 46.873C40.7506 46.787 40.4072 46.7156 40.0717 46.6147C39.6237 46.4849 39.1837 46.3284 38.7529 46.1495C38.4258 46.0124 38.0992 45.8694 37.7993 45.6788C37.309 45.3147 36.8405 44.908 36.4815 44.4102C36.129 43.9191 36.0133 43.3061 35.9658 42.7154V42.3489C35.9809 42.2077 36.0007 42.0664 36.0352 41.9285C36.1771 41.3235 36.5395 40.7847 37.0085 40.3828C37.6432 39.8358 38.4909 39.5275 39.3311 39.586C40.0118 39.6297 40.6635 39.9038 41.2075 40.3089C41.7681 40.7248 42.226 41.2681 42.5847 41.8644C42.9784 42.5209 43.2639 43.2428 43.4176 43.9928C43.4331 44.0638 43.4398 44.1373 43.4666 44.2056C43.7884 44.1356 44.0989 44.0221 44.4057 43.9036C45.067 43.6367 45.6941 43.2805 46.2489 42.8312C46.6962 42.4679 47.0992 42.0455 47.4151 41.5624C47.7423 41.062 47.9797 40.4975 48.0707 39.9048C48.0979 39.7104 48.1356 39.5148 48.1209 39.3178C48.1024 39.0873 48.056 38.8594 47.984 38.6397C47.7788 38.0142 47.3844 37.4694 46.9284 37.0022C46.3463 36.3942 45.6784 35.8705 44.9581 35.4361C43.8674 34.807 42.7738 34.1824 41.6751 33.567C40.6017 32.9806 39.6151 32.2258 38.8048 31.3067C38.332 30.7849 37.9601 30.1662 37.7562 29.4905C37.5177 28.7119 37.5255 27.8795 37.6525 27.082C37.817 26.0726 38.2725 25.1121 38.9571 24.3516C39.3999 23.8534 39.9277 23.4358 40.4921 23.0835C41.1185 22.6948 41.7862 22.3696 42.4886 22.1437C43.3372 21.8649 44.2263 21.7198 45.1178 21.6836ZM38.0783 42.1005C37.9782 42.276 37.9567 42.4841 37.9638 42.6826C37.9797 42.9827 38.1373 43.2622 38.3566 43.4622C38.655 43.738 39.0319 43.9074 39.409 44.0465C39.6075 44.1157 39.8024 44.1959 40.0053 44.2515C40.3421 44.3477 40.6883 44.4042 41.0326 44.4654C41.1473 44.4844 41.2612 44.5131 41.3782 44.512C41.1644 43.757 40.7828 43.0489 40.2688 42.456C40.1028 42.2618 39.9186 42.0813 39.7052 41.9394C39.4661 41.7782 39.1888 41.6613 38.8982 41.6473C38.5688 41.6337 38.2484 41.8222 38.0783 42.1005Z" fill="white"/>
</g>
</g>
</g>
<path d="M79.6338 38.7891C79.6768 40.8623 81.0732 43.2793 85.3916 43.2793C89.0225 43.2793 91.2676 41.5068 91.2676 38.6279C91.2676 35.9639 89.4521 34.9219 87.3037 34.46L85.0801 33.9658C83.7695 33.6973 83.082 33.1279 83.082 32.2793C83.082 31.1514 84.0166 30.4424 85.5205 30.4424C87.2178 30.4424 88.0664 31.3984 88.1416 32.4297H91.042C91.0098 29.8408 88.8076 28.0361 85.5312 28.0361C82.4268 28.0361 79.9775 29.6367 79.9775 32.5156C79.9775 35.0078 81.6963 36.168 83.7588 36.6084L85.9609 37.1133C87.4434 37.4463 88.1953 37.9297 88.1953 38.9287C88.1953 40.0674 87.2715 40.8408 85.542 40.8408C83.6836 40.8408 82.7061 39.874 82.6201 38.7891H79.6338ZM103.578 31.5703H100.56V38.2842C100.56 39.8418 99.6143 40.626 98.4219 40.626C97.3799 40.626 96.3486 40.1426 96.3486 38.3164V31.5703H93.3193V39.1113C93.3193 41.8076 94.877 43.1719 97.1973 43.1719C99.1094 43.1719 100.151 42.1836 100.495 41.3027H100.635V43H103.578V31.5703ZM106.285 43H109.304V36.125C109.304 34.5781 110.174 33.9014 111.216 33.9014C112.29 33.9014 113.128 34.5244 113.128 36.1465V43H116.028V36.1465C116.028 34.707 116.77 33.9014 117.962 33.9014C119.079 33.9014 119.853 34.5996 119.853 36.0498V43H122.871V35.1797C122.871 32.9131 121.518 31.3984 119.176 31.3984C117.242 31.3984 116.061 32.4189 115.706 33.3857H115.577C115.201 32.2041 114.148 31.3984 112.397 31.3984C110.646 31.3984 109.68 32.4189 109.379 33.2568H109.229V31.5703H106.285V43ZM125.535 43H128.64V36.5977C128.64 35.0615 129.284 33.9766 131.11 33.9766C131.572 33.9766 132.045 34.0195 132.271 34.0947V31.4951C132.056 31.4414 131.755 31.4092 131.336 31.4092C129.789 31.4092 128.94 32.4404 128.693 33.1816H128.564V31.5703H125.535V43ZM140.166 41.6143H140.295V43H143.142V35.3193C143.142 32.6016 141.101 31.3984 138.447 31.3984C135.042 31.3984 133.839 33.2139 133.764 35.1152H136.589C136.643 34.2451 137.287 33.6436 138.394 33.6436C139.511 33.6436 140.166 34.2451 140.166 35.3193V36.3291H137.416C134.773 36.3291 133.345 37.6396 133.345 39.7021C133.345 41.8613 134.881 43.1719 137.104 43.1719C138.791 43.1719 139.736 42.4414 140.166 41.6143ZM138.104 41.002C137.201 41.002 136.342 40.5078 136.342 39.4873C136.342 38.6494 136.943 38.0801 138.136 38.0801H140.166V39.2617C140.166 40.3037 139.242 41.002 138.104 41.002ZM145.29 37.6826C145.29 41.0664 147.256 43.2041 150.436 43.2041C153.153 43.2041 155.055 41.8506 155.27 39.1865H152.498C152.38 40.0566 151.821 40.8193 150.586 40.8193C149.2 40.8193 148.33 39.627 148.33 37.6611V36.8018C148.33 34.9219 149.179 33.751 150.575 33.751C151.596 33.751 152.315 34.5566 152.455 35.4912H155.227C155.162 33.2139 153.379 31.3662 150.446 31.3662C147.213 31.3662 145.29 33.5898 145.29 36.7695V37.6826ZM157.396 43H160.415V36.3613C160.415 34.9326 161.21 33.9551 162.574 33.9551C163.724 33.9551 164.701 34.5996 164.701 36.3184V43H167.72V35.6416C167.72 32.8486 166.108 31.3984 163.81 31.3984C161.908 31.3984 160.898 32.4834 160.544 33.2783H160.415V27.5635H157.396V43ZM176.539 41.6143H176.668V43H179.515V35.3193C179.515 32.6016 177.474 31.3984 174.82 31.3984C171.415 31.3984 170.212 33.2139 170.137 35.1152H172.962C173.016 34.2451 173.66 33.6436 174.767 33.6436C175.884 33.6436 176.539 34.2451 176.539 35.3193V36.3291H173.789C171.146 36.3291 169.718 37.6396 169.718 39.7021C169.718 41.8613 171.254 43.1719 173.478 43.1719C175.164 43.1719 176.109 42.4414 176.539 41.6143ZM174.477 41.002C173.574 41.002 172.715 40.5078 172.715 39.4873C172.715 38.6494 173.316 38.0801 174.509 38.0801H176.539V39.2617C176.539 40.3037 175.615 41.002 174.477 41.002ZM182.995 31.5703H181.298V33.9014H182.931V39.7559C182.931 42.1084 183.951 43.0537 186.819 43.0537C187.421 43.0537 187.947 43 188.173 42.957V40.7334C188.044 40.7549 187.797 40.7549 187.55 40.7549C186.411 40.7549 185.928 40.4111 185.928 39.3154V33.9014H188.13V31.5703H185.928V28.874H182.995V31.5703Z" fill="#4E5D78"/>
<defs>
<filter id="filter0_dd" x="-6" y="0" width="99.886" height="105.3" filterUnits="userSpaceOnUse" color-interpolation-filters="sRGB">
<feFlood flood-opacity="0" result="BackgroundImageFix"/>
<feColorMatrix in="SourceAlpha" type="matrix" values="0 0 0 0 0 0 0 0 0 0 0 0 0 0 0 0 0 0 127 0" result="hardAlpha"/>
<feOffset dy="15"/>
<feGaussianBlur stdDeviation="15"/>
<feColorMatrix type="matrix" values="0 0 0 0 0.937255 0 0 0 0 0.470588 0 0 0 0 0.0509804 0 0 0 0.15 0"/>
<feBlend mode="normal" in2="BackgroundImageFix" result="effect1_dropShadow"/>
<feColorMatrix in="SourceAlpha" type="matrix" values="0 0 0 0 0 0 0 0 0 0 0 0 0 0 0 0 0 0 127 0" result="hardAlpha"/>
<feOffset dy="15"/>
<feGaussianBlur stdDeviation="15"/>
<feColorMatrix type="matrix" values="0 0 0 0 0.937255 0 0 0 0 0.47451 0 0 0 0 0.0588235 0 0 0 0.1 0"/>
<feBlend mode="normal" in2="effect1_dropShadow" result="effect2_dropShadow"/>
<feBlend mode="normal" in="SourceGraphic" in2="effect2_dropShadow" result="shape"/>
</filter>
<filter id="filter1_f" x="-41.376" y="-23.6416" width="166.865" height="157.055" filterUnits="userSpaceOnUse" color-interpolation-filters="sRGB">
<feFlood flood-opacity="0" result="BackgroundImageFix"/>
<feBlend mode="normal" in="SourceGraphic" in2="BackgroundImageFix" result="shape"/>
<feGaussianBlur stdDeviation="37" result="effect1_foregroundBlur"/>
</filter>
<filter id="filter2_dd" x="15.9658" y="11.6836" width="55.9544" height="67.597" filterUnits="userSpaceOnUse" color-interpolation-filters="sRGB">
<feFlood flood-opacity="0" result="BackgroundImageFix"/>
<feColorMatrix in="SourceAlpha" type="matrix" values="0 0 0 0 0 0 0 0 0 0 0 0 0 0 0 0 0 0 127 0" result="hardAlpha"/>
<feOffset dy="10"/>
<feGaussianBlur stdDeviation="10"/>
<feColorMatrix type="matrix" values="0 0 0 0 0.886275 0 0 0 0 0.482353 0 0 0 0 0.133333 0 0 0 0.1 0"/>
<feBlend mode="normal" in2="BackgroundImageFix" result="effect1_dropShadow"/>
<feColorMatrix in="SourceAlpha" type="matrix" values="0 0 0 0 0 0 0 0 0 0 0 0 0 0 0 0 0 0 127 0" result="hardAlpha"/>
<feOffset dy="10"/>
<feGaussianBlur stdDeviation="10"/>
<feColorMatrix type="matrix" values="0 0 0 0 0.886275 0 0 0 0 0.482353 0 0 0 0 0.133333 0 0 0 0.1 0"/>
<feBlend mode="normal" in2="effect1_dropShadow" result="effect2_dropShadow"/>
<feBlend mode="normal" in="SourceGraphic" in2="effect2_dropShadow" result="shape"/>
</filter>
<linearGradient id="paint0_linear" x1="24" y1="15" x2="69.1607" y2="54.6523" gradientUnits="userSpaceOnUse">
<stop stop-color="#00B1FF"/>
<stop offset="1" stop-color="#006BFF"/>
</linearGradient>
<linearGradient id="paint1_linear" x1="24" y1="15" x2="41.8726" y2="63.9976" gradientUnits="userSpaceOnUse">
<stop stop-color="#FCBF22"/>
<stop offset="1" stop-color="#DD7021"/>
</linearGradient>
<linearGradient id="paint2_linear" x1="44.0212" y1="15" x2="44.0212" y2="60.6859" gradientUnits="userSpaceOnUse">
<stop stop-color="#FD9D04"/>
<stop offset="1" stop-color="#FA7302"/>
</linearGradient>
<linearGradient id="paint3_linear" x1="24" y1="15" x2="69.1607" y2="54.6523" gradientUnits="userSpaceOnUse">
<stop stop-color="#00B1FF"/>
<stop offset="1" stop-color="#006BFF"/>
</linearGradient>
<linearGradient id="paint4_linear" x1="24" y1="15" x2="41.8726" y2="63.9976" gradientUnits="userSpaceOnUse">
<stop stop-color="#FCBF22"/>
<stop offset="1" stop-color="#DD7021"/>
</linearGradient>
<linearGradient id="paint5_linear" x1="44.0212" y1="15" x2="44.0212" y2="60.6859" gradientUnits="userSpaceOnUse">
<stop stop-color="#FD9D04"/>
<stop offset="1" stop-color="#FA7302"/>
</linearGradient>
</defs>
</svg>
