<svg width="24" height="24" viewBox="0 0 24 24" fill="none" xmlns="http://www.w3.org/2000/svg">
<path opacity="0.5" fill-rule="evenodd" clip-rule="evenodd" d="M3.87657 3.74564C3.3431 3.60269 2.79477 3.91928 2.65183 4.45274L0.0636351 14.112C-0.0793066 14.6455 0.237276 15.1938 0.770742 15.3367L19.1233 20.2543C19.6568 20.3972 20.2051 20.0807 20.3481 19.5472L22.9363 9.88794C23.0792 9.35448 22.7626 8.80614 22.2292 8.6632L3.87657 3.74564ZM10.4647 15.8637C12.5985 16.4354 14.7919 15.1691 15.3637 13.0352C15.9354 10.9014 14.6691 8.70804 12.5352 8.13627C10.4014 7.5645 8.20802 8.83083 7.63625 10.9647C7.06448 13.0986 8.33081 15.2919 10.4647 15.8637Z" fill="#B0B7C3"/>
<path fill-rule="evenodd" clip-rule="evenodd" d="M1 7C1 6.44772 1.44772 6 2 6H21C21.5523 6 22 6.44772 22 7V17C22 17.5523 21.5523 18 21 18H2C1.44772 18 1 17.5523 1 17V7ZM15.5 12C15.5 14.2091 13.7091 16 11.5 16C9.29086 16 7.5 14.2091 7.5 12C7.5 9.79086 9.29086 8 11.5 8C13.7091 8 15.5 9.79086 15.5 12ZM11.5 14C12.6046 14 13.5 13.1046 13.5 12C13.5 10.8954 12.6046 10 11.5 10C10.3954 10 9.5 10.8954 9.5 12C9.5 13.1046 10.3954 14 11.5 14Z" fill="#B0B7C3"/>
</svg>
