<svg width="24" height="24" viewBox="0 0 24 24" fill="none" xmlns="http://www.w3.org/2000/svg">
<path d="M18.3188 5.68806C17.6875 5.05674 16.664 5.05634 16.0322 5.68718L5.75793 15.9457C5.12107 16.5816 5.12068 17.6135 5.75705 18.2498C6.39342 18.8862 7.4253 18.8858 8.06118 18.249L18.3197 7.97465C18.9505 7.34284 18.9501 6.31939 18.3188 5.68806Z" fill="#FF9E00"/>
<path opacity="0.5" fill-rule="evenodd" clip-rule="evenodd" d="M7.5638 10.125C8.97858 10.125 10.125 8.97889 10.125 7.5625C10.125 6.14611 8.97858 5 7.5638 5C6.14902 5 5 6.14611 5 7.5625C5 8.97889 6.14902 10.125 7.5638 10.125ZM16.4386 19C17.8533 19 18.9998 17.8539 18.9998 16.4375C18.9998 15.0185 17.8533 13.875 16.4386 13.875C15.0238 13.875 13.8748 15.0185 13.8748 16.4375C13.8748 17.8539 15.0238 19 16.4386 19Z" fill="#FFAB00"/>
</svg>
