<svg width="147" height="133" viewBox="0 0 147 133" fill="none" xmlns="http://www.w3.org/2000/svg">
<g filter="url(#filter0_dd)">
<path fill-rule="evenodd" clip-rule="evenodd" d="M53.4654 22C48.2378 22 44 26.2378 44 31.4654V70.9044C44 76.132 48.2378 80.3698 53.4654 80.3698H62.0183L60.2074 85.4352C59.659 86.9692 60.7943 88.5481 62.3972 88.2576C67.3072 87.3685 73.0997 84.7106 76.9072 81.7414C77.4805 81.2943 78.0345 80.8369 78.5698 80.3698H92.9044C98.132 80.3698 102.37 76.132 102.37 70.9044V31.4654C102.37 26.2378 98.132 22 92.9044 22H53.4654Z" fill="url(#paint0_linear)"/>
<path fill-rule="evenodd" clip-rule="evenodd" d="M53.4654 22C48.2378 22 44 26.2378 44 31.4654V70.9044C44 76.132 48.2378 80.3698 53.4654 80.3698H62.0183L60.2074 85.4352C59.659 86.9692 60.7943 88.5481 62.3972 88.2576C67.3072 87.3685 73.0997 84.7106 76.9072 81.7414C77.4805 81.2943 78.0345 80.8369 78.5698 80.3698H92.9044C98.132 80.3698 102.37 76.132 102.37 70.9044V31.4654C102.37 26.2378 98.132 22 92.9044 22H53.4654Z" fill="url(#paint1_linear)"/>
<path fill-rule="evenodd" clip-rule="evenodd" d="M53.4654 22C48.2378 22 44 26.2378 44 31.4654V70.9044C44 76.132 48.2378 80.3698 53.4654 80.3698H62.0183L60.2074 85.4352C59.659 86.9692 60.7943 88.5481 62.3972 88.2576C67.3072 87.3685 73.0997 84.7106 76.9072 81.7414C77.4805 81.2943 78.0345 80.8369 78.5698 80.3698H92.9044C98.132 80.3698 102.37 76.132 102.37 70.9044V31.4654C102.37 26.2378 98.132 22 92.9044 22H53.4654Z" fill="url(#paint2_linear)" fill-opacity="0.5"/>
<mask id="mask0" mask-type="alpha" maskUnits="userSpaceOnUse" x="44" y="22" width="59" height="67">
<path fill-rule="evenodd" clip-rule="evenodd" d="M53.4654 22C48.2378 22 44 26.2378 44 31.4654V70.9044C44 76.132 48.2378 80.3698 53.4654 80.3698H62.0183L60.2074 85.4352C59.659 86.9692 60.7943 88.5481 62.3972 88.2576C67.3072 87.3685 73.0997 84.7106 76.9072 81.7414C77.4805 81.2943 78.0345 80.8369 78.5698 80.3698H92.9044C98.132 80.3698 102.37 76.132 102.37 70.9044V31.4654C102.37 26.2378 98.132 22 92.9044 22H53.4654Z" fill="url(#paint3_linear)"/>
<path fill-rule="evenodd" clip-rule="evenodd" d="M53.4654 22C48.2378 22 44 26.2378 44 31.4654V70.9044C44 76.132 48.2378 80.3698 53.4654 80.3698H62.0183L60.2074 85.4352C59.659 86.9692 60.7943 88.5481 62.3972 88.2576C67.3072 87.3685 73.0997 84.7106 76.9072 81.7414C77.4805 81.2943 78.0345 80.8369 78.5698 80.3698H92.9044C98.132 80.3698 102.37 76.132 102.37 70.9044V31.4654C102.37 26.2378 98.132 22 92.9044 22H53.4654Z" fill="url(#paint4_linear)"/>
<path fill-rule="evenodd" clip-rule="evenodd" d="M53.4654 22C48.2378 22 44 26.2378 44 31.4654V70.9044C44 76.132 48.2378 80.3698 53.4654 80.3698H62.0183L60.2074 85.4352C59.659 86.9692 60.7943 88.5481 62.3972 88.2576C67.3072 87.3685 73.0997 84.7106 76.9072 81.7414C77.4805 81.2943 78.0345 80.8369 78.5698 80.3698H92.9044C98.132 80.3698 102.37 76.132 102.37 70.9044V31.4654C102.37 26.2378 98.132 22 92.9044 22H53.4654Z" fill="url(#paint5_linear)" fill-opacity="0.35"/>
</mask>
<g mask="url(#mask0)">
<g style="mix-blend-mode:soft-light">
<path d="M44 31.4654C44 26.2378 48.2378 22 53.4654 22H92.9044C98.132 22 102.37 26.2378 102.37 31.4654V70.9044C102.37 76.132 98.132 80.3698 92.9044 80.3698H53.4654C48.2378 80.3698 44 76.132 44 70.9044V31.4654Z" fill="white" fill-opacity="0.05"/>
</g>
<g filter="url(#filter1_f)">
<path d="M70.4243 86.9954C78.0478 86.9954 84.2279 84.029 84.2279 80.3697C84.2279 76.7104 78.0478 73.7439 70.4243 73.7439C62.8007 73.7439 56.6206 76.7104 56.6206 80.3697C56.6206 84.029 62.8007 86.9954 70.4243 86.9954Z" fill="#E97618"/>
</g>
<g filter="url(#filter2_dd)">
<path d="M74.9039 31.7808H75.8199C77.2255 31.8366 78.6317 32.0972 79.9354 32.6349C80.8182 32.9983 81.6894 33.4593 82.3409 34.1727C82.7201 34.5866 83.017 35.076 83.2098 35.6035C83.4297 36.2156 83.5121 36.8734 83.4805 37.5215C83.4468 38.1279 83.3146 38.7343 83.0539 39.2849C82.8492 39.6907 82.6457 40.1002 82.3791 40.4703C82.0449 40.9404 81.6171 41.3537 81.1025 41.621C80.4866 41.9384 79.7616 42.063 79.081 41.9112C78.1947 41.7286 77.4347 41.0527 77.133 40.2027C77.0788 39.9418 77.115 39.6594 77.228 39.4184C77.2971 39.2628 77.4788 39.219 77.6322 39.1994C77.966 39.1606 78.2831 39.2991 78.6112 39.3294C78.833 39.3584 79.0141 39.1833 79.1179 39.0066C79.234 38.8293 79.2567 38.6129 79.2577 38.4062C79.2583 38.0563 79.264 37.7023 79.1908 37.3581C79.1324 37.0662 78.9778 36.8059 78.8172 36.5598C78.5674 36.1866 78.1891 35.9279 77.8025 35.7133C77.187 35.3536 76.4723 35.2091 75.7684 35.1599C75.1661 35.1116 74.5566 35.1419 73.9647 35.2662C72.8629 35.5085 71.8756 36.1456 71.1127 36.9659C70.4748 37.636 69.9485 38.4434 69.7371 39.3534C69.533 40.2299 69.6232 41.1774 70.0132 41.9907C70.3448 42.6858 70.8644 43.2771 71.4667 43.7513C72.348 44.482 73.3052 45.1175 74.3004 45.6816C74.8986 46.0287 75.5324 46.306 76.1553 46.6045C76.7812 46.9077 77.4 47.226 78.0114 47.5573C78.3897 47.7678 78.7756 47.9656 79.1476 48.1868C79.6912 48.5124 80.2071 48.8847 80.686 49.2993C81.0448 49.6019 81.3618 49.9489 81.7089 50.2641C82.173 50.7061 82.5977 51.1886 82.9905 51.695C83.2388 52.0187 83.4821 52.3478 83.6925 52.698C84.2368 53.595 84.6047 54.5999 84.7605 55.6382C84.8164 55.9866 84.8382 56.339 84.8587 56.6908V57.2587C84.8284 58.0412 84.7596 58.8249 84.5959 59.5919C84.3485 60.7906 83.902 61.951 83.254 62.9906C82.6933 63.8943 81.9856 64.7029 81.1848 65.4011C80.4159 66.0599 79.5798 66.6395 78.7046 67.1481C77.5972 67.7867 76.4137 68.2979 75.181 68.6389C74.1805 68.9226 73.1475 69.0608 72.1161 69.1728C71.9883 69.3734 71.8703 69.5804 71.7504 69.7861C71.462 70.2979 71.2273 70.8513 70.825 71.2889C70.4132 71.7562 69.8396 72.1137 69.208 72.1604C68.688 72.2042 68.1646 72.0155 67.7648 71.6865C67.2572 71.2586 66.9615 70.6115 66.894 69.9575C66.8599 69.7587 66.9918 69.5375 67.1972 69.5044C67.7976 69.3857 68.3899 69.2078 68.9385 68.9339C69.0149 68.8939 69.0969 68.8623 69.1632 68.8062C69.1969 68.7106 69.0818 68.6635 69.0095 68.6433C68.5129 68.5175 68.0103 68.413 67.5194 68.2654C66.8637 68.0754 66.2198 67.8464 65.5894 67.5845C65.1107 67.3838 64.6327 67.1746 64.1939 66.8957C63.4764 66.3628 62.7908 65.7678 62.2654 65.0392C61.7496 64.3205 61.5802 63.4235 61.5107 62.559V62.0226C61.5328 61.816 61.5619 61.6093 61.6123 61.4074C61.8199 60.5221 62.3503 59.7336 63.0366 59.1455C63.9654 58.345 65.206 57.8938 66.4356 57.9793C67.4317 58.0434 68.3854 58.4444 69.1815 59.0373C70.0018 59.6459 70.672 60.441 71.197 61.3137C71.7731 62.2744 72.1908 63.3307 72.4158 64.4284C72.4385 64.5322 72.4483 64.6398 72.4874 64.7398C72.9585 64.6373 73.4128 64.4713 73.8618 64.2978C74.8295 63.9072 75.7473 63.386 76.5591 62.7284C77.2138 62.1968 77.8035 61.5787 78.2657 60.8716C78.7447 60.1393 79.092 59.3133 79.2252 58.446C79.2649 58.1614 79.3202 57.8752 79.2987 57.5868C79.2716 57.2496 79.2037 56.9161 79.0984 56.5946C78.798 55.6793 78.2209 54.882 77.5536 54.1982C76.7017 53.3085 75.7243 52.5421 74.6701 51.9064C73.074 50.9857 71.4737 50.0716 69.8658 49.1712C68.2949 48.313 66.8511 47.2084 65.6654 45.8633C64.9735 45.0998 64.4292 44.1943 64.1308 43.2055C63.7818 42.0662 63.7932 40.848 63.979 39.6809C64.2197 38.2036 64.8864 36.798 65.8882 35.6852C66.5362 34.9561 67.3086 34.3449 68.1346 33.8294C69.0512 33.2605 70.0283 32.7847 71.0563 32.4541C72.2981 32.0461 73.5993 31.8338 74.9039 31.7808ZM64.6021 61.6592C64.4557 61.916 64.4242 62.2205 64.4346 62.511C64.4579 62.9502 64.6886 63.3591 65.0095 63.6519C65.4461 64.0555 65.9976 64.3035 66.5495 64.507C66.8401 64.6083 67.1253 64.7256 67.4222 64.807C67.915 64.9478 68.4217 65.0304 68.9256 65.12C69.0935 65.1478 69.26 65.1897 69.4314 65.1882C69.1184 64.0832 68.5599 63.0471 67.8077 62.1794C67.5648 61.8952 67.2954 61.6311 66.983 61.4235C66.6331 61.1875 66.2273 61.0165 65.802 60.996C65.3199 60.9761 64.8511 61.2518 64.6021 61.6592Z" fill="white"/>
</g>
</g>
</g>
<defs>
<filter id="filter0_dd" x="0.0975609" y="0.0487804" width="146.175" height="154.097" filterUnits="userSpaceOnUse" color-interpolation-filters="sRGB">
<feFlood flood-opacity="0" result="BackgroundImageFix"/>
<feColorMatrix in="SourceAlpha" type="matrix" values="0 0 0 0 0 0 0 0 0 0 0 0 0 0 0 0 0 0 127 0" result="hardAlpha"/>
<feOffset dy="21.9512"/>
<feGaussianBlur stdDeviation="21.9512"/>
<feColorMatrix type="matrix" values="0 0 0 0 0.937255 0 0 0 0 0.470588 0 0 0 0 0.0509804 0 0 0 0.15 0"/>
<feBlend mode="normal" in2="BackgroundImageFix" result="effect1_dropShadow"/>
<feColorMatrix in="SourceAlpha" type="matrix" values="0 0 0 0 0 0 0 0 0 0 0 0 0 0 0 0 0 0 127 0" result="hardAlpha"/>
<feOffset dy="21.9512"/>
<feGaussianBlur stdDeviation="21.9512"/>
<feColorMatrix type="matrix" values="0 0 0 0 0.937255 0 0 0 0 0.47451 0 0 0 0 0.0588235 0 0 0 0.1 0"/>
<feBlend mode="normal" in2="effect1_dropShadow" result="effect2_dropShadow"/>
<feBlend mode="normal" in="SourceGraphic" in2="effect2_dropShadow" result="shape"/>
</filter>
<filter id="filter1_f" x="-51.6721" y="-34.5488" width="244.193" height="229.837" filterUnits="userSpaceOnUse" color-interpolation-filters="sRGB">
<feFlood flood-opacity="0" result="BackgroundImageFix"/>
<feBlend mode="normal" in="SourceGraphic" in2="BackgroundImageFix" result="shape"/>
<feGaussianBlur stdDeviation="54.1463" result="effect1_foregroundBlur"/>
</filter>
<filter id="filter2_dd" x="32.2424" y="17.1466" width="81.8845" height="98.9225" filterUnits="userSpaceOnUse" color-interpolation-filters="sRGB">
<feFlood flood-opacity="0" result="BackgroundImageFix"/>
<feColorMatrix in="SourceAlpha" type="matrix" values="0 0 0 0 0 0 0 0 0 0 0 0 0 0 0 0 0 0 127 0" result="hardAlpha"/>
<feOffset dy="14.6341"/>
<feGaussianBlur stdDeviation="14.6341"/>
<feColorMatrix type="matrix" values="0 0 0 0 0.886275 0 0 0 0 0.482353 0 0 0 0 0.133333 0 0 0 0.1 0"/>
<feBlend mode="normal" in2="BackgroundImageFix" result="effect1_dropShadow"/>
<feColorMatrix in="SourceAlpha" type="matrix" values="0 0 0 0 0 0 0 0 0 0 0 0 0 0 0 0 0 0 127 0" result="hardAlpha"/>
<feOffset dy="14.6341"/>
<feGaussianBlur stdDeviation="14.6341"/>
<feColorMatrix type="matrix" values="0 0 0 0 0.886275 0 0 0 0 0.482353 0 0 0 0 0.133333 0 0 0 0.1 0"/>
<feBlend mode="normal" in2="effect1_dropShadow" result="effect2_dropShadow"/>
<feBlend mode="normal" in="SourceGraphic" in2="effect2_dropShadow" result="shape"/>
</filter>
<linearGradient id="paint0_linear" x1="44" y1="22" x2="110.089" y2="80.0278" gradientUnits="userSpaceOnUse">
<stop stop-color="#00B1FF"/>
<stop offset="1" stop-color="#006BFF"/>
</linearGradient>
<linearGradient id="paint1_linear" x1="44" y1="22" x2="70.155" y2="93.7039" gradientUnits="userSpaceOnUse">
<stop stop-color="#FCBF22"/>
<stop offset="1" stop-color="#DD7021"/>
</linearGradient>
<linearGradient id="paint2_linear" x1="73.2993" y1="22" x2="73.2993" y2="88.8574" gradientUnits="userSpaceOnUse">
<stop stop-color="#FD9D04"/>
<stop offset="1" stop-color="#FA7302"/>
</linearGradient>
<linearGradient id="paint3_linear" x1="44" y1="22" x2="110.089" y2="80.0278" gradientUnits="userSpaceOnUse">
<stop stop-color="#00B1FF"/>
<stop offset="1" stop-color="#006BFF"/>
</linearGradient>
<linearGradient id="paint4_linear" x1="44" y1="22" x2="70.155" y2="93.7039" gradientUnits="userSpaceOnUse">
<stop stop-color="#FCBF22"/>
<stop offset="1" stop-color="#DD7021"/>
</linearGradient>
<linearGradient id="paint5_linear" x1="73.2993" y1="22" x2="73.2993" y2="88.8574" gradientUnits="userSpaceOnUse">
<stop stop-color="#FD9D04"/>
<stop offset="1" stop-color="#FA7302"/>
</linearGradient>
</defs>
</svg>
